SplineFontDB: 3.0
FontName: FrutigerNeue-Regular
FullName: Frutiger Neue LT W01 CnMedium
FamilyName: FrutigerNeue
Weight: Regular
Copyright: Copyright  2010 - 2011 Linotype Corp., www.linotype.com. All rights reserved. This font software may not be reproduced, modified, disclosed or transferred without the express written approval of Linotype Corp. Frutiger is a trademark of Linotype Corp. registered in the U.S. Patent and Trademark Office and may be registered in certain other jurisdictions in the name of Linotype Corp. or its licensee Linotype GmbH. This typeface is original artwork of Adrian Frutiger and Akria Kobayashi. The design may be protected in certain jurisdictions.
Version: 1.20
ItalicAngle: 0
UnderlinePosition: -50
UnderlineWidth: 50
Ascent: 770
Descent: 230
sfntRevision: 0x00010000
LayerCount: 2
Layer: 0 1 "Back"  1
Layer: 1 1 "Fore"  0
XUID: [1021 588 1133928653 460392]
FSType: 8
OS2Version: 3
OS2_WeightWidthSlopeOnly: 0
OS2_UseTypoMetrics: 1
CreationTime: 1307610364
ModificationTime: 1359992261
PfmFamily: 17
TTFWeight: 400
TTFWidth: 5
LineGap: 200
VLineGap: 0
Panose: 2 11 7 6 4 3 4 2 2 3
OS2TypoAscent: 0
OS2TypoAOffset: 1
OS2TypoDescent: 0
OS2TypoDOffset: 1
OS2TypoLinegap: 200
OS2WinAscent: 0
OS2WinAOffset: 1
OS2WinDescent: 0
OS2WinDOffset: 1
HheadAscent: -167
HheadAOffset: 1
HheadDescent: 0
HheadDOffset: 1
OS2SubXSize: 700
OS2SubYSize: 650
OS2SubXOff: 0
OS2SubYOff: 140
OS2SupXSize: 700
OS2SupYSize: 650
OS2SupXOff: 0
OS2SupYOff: 477
OS2StrikeYSize: 50
OS2StrikeYPos: 250
OS2Vendor: 'LINO'
OS2CodePages: 00000001.00000000
OS2UnicodeRanges: 8000002f.0000000a.00000000.00000000
Lookup: 258 0 0 "'kern' Horizontal Kerning in Latin lookup 0"  {"'kern' Horizontal Kerning in Latin lookup 0 subtable"  } ['kern' ('DFLT' <'dflt' > 'latn' <'dflt' > ) ]
MarkAttachClasses: 1
DEI: 91125
TtTable: prep
NPUSHB
 255
 223
 224
 22
 23
 28
 212
 213
 22
 23
 28
 123
 124
 22
 27
 123
 124
 25
 209
 210
 22
 23
 28
 118
 119
 22
 23
 28
 109
 112
 22
 23
 28
 108
 111
 22

StartChar: exclam
Encoding: 33 33 5
Width: 311
GlyphClass: 2
Flags: W
LayerCount: 2
Fore
SplineSet
202 204 m 1,0,-1
 111 204 l 1,1,-1
 93 698 l 1,2,-1
 217 698 l 1,3,-1
 202 204 l 1,0,-1
213 0 m 1,4,-1
 101 0 l 1,5,-1
 101 117 l 1,6,-1
 213 117 l 1,7,-1
 213 0 l 1,4,-1
EndSplineSet
EndChar

StartChar: quotedbl
Encoding: 34 34 6
Width: 398
GlyphClass: 2
Flags: W
LayerCount: 2
Fore
SplineSet
98 407 m 1,0,-1
 81 698 l 1,1,-1
 173 698 l 1,2,-1
 156 407 l 1,3,-1
 98 407 l 1,0,-1
242 407 m 1,4,-1
 224 698 l 1,5,-1
 318 698 l 1,6,-1
 300 407 l 1,7,-1
 242 407 l 1,4,-1
EndSplineSet
EndChar

StartChar: numbersign
Encoding: 35 35 7
Width: 501
GlyphClass: 2
Flags: W
LayerCount: 2
Fore
SplineSet
60 0 m 1,0,-1
 92 191 l 1,1,-1
 20 191 l 1,2,-1
 20 276 l 1,3,-1
 106 276 l 1,4,-1
 129 418 l 1,5,-1
 48 418 l 1,6,-1
 48 502 l 1,7,-1
 142 502 l 1,8,-1
 175 698 l 1,9,-1
 262 698 l 1,10,-1
 230 502 l 1,11,-1
 320 502 l 1,12,-1
 352 698 l 1,13,-1
 439 698 l 1,14,-1
 406 502 l 1,15,-1
 478 502 l 1,16,-1
 478 418 l 1,17,-1
 393 418 l 1,18,-1
 369 276 l 1,19,-1
 450 276 l 1,20,-1
 450 191 l 1,21,-1
 356 191 l 1,22,-1
 324 0 l 1,23,-1
 236 0 l 1,24,-1
 269 191 l 1,25,-1
 179 191 l 1,26,-1
 147 0 l 1,27,-1
 60 0 l 1,0,-1
306 418 m 1,28,-1
 216 418 l 1,29,-1
 191 276 l 1,30,-1
 282 276 l 1,31,-1
 306 418 l 1,28,-1
EndSplineSet
EndChar

StartChar: dollar
Encoding: 36 36 8
Width: 501
GlyphClass: 2
Flags: W
LayerCount: 2
Fore
SplineSet
213 -81 m 1,0,-1
 213 -1 l 1,1,2
 173 0 173 0 135.5 6.5 c 128,-1,3
 98 13 98 13 66 25 c 1,4,-1
 77 124 l 1,5,6
 111 105 111 105 145 98 c 128,-1,7
 179 91 179 91 213 91 c 1,8,-1
 213 319 l 1,9,10
 169 341 169 341 139.5 361.5 c 128,-1,11
 110 382 110 382 91.5 405 c 128,-1,12
 73 428 73 428 65 454 c 128,-1,13
 57 480 57 480 57 513 c 0,14,15
 57 588 57 588 102 637 c 128,-1,16
 147 686 147 686 222 697 c 1,17,-1
 222 781 l 1,18,-1
 276 781 l 1,19,-1
 276 701 l 1,20,21
 309 700 309 700 339.5 694.5 c 128,-1,22
 370 689 370 689 400 678 c 1,23,-1
 390 586 l 1,24,25
 357 601 357 601 329.5 606.5 c 128,-1,26
 302 612 302 612 276 613 c 1,27,-1
 276 407 l 1,28,29
 358 365 358 365 398 319 c 128,-1,30
 438 273 438 273 438 203 c 0,31,32
 438 122 438 122 391.5 70 c 128,-1,33
 345 18 345 18 268 4 c 1,34,-1
 268 -81 l 1,35,-1
 213 -81 l 1,0,-1
331 189 m 0,36,37
 331 219 331 219 317.5 244 c 128,-1,38
 304 269 304 269 268 291 c 1,39,-1
 268 97 l 1,40,41
 331 117 331 117 331 189 c 0,36,37
160 525 m 0,42,43
 160 499 160 499 172 476.5 c 128,-1,44
 184 454 184 454 222 431 c 1,45,-1
 222 607 l 1,46,47
 194 599 194 599 177 577 c 128,-1,48
 160 555 160 555 160 525 c 0,42,43
EndSplineSet
EndChar

StartChar: percent
Encoding: 37 37 9
Width: 771
GlyphClass: 2
Flags: W
LayerCount: 2
Fore
SplineSet
188 414 m 256,0,1
 217 414 217 414 232.5 444.5 c 128,-1,2
 248 475 248 475 248 529 c 256,3,4
 248 583 248 583 232.5 613.5 c 128,-1,5
 217 644 217 644 187 644 c 0,6,7
 158 644 158 644 143.5 613.5 c 128,-1,8
 129 583 129 583 129 527 c 0,9,10
 129 474 129 474 144 444 c 128,-1,11
 159 414 159 414 188 414 c 256,0,1
188 346 m 0,12,13
 123 346 123 346 86 393.5 c 128,-1,14
 49 441 49 441 49 529 c 0,15,16
 49 619 49 619 86.5 665.5 c 128,-1,17
 124 712 124 712 190 712 c 0,18,19
 254 712 254 712 291 665 c 128,-1,20
 328 618 328 618 328 530 c 256,21,22
 328 442 328 442 291 394 c 128,-1,23
 254 346 254 346 188 346 c 0,12,13
618 735 m 1,24,-1
 227 -22 l 1,25,-1
 155 -22 l 1,26,-1
 545 735 l 1,27,-1
 618 735 l 1,24,-1
583 58 m 256,28,29
 612 58 612 58 627 88.5 c 128,-1,30
 642 119 642 119 642 173 c 256,31,32
 642 227 642 227 627 257 c 128,-1,33
 612 287 612 287 581 287 c 0,34,35
 552 287 552 287 537.5 256.5 c 128,-1,36
 523 226 523 226 523 170 c 0,37,38
 523 117 523 117 538.5 87.5 c 128,-1,39
 554 58 554 58 583 58 c 256,28,29
583 -10 m 256,40,41
 517 -10 517 -10 480 37.5 c 128,-1,42
 443 85 443 85 443 173 c 0,43,44
 443 262 443 262 480.5 309 c 128,-1,45
 518 356 518 356 584 356 c 0,46,47
 648 356 648 356 685 309 c 128,-1,48
 722 262 722 262 722 174 c 256,49,50
 722 86 722 86 685.5 38 c 128,-1,51
 649 -10 649 -10 583 -10 c 256,40,41
EndSplineSet
EndChar

StartChar: ampersand
Encoding: 38 38 10
Width: 636
GlyphClass: 2
Flags: W
LayerCount: 2
Fore
SplineSet
585 381 m 1,0,1
 577 234 577 234 513 140 c 1,2,-1
 625 0 l 1,3,-1
 493 0 l 1,4,-1
 442 65 l 1,5,6
 402 24 402 24 359 7 c 128,-1,7
 316 -10 316 -10 262 -10 c 0,8,9
 215 -10 215 -10 176.5 3.5 c 128,-1,10
 138 17 138 17 110.5 42.5 c 128,-1,11
 83 68 83 68 67.5 105 c 128,-1,12
 52 142 52 142 52 188 c 0,13,14
 52 325 52 325 191 390 c 1,15,16
 157 429 157 429 139 467.5 c 128,-1,17
 121 506 121 506 121 546 c 0,18,19
 121 583 121 583 134.5 613.5 c 128,-1,20
 148 644 148 644 172 665.5 c 128,-1,21
 196 687 196 687 228.5 698.5 c 128,-1,22
 261 710 261 710 299 710 c 0,23,24
 336 710 336 710 368 699.5 c 128,-1,25
 400 689 400 689 423 669 c 128,-1,26
 446 649 446 649 459 620.5 c 128,-1,27
 472 592 472 592 472 556 c 0,28,29
 472 493 472 493 434 448 c 128,-1,30
 396 403 396 403 329 368 c 1,31,-1
 452 208 l 1,32,33
 469 242 469 242 477.5 286 c 128,-1,34
 486 330 486 330 488 381 c 1,35,-1
 585 381 l 1,0,1
280 426 m 1,36,37
 318 446 318 446 346.5 477 c 128,-1,38
 375 508 375 508 375 552 c 0,39,40
 375 590 375 590 353 608.5 c 128,-1,41
 331 627 331 627 299 627 c 256,42,43
 267 627 267 627 245 606 c 128,-1,44
 223 585 223 585 223 547 c 0,45,46
 223 520 223 520 235.5 493 c 128,-1,47
 248 466 248 466 280 426 c 1,36,37
242 327 m 1,48,49
 195 304 195 304 176.5 269.5 c 128,-1,50
 158 235 158 235 158 195 c 0,51,52
 158 143 158 143 190 110 c 128,-1,53
 222 77 222 77 276 77 c 0,54,55
 311 77 311 77 338 90 c 128,-1,56
 365 103 365 103 391 133 c 1,57,-1
 242 327 l 1,48,49
EndSplineSet
EndChar

StartChar: quotesingle
Encoding: 39 39 11
Width: 253
GlyphClass: 2
Flags: W
LayerCount: 2
Fore
SplineSet
98 407 m 1,0,-1
 81 698 l 1,1,-1
 173 698 l 1,2,-1
 155 407 l 1,3,-1
 98 407 l 1,0,-1
EndSplineSet
EndChar

StartChar: parenleft
Encoding: 40 40 12
Width: 298
GlyphClass: 2
Flags: W
LayerCount: 2
Fore
SplineSet
41 310 m 0,0,1
 41 431 41 431 79.5 544 c 128,-1,2
 118 657 118 657 184 758 c 1,3,-1
 272 758 l 1,4,5
 207 640 207 640 175 529.5 c 128,-1,6
 143 419 143 419 143 308 c 256,7,8
 143 197 143 197 175 87 c 128,-1,9
 207 -23 207 -23 272 -140 c 1,10,-1
 184 -140 l 1,11,12
 118 -39 118 -39 79.5 74.5 c 128,-1,13
 41 188 41 188 41 310 c 0,0,1
EndSplineSet
EndChar

StartChar: parenright
Encoding: 41 41 13
Width: 298
GlyphClass: 2
Flags: W
LayerCount: 2
Fore
SplineSet
257 308 m 0,0,1
 257 187 257 187 218 74 c 128,-1,2
 179 -39 179 -39 114 -140 c 1,3,-1
 26 -140 l 1,4,5
 91 -23 91 -23 122.5 87.5 c 128,-1,6
 154 198 154 198 154 310 c 0,7,8
 154 421 154 421 122.5 530.5 c 128,-1,9
 91 640 91 640 26 758 c 1,10,-1
 114 758 l 1,11,12
 179 657 179 657 218 543.5 c 128,-1,13
 257 430 257 430 257 308 c 0,0,1
EndSplineSet
EndChar

StartChar: asterisk
Encoding: 42 42 14
Width: 514
GlyphClass: 2
Flags: W
LayerCount: 2
Fore
SplineSet
287 591 m 1,0,-1
 431 655 l 1,1,-1
 458 571 l 1,2,-1
 303 536 l 1,3,-1
 411 420 l 1,4,-1
 338 367 l 1,5,-1
 258 504 l 1,6,-1
 176 366 l 1,7,-1
 104 417 l 1,8,-1
 212 536 l 1,9,-1
 55 571 l 1,10,-1
 82 655 l 1,11,-1
 230 591 l 1,12,-1
 211 750 l 1,13,-1
 302 750 l 1,14,-1
 287 591 l 1,0,-1
EndSplineSet
EndChar

StartChar: plus
Encoding: 43 43 15
Width: 584
GlyphClass: 2
Flags: W
LayerCount: 2
Fore
SplineSet
339 508 m 1,0,-1
 339 297 l 1,1,-1
 546 297 l 1,2,-1
 546 209 l 1,3,-1
 339 209 l 1,4,-1
 339 0 l 1,5,-1
 246 0 l 1,6,-1
 246 209 l 1,7,-1
 37 209 l 1,8,-1
 37 297 l 1,9,-1
 246 297 l 1,10,-1
 246 508 l 1,11,-1
 339 508 l 1,0,-1
EndSplineSet
EndChar

StartChar: comma
Encoding: 44 44 16
Width: 236
GlyphClass: 2
Flags: W
LayerCount: 2
Fore
SplineSet
195 116 m 1,0,-1
 124 -125 l 1,1,-1
 39 -125 l 1,2,-1
 92 116 l 1,3,-1
 195 116 l 1,0,-1
EndSplineSet
EndChar

StartChar: hyphen
Encoding: 45 45 17
Width: 305
GlyphClass: 2
Flags: W
LayerCount: 2
Fore
SplineSet
270 222 m 1,0,-1
 36 222 l 1,1,-1
 36 311 l 1,2,-1
 270 311 l 1,3,-1
 270 222 l 1,0,-1
EndSplineSet
EndChar

StartChar: period
Encoding: 46 46 18
Width: 236
GlyphClass: 2
Flags: W
LayerCount: 2
Fore
SplineSet
173 121 m 1,0,-1
 173 0 l 1,1,-1
 64 0 l 1,2,-1
 64 121 l 1,3,-1
 173 121 l 1,0,-1
EndSplineSet
EndChar

StartChar: slash
Encoding: 47 47 19
Width: 415
GlyphClass: 2
Flags: W
LayerCount: 2
Fore
SplineSet
140 0 m 1,0,-1
 60 0 l 1,1,-1
 276 698 l 1,2,-1
 355 698 l 1,3,-1
 140 0 l 1,0,-1
EndSplineSet
EndChar

StartChar: zero
Encoding: 48 48 20
Width: 501
GlyphClass: 2
Flags: W
LayerCount: 2
Fore
SplineSet
253 710 m 0,0,1
 361 710 361 710 412 615 c 128,-1,2
 463 520 463 520 463 349 c 0,3,4
 463 177 463 177 411.5 82 c 128,-1,5
 360 -13 360 -13 250 -13 c 0,6,7
 196 -13 196 -13 156 12 c 128,-1,8
 116 37 116 37 89.5 83.5 c 128,-1,9
 63 130 63 130 50 197.5 c 128,-1,10
 37 265 37 265 37 350 c 0,11,12
 37 522 37 522 90 616 c 128,-1,13
 143 710 143 710 253 710 c 0,0,1
250 620 m 0,14,15
 196 620 196 620 170 553.5 c 128,-1,16
 144 487 144 487 144 348 c 0,17,18
 144 78 144 78 252 78 c 0,19,20
 356 78 356 78 356 347 c 0,21,22
 356 487 356 487 329.5 553.5 c 128,-1,23
 303 620 303 620 250 620 c 0,14,15
EndSplineSet
EndChar

StartChar: one
Encoding: 49 49 21
Width: 501
GlyphClass: 2
Flags: W
LayerCount: 2
Fore
SplineSet
340 0 m 1,0,-1
 233 0 l 1,1,-1
 233 394 l 2,2,3
 233 416 233 416 233.5 443.5 c 128,-1,4
 234 471 234 471 234.5 497.5 c 128,-1,5
 235 524 235 524 236 547 c 128,-1,6
 237 570 237 570 238 584 c 1,7,-1
 236 584 l 1,8,9
 222 571 222 571 191 545 c 128,-1,10
 160 519 160 519 123 493 c 1,11,-1
 73 570 l 1,12,-1
 245 698 l 1,13,-1
 340 698 l 1,14,-1
 340 0 l 1,0,-1
EndSplineSet
EndChar

StartChar: two
Encoding: 50 50 22
Width: 501
GlyphClass: 2
Flags: W
LayerCount: 2
Fore
SplineSet
73 673 m 1,0,1
 107 691 107 691 148 700.5 c 128,-1,2
 189 710 189 710 233 710 c 256,3,4
 277 710 277 710 313.5 697 c 128,-1,5
 350 684 350 684 376 659 c 128,-1,6
 402 634 402 634 416.5 597 c 128,-1,7
 431 560 431 560 431 512 c 0,8,9
 431 479 431 479 423 446.5 c 128,-1,10
 415 414 415 414 397.5 378.5 c 128,-1,11
 380 343 380 343 351.5 303 c 128,-1,12
 323 263 323 263 282 214 c 0,13,14
 212 130 212 130 162 89 c 1,15,-1
 162 87 l 1,16,17
 180 88 180 88 201.5 88.5 c 128,-1,18
 223 89 223 89 244.5 89 c 128,-1,19
 266 89 266 89 286 89 c 128,-1,20
 306 89 306 89 322 89 c 2,21,-1
 439 89 l 1,22,-1
 439 0 l 1,23,-1
 50 0 l 1,24,-1
 50 95 l 1,25,26
 122 167 122 167 172.5 226.5 c 128,-1,27
 223 286 223 286 254.5 335.5 c 128,-1,28
 286 385 286 385 300.5 426 c 128,-1,29
 315 467 315 467 315 502 c 0,30,31
 315 561 315 561 288.5 588.5 c 128,-1,32
 262 616 262 616 212 616 c 0,33,34
 151 616 151 616 83 575 c 1,35,-1
 73 673 l 1,0,1
EndSplineSet
EndChar

StartChar: three
Encoding: 51 51 23
Width: 501
GlyphClass: 2
Flags: W
LayerCount: 2
Fore
SplineSet
149 317 m 0,0,1
 143 317 143 317 135.5 317 c 128,-1,2
 128 317 128 317 120 316 c 1,3,-1
 120 406 l 1,4,5
 127 405 127 405 134 405 c 128,-1,6
 141 405 141 405 147 405 c 0,7,8
 231 405 231 405 276 434.5 c 128,-1,9
 321 464 321 464 321 520 c 0,10,11
 321 572 321 572 287.5 596.5 c 128,-1,12
 254 621 254 621 200 621 c 0,13,14
 167 621 167 621 133 612.5 c 128,-1,15
 99 604 99 604 66 587 c 1,16,-1
 60 680 l 1,17,18
 97 696 97 696 135.5 703 c 128,-1,19
 174 710 174 710 210 710 c 0,20,21
 259 710 259 710 300 698.5 c 128,-1,22
 341 687 341 687 370 664.5 c 128,-1,23
 399 642 399 642 415 608.5 c 128,-1,24
 431 575 431 575 431 532 c 0,25,26
 431 496 431 496 419 467.5 c 128,-1,27
 407 439 407 439 386 417.5 c 128,-1,28
 365 396 365 396 336.5 383 c 128,-1,29
 308 370 308 370 274 366 c 1,30,-1
 274 363 l 1,31,32
 310 360 310 360 340 346 c 128,-1,33
 370 332 370 332 391.5 309.5 c 128,-1,34
 413 287 413 287 425.5 256.5 c 128,-1,35
 438 226 438 226 438 189 c 0,36,37
 438 144 438 144 421 107 c 128,-1,38
 404 70 404 70 372 43 c 128,-1,39
 340 16 340 16 295 1.5 c 128,-1,40
 250 -13 250 -13 194 -13 c 0,41,42
 157 -13 157 -13 117 -7.5 c 128,-1,43
 77 -2 77 -2 41 11 c 1,44,-1
 47 110 l 1,45,46
 79 95 79 95 116.5 86 c 128,-1,47
 154 77 154 77 189 77 c 0,48,49
 249 77 249 77 286.5 106.5 c 128,-1,50
 324 136 324 136 324 198 c 0,51,52
 324 317 324 317 149 317 c 0,0,1
EndSplineSet
EndChar

StartChar: four
Encoding: 52 52 24
Width: 501
GlyphClass: 2
Flags: W
LayerCount: 2
Fore
SplineSet
401 234 m 1,0,-1
 481 234 l 1,1,-1
 481 151 l 1,2,-1
 401 151 l 1,3,-1
 401 0 l 1,4,-1
 300 0 l 1,5,-1
 300 151 l 1,6,-1
 20 151 l 1,7,-1
 20 246 l 1,8,-1
 267 698 l 1,9,-1
 401 698 l 1,10,-1
 401 234 l 1,0,-1
301 410 m 2,11,12
 301 455 301 455 301.5 507.5 c 128,-1,13
 302 560 302 560 304 611 c 1,14,-1
 302 611 l 1,15,16
 296 597 296 597 285.5 574 c 128,-1,17
 275 551 275 551 253 509 c 128,-1,18
 231 467 231 467 196.5 400.5 c 128,-1,19
 162 334 162 334 108 234 c 1,20,-1
 301 234 l 1,21,-1
 301 410 l 2,11,12
EndSplineSet
EndChar

StartChar: five
Encoding: 53 53 25
Width: 501
GlyphClass: 2
Flags: W
LayerCount: 2
Fore
SplineSet
428 612 m 1,0,-1
 179 612 l 1,1,-1
 174 436 l 1,2,3
 190 441 190 441 206.5 443 c 128,-1,4
 223 445 223 445 237 445 c 0,5,6
 283 445 283 445 322 430 c 128,-1,7
 361 415 361 415 389 387 c 128,-1,8
 417 359 417 359 433 318.5 c 128,-1,9
 449 278 449 278 449 228 c 0,10,11
 449 172 449 172 431 127.5 c 128,-1,12
 413 83 413 83 380 52 c 128,-1,13
 347 21 347 21 301.5 4 c 128,-1,14
 256 -13 256 -13 201 -13 c 0,15,16
 134 -13 134 -13 70 8 c 1,17,-1
 74 105 l 1,18,19
 135 78 135 78 196 78 c 0,20,21
 259 78 259 78 298.5 113.5 c 128,-1,22
 338 149 338 149 338 221 c 0,23,24
 338 289 338 289 300.5 324 c 128,-1,25
 263 359 263 359 194 359 c 0,26,27
 136 359 136 359 78 334 c 1,28,-1
 83 698 l 1,29,-1
 428 698 l 1,30,-1
 428 612 l 1,0,-1
EndSplineSet
EndChar

StartChar: six
Encoding: 54 54 26
Width: 501
GlyphClass: 2
Flags: W
LayerCount: 2
Fore
SplineSet
416 598 m 1,0,1
 389 611 389 611 364.5 616 c 128,-1,2
 340 621 340 621 313 621 c 0,3,4
 273 621 273 621 242.5 603 c 128,-1,5
 212 585 212 585 191 552 c 128,-1,6
 170 519 170 519 158 472.5 c 128,-1,7
 146 426 146 426 145 368 c 1,8,-1
 148 368 l 1,9,10
 169 407 169 407 207.5 426.5 c 128,-1,11
 246 446 246 446 287 446 c 0,12,13
 329 446 329 446 362 429.5 c 128,-1,14
 395 413 395 413 418 383.5 c 128,-1,15
 441 354 441 354 453.5 314 c 128,-1,16
 466 274 466 274 466 227 c 0,17,18
 466 177 466 177 452.5 133 c 128,-1,19
 439 89 439 89 412.5 56.5 c 128,-1,20
 386 24 386 24 348 5.5 c 128,-1,21
 310 -13 310 -13 261 -13 c 0,22,23
 152 -13 152 -13 96 73.5 c 128,-1,24
 40 160 40 160 40 325 c 0,25,26
 40 414 40 414 57 485.5 c 128,-1,27
 74 557 74 557 107.5 607 c 128,-1,28
 141 657 141 657 191.5 683.5 c 128,-1,29
 242 710 242 710 308 710 c 0,30,31
 340 710 340 710 368.5 706 c 128,-1,32
 397 702 397 702 426 691 c 1,33,-1
 416 598 l 1,0,1
258 362 m 0,34,35
 235 362 235 362 216.5 351.5 c 128,-1,36
 198 341 198 341 184.5 322 c 128,-1,37
 171 303 171 303 163.5 278 c 128,-1,38
 156 253 156 253 156 224 c 0,39,40
 156 192 156 192 163.5 164 c 128,-1,41
 171 136 171 136 184.5 115.5 c 128,-1,42
 198 95 198 95 216.5 83 c 128,-1,43
 235 71 235 71 258 71 c 0,44,45
 283 71 283 71 301.5 82.5 c 128,-1,46
 320 94 320 94 332.5 114 c 128,-1,47
 345 134 345 134 351.5 161 c 128,-1,48
 358 188 358 188 358 218 c 256,49,50
 358 248 358 248 352.5 274 c 128,-1,51
 347 300 347 300 335 319.5 c 128,-1,52
 323 339 323 339 304 350.5 c 128,-1,53
 285 362 285 362 258 362 c 0,34,35
EndSplineSet
EndChar

StartChar: seven
Encoding: 55 55 27
Width: 501
GlyphClass: 2
Flags: W
LayerCount: 2
Fore
SplineSet
445 603 m 1,0,-1
 228 0 l 1,1,-1
 110 0 l 1,2,-1
 339 610 l 1,3,-1
 51 610 l 1,4,-1
 51 698 l 1,5,-1
 445 698 l 1,6,-1
 445 603 l 1,0,-1
EndSplineSet
EndChar

StartChar: eight
Encoding: 56 56 28
Width: 501
GlyphClass: 2
Flags: W
LayerCount: 2
Fore
SplineSet
331 372 m 1,0,1
 402 343 402 343 434 299 c 128,-1,2
 466 255 466 255 466 188 c 0,3,4
 466 141 466 141 449.5 103.5 c 128,-1,5
 433 66 433 66 403.5 40 c 128,-1,6
 374 14 374 14 334 0.5 c 128,-1,7
 294 -13 294 -13 247 -13 c 0,8,9
 199 -13 199 -13 160 0.5 c 128,-1,10
 121 14 121 14 93.5 39.5 c 128,-1,11
 66 65 66 65 51 101 c 128,-1,12
 36 137 36 137 36 183 c 0,13,14
 36 248 36 248 70 292 c 128,-1,15
 104 336 104 336 170 365 c 1,16,17
 103 392 103 392 76.5 434 c 128,-1,18
 50 476 50 476 50 532 c 0,19,20
 50 572 50 572 64.5 605 c 128,-1,21
 79 638 79 638 105 661 c 128,-1,22
 131 684 131 684 168.5 697 c 128,-1,23
 206 710 206 710 251 710 c 0,24,25
 295 710 295 710 331 698 c 128,-1,26
 367 686 367 686 393 663.5 c 128,-1,27
 419 641 419 641 433 608.5 c 128,-1,28
 447 576 447 576 447 536 c 0,29,30
 447 479 447 479 417.5 440 c 128,-1,31
 388 401 388 401 331 372 c 1,0,1
259 405 m 1,32,33
 340 448 340 448 340 528 c 0,34,35
 340 576 340 576 315 602 c 128,-1,36
 290 628 290 628 248 628 c 0,37,38
 208 628 208 628 180.5 603 c 128,-1,39
 153 578 153 578 153 533 c 0,40,41
 153 484 153 484 178 454 c 128,-1,42
 203 424 203 424 259 405 c 1,32,33
242 324 m 1,43,44
 143 283 143 283 143 188 c 0,45,46
 143 136 143 136 171 104.5 c 128,-1,47
 199 73 199 73 249 73 c 0,48,49
 297 73 297 73 328 103.5 c 128,-1,50
 359 134 359 134 359 185 c 256,51,52
 359 236 359 236 331.5 269 c 128,-1,53
 304 302 304 302 242 324 c 1,43,44
EndSplineSet
EndChar

StartChar: nine
Encoding: 57 57 29
Width: 501
GlyphClass: 2
Flags: W
LayerCount: 2
Fore
SplineSet
78 104 m 1,0,1
 107 89 107 89 134 82.5 c 128,-1,2
 161 76 161 76 190 76 c 0,3,4
 268 76 268 76 312.5 145.5 c 128,-1,5
 357 215 357 215 359 335 c 1,6,-1
 357 335 l 1,7,8
 334 296 334 296 296 276.5 c 128,-1,9
 258 257 258 257 216 257 c 0,10,11
 175 257 175 257 141.5 272.5 c 128,-1,12
 108 288 108 288 84 316.5 c 128,-1,13
 60 345 60 345 47 384.5 c 128,-1,14
 34 424 34 424 34 471 c 0,15,16
 34 521 34 521 48 564.5 c 128,-1,17
 62 608 62 608 89 640.5 c 128,-1,18
 116 673 116 673 154.5 691.5 c 128,-1,19
 193 710 193 710 242 710 c 0,20,21
 352 710 352 710 407.5 626.5 c 128,-1,22
 463 543 463 543 463 378 c 0,23,24
 463 287 463 287 446 214.5 c 128,-1,25
 429 142 429 142 395 91.5 c 128,-1,26
 361 41 361 41 311.5 14 c 128,-1,27
 262 -13 262 -13 196 -13 c 0,28,29
 161 -13 161 -13 129.5 -8 c 128,-1,30
 98 -3 98 -3 67 10 c 1,31,-1
 78 104 l 1,0,1
244 343 m 0,32,33
 292 343 292 343 320 381.5 c 128,-1,34
 348 420 348 420 348 478 c 0,35,36
 348 510 348 510 340.5 537 c 128,-1,37
 333 564 333 564 319.5 584 c 128,-1,38
 306 604 306 604 287 615.5 c 128,-1,39
 268 627 268 627 245 627 c 0,40,41
 220 627 220 627 201 615.5 c 128,-1,42
 182 604 182 604 168.5 584.5 c 128,-1,43
 155 565 155 565 148 538.5 c 128,-1,44
 141 512 141 512 141 482 c 256,45,46
 141 452 141 452 147 427 c 128,-1,47
 153 402 153 402 165.5 383 c 128,-1,48
 178 364 178 364 197.5 353.5 c 128,-1,49
 217 343 217 343 244 343 c 0,32,33
EndSplineSet
EndChar

StartChar: colon
Encoding: 58 58 30
Width: 269
GlyphClass: 2
Flags: W
LayerCount: 2
Fore
SplineSet
189 512 m 1,0,-1
 189 391 l 1,1,-1
 81 391 l 1,2,-1
 81 512 l 1,3,-1
 189 512 l 1,0,-1
189 120 m 1,4,-1
 189 0 l 1,5,-1
 81 0 l 1,6,-1
 81 120 l 1,7,-1
 189 120 l 1,4,-1
EndSplineSet
EndChar

StartChar: semicolon
Encoding: 59 59 31
Width: 269
GlyphClass: 2
Flags: W
LayerCount: 2
Fore
SplineSet
196 116 m 1,0,-1
 125 -125 l 1,1,-1
 39 -125 l 1,2,-1
 93 116 l 1,3,-1
 196 116 l 1,0,-1
189 512 m 1,4,-1
 189 391 l 1,5,-1
 81 391 l 1,6,-1
 81 512 l 1,7,-1
 189 512 l 1,4,-1
EndSplineSet
EndChar

StartChar: less
Encoding: 60 60 32
Width: 584
GlyphClass: 2
Flags: W
LayerCount: 2
Fore
SplineSet
38 195 m 1,0,-1
 38 311 l 1,1,-1
 538 513 l 1,2,-1
 538 407 l 1,3,-1
 291 313 l 2,4,5
 276 307 276 307 253.5 299 c 128,-1,6
 231 291 231 291 206.5 282.5 c 128,-1,7
 182 274 182 274 160 267 c 128,-1,8
 138 260 138 260 125 256 c 1,9,-1
 125 254 l 1,10,11
 138 250 138 250 160.5 242 c 128,-1,12
 183 234 183 234 207 225 c 128,-1,13
 231 216 231 216 254 207.5 c 128,-1,14
 277 199 277 199 291 194 c 2,15,-1
 538 102 l 1,16,-1
 538 -6 l 1,17,-1
 38 195 l 1,0,-1
EndSplineSet
EndChar

StartChar: equal
Encoding: 61 61 33
Width: 584
GlyphClass: 2
Flags: W
LayerCount: 2
Fore
SplineSet
546 403 m 1,0,-1
 546 315 l 1,1,-1
 37 315 l 1,2,-1
 37 403 l 1,3,-1
 546 403 l 1,0,-1
546 192 m 1,4,-1
 546 103 l 1,5,-1
 37 103 l 1,6,-1
 37 192 l 1,7,-1
 546 192 l 1,4,-1
EndSplineSet
EndChar

StartChar: greater
Encoding: 62 62 34
Width: 584
GlyphClass: 2
Flags: W
LayerCount: 2
Fore
SplineSet
38 -6 m 1,0,-1
 38 102 l 1,1,-1
 285 194 l 2,2,3
 299 199 299 199 322 207.5 c 128,-1,4
 345 216 345 216 369 225 c 128,-1,5
 393 234 393 234 415 242 c 128,-1,6
 437 250 437 250 450 254 c 1,7,-1
 450 256 l 1,8,9
 437 260 437 260 415 267 c 128,-1,10
 393 274 393 274 369 282.5 c 128,-1,11
 345 291 345 291 322 299 c 128,-1,12
 299 307 299 307 285 313 c 2,13,-1
 38 407 l 1,14,-1
 38 513 l 1,15,-1
 538 311 l 1,16,-1
 538 195 l 1,17,-1
 38 -6 l 1,0,-1
EndSplineSet
EndChar

StartChar: question
Encoding: 63 63 35
Width: 451
GlyphClass: 2
Flags: W
LayerCount: 2
Fore
SplineSet
70 684 m 1,0,1
 105 698 105 698 139 704 c 128,-1,2
 173 710 173 710 208 710 c 0,3,4
 254 710 254 710 291.5 699.5 c 128,-1,5
 329 689 329 689 356 667 c 128,-1,6
 383 645 383 645 398 612.5 c 128,-1,7
 413 580 413 580 413 536 c 0,8,9
 413 513 413 513 408.5 492 c 128,-1,10
 404 471 404 471 393.5 449.5 c 128,-1,11
 383 428 383 428 366 404 c 128,-1,12
 349 380 349 380 325 352 c 0,13,14
 305 329 305 329 293 310 c 128,-1,15
 281 291 281 291 273.5 273.5 c 128,-1,16
 266 256 266 256 263.5 239 c 128,-1,17
 261 222 261 222 261 204 c 2,18,-1
 261 194 l 1,19,-1
 167 194 l 1,20,-1
 167 204 l 2,21,22
 167 231 167 231 169 252.5 c 128,-1,23
 171 274 171 274 179 295 c 128,-1,24
 187 316 187 316 202.5 339.5 c 128,-1,25
 218 363 218 363 244 396 c 0,26,27
 274 434 274 434 289.5 463.5 c 128,-1,28
 305 493 305 493 305 525 c 0,29,30
 305 574 305 574 274.5 597 c 128,-1,31
 244 620 244 620 193 620 c 0,32,33
 161 620 161 620 135.5 613.5 c 128,-1,34
 110 607 110 607 78 593 c 1,35,-1
 70 684 l 1,0,1
269 0 m 1,36,-1
 159 0 l 1,37,-1
 159 115 l 1,38,-1
 269 115 l 1,39,-1
 269 0 l 1,36,-1
EndSplineSet
EndChar

StartChar: at
Encoding: 64 64 36
Width: 850
GlyphClass: 2
Flags: W
LayerCount: 2
Fore
SplineSet
666 -68 m 1,0,1
 618 -93 618 -93 564 -105.5 c 128,-1,2
 510 -118 510 -118 446 -118 c 0,3,4
 364 -118 364 -118 295 -92.5 c 128,-1,5
 226 -67 226 -67 176 -17 c 128,-1,6
 126 33 126 33 98 105.5 c 128,-1,7
 70 178 70 178 70 273 c 0,8,9
 70 370 70 370 100.5 449.5 c 128,-1,10
 131 529 131 529 184 585 c 128,-1,11
 237 641 237 641 307 672 c 128,-1,12
 377 703 377 703 457 703 c 0,13,14
 529 703 529 703 588 680.5 c 128,-1,15
 647 658 647 658 690 615 c 128,-1,16
 733 572 733 572 756.5 511 c 128,-1,17
 780 450 780 450 780 372 c 0,18,19
 780 311 780 311 765.5 258.5 c 128,-1,20
 751 206 751 206 725 167 c 128,-1,21
 699 128 699 128 663 106 c 128,-1,22
 627 84 627 84 584 84 c 0,23,24
 542 84 542 84 520 104.5 c 128,-1,25
 498 125 498 125 496 162 c 0,26,27
 496 167 496 167 496.5 172.5 c 128,-1,28
 497 178 497 178 499 186 c 1,29,-1
 497 186 l 1,30,31
 453 84 453 84 368 84 c 0,32,33
 339 84 339 84 316.5 96.5 c 128,-1,34
 294 109 294 109 279 131 c 128,-1,35
 264 153 264 153 256 182.5 c 128,-1,36
 248 212 248 212 248 246 c 0,37,38
 248 300 248 300 262 349.5 c 128,-1,39
 276 399 276 399 301 437.5 c 128,-1,40
 326 476 326 476 360 499 c 128,-1,41
 394 522 394 522 433 522 c 0,42,43
 475 522 475 522 500 500.5 c 128,-1,44
 525 479 525 479 532 440 c 1,45,-1
 534 440 l 1,46,-1
 548 504 l 1,47,-1
 627 504 l 1,48,-1
 588 343 l 2,49,50
 576 292 576 292 568.5 255.5 c 128,-1,51
 561 219 561 219 561 199 c 256,52,53
 561 179 561 179 569 166.5 c 128,-1,54
 577 154 577 154 597 154 c 0,55,56
 621 154 621 154 641 171.5 c 128,-1,57
 661 189 661 189 676 219 c 128,-1,58
 691 249 691 249 699 289 c 128,-1,59
 707 329 707 329 707 373 c 0,60,61
 707 432 707 432 689.5 480.5 c 128,-1,62
 672 529 672 529 640 564 c 128,-1,63
 608 599 608 599 562.5 618 c 128,-1,64
 517 637 517 637 460 637 c 0,65,66
 394 637 394 637 337.5 610 c 128,-1,67
 281 583 281 583 239 534.5 c 128,-1,68
 197 486 197 486 173.5 419.5 c 128,-1,69
 150 353 150 353 150 274 c 0,70,71
 150 196 150 196 171 136 c 128,-1,72
 192 76 192 76 231 34.5 c 128,-1,73
 270 -7 270 -7 326 -28.5 c 128,-1,74
 382 -50 382 -50 451 -50 c 0,75,76
 504 -50 504 -50 553.5 -38.5 c 128,-1,77
 603 -27 603 -27 650 -3 c 1,78,-1
 666 -68 l 1,0,1
451 453 m 0,79,80
 427 453 427 453 406.5 435.5 c 128,-1,81
 386 418 386 418 370.5 389.5 c 128,-1,82
 355 361 355 361 346 324.5 c 128,-1,83
 337 288 337 288 337 251 c 0,84,85
 337 213 337 213 349.5 184.5 c 128,-1,86
 362 156 362 156 393 156 c 0,87,88
 415 156 415 156 435.5 177 c 128,-1,89
 456 198 456 198 472 230 c 128,-1,90
 488 262 488 262 497.5 300.5 c 128,-1,91
 507 339 507 339 507 374 c 256,92,93
 507 409 507 409 494 431 c 128,-1,94
 481 453 481 453 451 453 c 0,79,80
EndSplineSet
EndChar

StartChar: A
Encoding: 65 65 37
Width: 594
GlyphClass: 2
Flags: W
LayerCount: 2
Fore
SplineSet
360 698 m 1,0,-1
 587 0 l 1,1,-1
 473 0 l 1,2,-1
 420 175 l 1,3,-1
 171 175 l 1,4,-1
 115 0 l 1,5,-1
 7 0 l 1,6,-1
 240 698 l 1,7,-1
 360 698 l 1,0,-1
396 261 m 1,8,9
 369 348 369 348 352 406 c 128,-1,10
 335 464 335 464 324 502.5 c 128,-1,11
 313 541 313 541 307.5 564 c 128,-1,12
 302 587 302 587 298 604 c 1,13,-1
 296 604 l 1,14,15
 293 587 293 587 287 564 c 128,-1,16
 281 541 281 541 269.5 502.5 c 128,-1,17
 258 464 258 464 240 406 c 128,-1,18
 222 348 222 348 194 261 c 1,19,-1
 396 261 l 1,8,9
EndSplineSet
EndChar

StartChar: B
Encoding: 66 66 38
Width: 530
GlyphClass: 2
Flags: W
LayerCount: 2
Fore
SplineSet
241 698 m 2,0,1
 286 698 286 698 327 689.5 c 128,-1,2
 368 681 368 681 399.5 660.5 c 128,-1,3
 431 640 431 640 450 606.5 c 128,-1,4
 469 573 469 573 469 523 c 0,5,6
 469 464 469 464 438.5 422 c 128,-1,7
 408 380 408 380 345 363 c 1,8,-1
 345 361 l 1,9,10
 411 346 411 346 447.5 306 c 128,-1,11
 484 266 484 266 484 197 c 0,12,13
 484 144 484 144 465 106.5 c 128,-1,14
 446 69 446 69 413 45.5 c 128,-1,15
 380 22 380 22 335.5 11 c 128,-1,16
 291 0 291 0 240 0 c 2,17,-1
 73 0 l 1,18,-1
 73 698 l 1,19,-1
 241 698 l 2,0,1
178 401 m 1,20,-1
 228 401 l 2,21,22
 293 401 293 401 327.5 428.5 c 128,-1,23
 362 456 362 456 362 511 c 0,24,25
 362 562 362 562 328.5 588 c 128,-1,26
 295 614 295 614 233 614 c 2,27,-1
 178 614 l 1,28,-1
 178 401 l 1,20,-1
178 85 m 1,29,-1
 233 85 l 2,30,31
 301 85 301 85 338.5 114.5 c 128,-1,32
 376 144 376 144 376 199 c 0,33,34
 376 262 376 262 338 290 c 128,-1,35
 300 318 300 318 236 318 c 2,36,-1
 178 318 l 1,37,-1
 178 85 l 1,29,-1
EndSplineSet
EndChar

StartChar: C
Encoding: 67 67 39
Width: 506
GlyphClass: 2
Flags: W
LayerCount: 2
Fore
SplineSet
462 598 m 1,0,1
 441 606 441 606 418 610 c 128,-1,2
 395 614 395 614 374 614 c 0,3,4
 320 614 320 614 280 592.5 c 128,-1,5
 240 571 240 571 213.5 534.5 c 128,-1,6
 187 498 187 498 174 450.5 c 128,-1,7
 161 403 161 403 161 351 c 0,8,9
 161 292 161 292 176 243 c 128,-1,10
 191 194 191 194 219 159 c 128,-1,11
 247 124 247 124 286.5 105 c 128,-1,12
 326 86 326 86 374 86 c 0,13,14
 397 86 397 86 419.5 89.5 c 128,-1,15
 442 93 442 93 465 102 c 1,16,-1
 472 5 l 1,17,18
 423 -8 423 -8 370 -8 c 0,19,20
 295 -8 295 -8 235 17.5 c 128,-1,21
 175 43 175 43 132.5 90.5 c 128,-1,22
 90 138 90 138 67.5 204.5 c 128,-1,23
 45 271 45 271 45 353 c 0,24,25
 45 431 45 431 68 496 c 128,-1,26
 91 561 91 561 133 607.5 c 128,-1,27
 175 654 175 654 234.5 680 c 128,-1,28
 294 706 294 706 368 706 c 0,29,30
 395 706 395 706 419 703.5 c 128,-1,31
 443 701 443 701 469 694 c 1,32,-1
 462 598 l 1,0,1
EndSplineSet
EndChar

StartChar: D
Encoding: 68 68 40
Width: 614
GlyphClass: 2
Flags: W
LayerCount: 2
Fore
SplineSet
211 698 m 2,0,1
 296 698 296 698 363 678 c 128,-1,2
 430 658 430 658 475.5 616 c 128,-1,3
 521 574 521 574 545 508 c 128,-1,4
 569 442 569 442 569 350 c 0,5,6
 569 262 569 262 544 196.5 c 128,-1,7
 519 131 519 131 472 87.5 c 128,-1,8
 425 44 425 44 357 22 c 128,-1,9
 289 0 289 0 203 0 c 2,10,-1
 73 0 l 1,11,-1
 73 698 l 1,12,-1
 211 698 l 2,0,1
182 87 m 1,13,-1
 205 87 l 2,14,15
 325 87 325 87 389.5 149.5 c 128,-1,16
 454 212 454 212 454 353 c 0,17,18
 454 484 454 484 395.5 548 c 128,-1,19
 337 612 337 612 212 612 c 2,20,-1
 182 612 l 1,21,-1
 182 87 l 1,13,-1
EndSplineSet
EndChar

StartChar: E
Encoding: 69 69 41
Width: 472
GlyphClass: 2
Flags: W
LayerCount: 2
Fore
SplineSet
421 698 m 1,0,-1
 421 609 l 1,1,-1
 180 609 l 1,2,-1
 180 403 l 1,3,-1
 407 403 l 1,4,-1
 407 316 l 1,5,-1
 180 316 l 1,6,-1
 180 90 l 1,7,-1
 432 90 l 1,8,-1
 432 0 l 1,9,-1
 73 0 l 1,10,-1
 73 698 l 1,11,-1
 421 698 l 1,0,-1
EndSplineSet
EndChar

StartChar: F
Encoding: 70 70 42
Width: 439
GlyphClass: 2
Flags: W
LayerCount: 2
Fore
SplineSet
408 698 m 1,0,-1
 408 609 l 1,1,-1
 181 609 l 1,2,-1
 181 401 l 1,3,-1
 398 401 l 1,4,-1
 398 313 l 1,5,-1
 181 313 l 1,6,-1
 181 0 l 1,7,-1
 73 0 l 1,8,-1
 73 698 l 1,9,-1
 408 698 l 1,0,-1
EndSplineSet
EndChar

StartChar: G
Encoding: 71 71 43
Width: 623
GlyphClass: 2
Flags: W
LayerCount: 2
Fore
SplineSet
559 387 m 1,0,-1
 559 26 l 1,1,2
 525 9 525 9 479 -0.5 c 128,-1,3
 433 -10 433 -10 382 -10 c 0,4,5
 305 -10 305 -10 243.5 15 c 128,-1,6
 182 40 182 40 138.5 87 c 128,-1,7
 95 134 95 134 72 200.5 c 128,-1,8
 49 267 49 267 49 350 c 0,9,10
 49 431 49 431 73 497 c 128,-1,11
 97 563 97 563 141.5 609.5 c 128,-1,12
 186 656 186 656 248 681.5 c 128,-1,13
 310 707 310 707 385 707 c 0,14,15
 426 707 426 707 465 701 c 128,-1,16
 504 695 504 695 536 681 c 1,17,-1
 531 581 l 1,18,19
 496 600 496 600 459.5 607.5 c 128,-1,20
 423 615 423 615 385 615 c 0,21,22
 335 615 335 615 294 595.5 c 128,-1,23
 253 576 253 576 224 541 c 128,-1,24
 195 506 195 506 179 457 c 128,-1,25
 163 408 163 408 163 350 c 0,26,27
 163 289 163 289 178 239.5 c 128,-1,28
 193 190 193 190 221.5 154.5 c 128,-1,29
 250 119 250 119 291 100 c 128,-1,30
 332 81 332 81 383 81 c 0,31,32
 405 81 405 81 423 83.5 c 128,-1,33
 441 86 441 86 457 93 c 1,34,-1
 457 301 l 1,35,-1
 341 301 l 1,36,-1
 341 387 l 1,37,-1
 559 387 l 1,0,-1
EndSplineSet
EndChar

StartChar: H
Encoding: 72 72 44
Width: 593
GlyphClass: 2
Flags: W
LayerCount: 2
Fore
SplineSet
520 0 m 1,0,-1
 411 0 l 1,1,-1
 411 317 l 1,2,-1
 180 317 l 1,3,-1
 180 0 l 1,4,-1
 72 0 l 1,5,-1
 72 698 l 1,6,-1
 180 698 l 1,7,-1
 180 407 l 1,8,-1
 411 407 l 1,9,-1
 411 698 l 1,10,-1
 520 698 l 1,11,-1
 520 0 l 1,0,-1
EndSplineSet
EndChar

StartChar: I
Encoding: 73 73 45
Width: 255
GlyphClass: 2
Flags: W
LayerCount: 2
Fore
SplineSet
181 698 m 1,0,-1
 181 0 l 1,1,-1
 73 0 l 1,2,-1
 73 698 l 1,3,-1
 181 698 l 1,0,-1
EndSplineSet
EndChar

StartChar: J
Encoding: 74 74 46
Width: 342
GlyphClass: 2
Flags: W
LayerCount: 2
Fore
SplineSet
20 92 m 1,0,1
 34 87 34 87 49.5 83.5 c 128,-1,2
 65 80 65 80 80 80 c 0,3,4
 132 80 132 80 149.5 114.5 c 128,-1,5
 167 149 167 149 167 214 c 2,6,-1
 167 698 l 1,7,-1
 276 698 l 1,8,-1
 276 205 l 2,9,10
 276 161 276 161 269 122 c 128,-1,11
 262 83 262 83 242 53 c 128,-1,12
 222 23 222 23 187 5.5 c 128,-1,13
 152 -12 152 -12 97 -12 c 0,14,15
 78 -12 78 -12 56.5 -8 c 128,-1,16
 35 -4 35 -4 19 2 c 1,17,-1
 20 92 l 1,0,1
EndSplineSet
EndChar

StartChar: K
Encoding: 75 75 47
Width: 543
GlyphClass: 2
Flags: W
LayerCount: 2
Fore
SplineSet
181 0 m 1,0,-1
 72 0 l 1,1,-1
 72 698 l 1,2,-1
 181 698 l 1,3,-1
 181 387 l 1,4,-1
 183 387 l 1,5,6
 195 405 195 405 208.5 426.5 c 128,-1,7
 222 448 222 448 245.5 482 c 128,-1,8
 269 516 269 516 305 567.5 c 128,-1,9
 341 619 341 619 397 698 c 1,10,-1
 528 698 l 1,11,-1
 282 371 l 1,12,-1
 543 0 l 1,13,-1
 410 0 l 1,14,15
 348 91 348 91 309.5 149.5 c 128,-1,16
 271 208 271 208 246.5 246.5 c 128,-1,17
 222 285 222 285 208 308 c 128,-1,18
 194 331 194 331 183 351 c 1,19,-1
 181 351 l 1,20,-1
 181 0 l 1,0,-1
EndSplineSet
EndChar

StartChar: L
Encoding: 76 76 48
Width: 422
GlyphClass: 2
Flags: W
LayerCount: 2
Fore
SplineSet
182 698 m 1,0,-1
 182 89 l 1,1,-1
 408 89 l 1,2,-1
 408 0 l 1,3,-1
 72 0 l 1,4,-1
 72 698 l 1,5,-1
 182 698 l 1,0,-1
EndSplineSet
EndChar

StartChar: M
Encoding: 77 77 49
Width: 800
GlyphClass: 2
Flags: W
LayerCount: 2
Fore
SplineSet
239 698 m 1,0,1
 284 557 284 557 314 458.5 c 128,-1,2
 344 360 344 360 363 295 c 128,-1,3
 382 230 382 230 391 193 c 128,-1,4
 400 156 400 156 403 138 c 1,5,-1
 405 138 l 1,6,7
 408 156 408 156 417.5 193 c 128,-1,8
 427 230 427 230 445 295 c 128,-1,9
 463 360 463 360 492 458.5 c 128,-1,10
 521 557 521 557 563 698 c 1,11,-1
 727 698 l 1,12,-1
 727 0 l 1,13,-1
 624 0 l 1,14,-1
 624 406 l 2,15,16
 624 421 624 421 624 446.5 c 128,-1,17
 624 472 624 472 624.5 501.5 c 128,-1,18
 625 531 625 531 625.5 561 c 128,-1,19
 626 591 626 591 627 615 c 1,20,-1
 625 615 l 1,21,22
 619 593 619 593 609 556.5 c 128,-1,23
 599 520 599 520 579 451.5 c 128,-1,24
 559 383 559 383 527 274.5 c 128,-1,25
 495 166 495 166 446 0 c 1,26,-1
 355 0 l 1,27,28
 302 169 302 169 268 279.5 c 128,-1,29
 234 390 234 390 213.5 458.5 c 128,-1,30
 193 527 193 527 184 562 c 128,-1,31
 175 597 175 597 171 615 c 1,32,-1
 169 615 l 1,33,34
 170 591 170 591 170.5 561 c 128,-1,35
 171 531 171 531 171.5 501.5 c 128,-1,36
 172 472 172 472 172 446.5 c 128,-1,37
 172 421 172 421 172 406 c 2,38,-1
 172 0 l 1,39,-1
 73 0 l 1,40,-1
 73 698 l 1,41,-1
 239 698 l 1,42,-1
 239 698 l 1,0,1
EndSplineSet
EndChar

StartChar: N
Encoding: 78 78 50
Width: 629
GlyphClass: 2
Flags: W
LayerCount: 2
Fore
SplineSet
459 698 m 1,0,-1
 558 698 l 1,1,-1
 558 0 l 1,2,-1
 420 0 l 1,3,4
 370 111 370 111 333.5 194 c 128,-1,5
 297 277 297 277 270.5 338 c 128,-1,6
 244 399 244 399 226.5 440.5 c 128,-1,7
 209 482 209 482 197.5 510.5 c 128,-1,8
 186 539 186 539 179.5 558.5 c 128,-1,9
 173 578 173 578 168 594 c 1,10,-1
 166 594 l 1,11,12
 167 573 167 573 168 545.5 c 128,-1,13
 169 518 169 518 170 489 c 128,-1,14
 171 460 171 460 171 431.5 c 128,-1,15
 171 403 171 403 171 380 c 2,16,-1
 171 0 l 1,17,-1
 73 0 l 1,18,-1
 73 698 l 1,19,-1
 222 698 l 1,20,21
 269 589 269 589 304.5 507 c 128,-1,22
 340 425 340 425 365.5 365 c 128,-1,23
 391 305 391 305 408 264 c 128,-1,24
 425 223 425 223 436 195.5 c 128,-1,25
 447 168 447 168 453 150.5 c 128,-1,26
 459 133 459 133 463 121 c 1,27,-1
 465 121 l 1,28,29
 464 141 464 141 463 171 c 128,-1,30
 462 201 462 201 461 233.5 c 128,-1,31
 460 266 460 266 459.5 298 c 128,-1,32
 459 330 459 330 459 353 c 2,33,-1
 459 698 l 1,0,-1
EndSplineSet
EndChar

StartChar: O
Encoding: 79 79 51
Width: 632
GlyphClass: 2
Flags: W
LayerCount: 2
Fore
SplineSet
321 710 m 0,0,1
 385 710 385 710 434.5 684.5 c 128,-1,2
 484 659 484 659 518 612 c 128,-1,3
 552 565 552 565 569.5 499 c 128,-1,4
 587 433 587 433 587 352 c 0,5,6
 587 267 587 267 569.5 199.5 c 128,-1,7
 552 132 552 132 517.5 84.5 c 128,-1,8
 483 37 483 37 432.5 12 c 128,-1,9
 382 -13 382 -13 316 -13 c 0,10,11
 251 -13 251 -13 200.5 12.5 c 128,-1,12
 150 38 150 38 115.5 84.5 c 128,-1,13
 81 131 81 131 63 197.5 c 128,-1,14
 45 264 45 264 45 346 c 0,15,16
 45 429 45 429 63 496.5 c 128,-1,17
 81 564 81 564 116.5 611.5 c 128,-1,18
 152 659 152 659 203.5 684.5 c 128,-1,19
 255 710 255 710 321 710 c 0,0,1
316 621 m 0,20,21
 278 621 278 621 248.5 601.5 c 128,-1,22
 219 582 219 582 199 547 c 128,-1,23
 179 512 179 512 168 461.5 c 128,-1,24
 157 411 157 411 157 350 c 0,25,26
 157 288 157 288 167.5 238 c 128,-1,27
 178 188 178 188 198.5 152.5 c 128,-1,28
 219 117 219 117 248.5 98 c 128,-1,29
 278 79 278 79 316 79 c 0,30,31
 353 79 353 79 382 98 c 128,-1,32
 411 117 411 117 431.5 152 c 128,-1,33
 452 187 452 187 462.5 236.5 c 128,-1,34
 473 286 473 286 473 347 c 0,35,36
 473 475 473 475 432.5 548 c 128,-1,37
 392 621 392 621 316 621 c 0,20,21
EndSplineSet
EndChar

StartChar: P
Encoding: 80 80 52
Width: 501
GlyphClass: 2
Flags: W
LayerCount: 2
Fore
SplineSet
198 698 m 2,0,1
 256 698 256 698 305.5 689.5 c 128,-1,2
 355 681 355 681 392 658 c 128,-1,3
 429 635 429 635 450 595 c 128,-1,4
 471 555 471 555 471 491 c 0,5,6
 471 388 471 388 403 333 c 128,-1,7
 335 278 335 278 211 278 c 2,8,-1
 181 278 l 1,9,-1
 181 0 l 1,10,-1
 73 0 l 1,11,-1
 73 698 l 1,12,-1
 198 698 l 2,0,1
179 365 m 1,13,-1
 202 365 l 2,14,15
 234 365 234 365 262.5 370.5 c 128,-1,16
 291 376 291 376 313 390 c 128,-1,17
 335 404 335 404 347.5 428.5 c 128,-1,18
 360 453 360 453 360 491 c 0,19,20
 360 525 360 525 348.5 548 c 128,-1,21
 337 571 337 571 316 584.5 c 128,-1,22
 295 598 295 598 267 604 c 128,-1,23
 239 610 239 610 206 610 c 2,24,-1
 179 610 l 1,25,-1
 179 365 l 1,13,-1
EndSplineSet
EndChar

StartChar: Q
Encoding: 81 81 53
Width: 632
GlyphClass: 2
Flags: W
LayerCount: 2
Fore
SplineSet
321 710 m 0,0,1
 385 710 385 710 434.5 684.5 c 128,-1,2
 484 659 484 659 518 612 c 128,-1,3
 552 565 552 565 569.5 499 c 128,-1,4
 587 433 587 433 587 352 c 0,5,6
 587 226 587 226 549 140 c 128,-1,7
 511 54 511 54 438 15 c 1,8,-1
 572 -133 l 1,9,-1
 444 -133 l 1,10,-1
 344 -10 l 1,11,12
 338 -11 338 -11 332 -11.5 c 128,-1,13
 326 -12 326 -12 319 -12 c 0,14,15
 253 -12 253 -12 202 12.5 c 128,-1,16
 151 37 151 37 115.5 83 c 128,-1,17
 80 129 80 129 62 195.5 c 128,-1,18
 44 262 44 262 44 346 c 0,19,20
 44 429 44 429 62.5 496.5 c 128,-1,21
 81 564 81 564 116 611.5 c 128,-1,22
 151 659 151 659 203 684.5 c 128,-1,23
 255 710 255 710 321 710 c 0,0,1
315 621 m 0,24,25
 277 621 277 621 248 601.5 c 128,-1,26
 219 582 219 582 198.5 546.5 c 128,-1,27
 178 511 178 511 167.5 460.5 c 128,-1,28
 157 410 157 410 157 349 c 0,29,30
 157 287 157 287 167.5 237.5 c 128,-1,31
 178 188 178 188 198.5 152.5 c 128,-1,32
 219 117 219 117 248 98 c 128,-1,33
 277 79 277 79 315 79 c 0,34,35
 352 79 352 79 381.5 98 c 128,-1,36
 411 117 411 117 431 152 c 128,-1,37
 451 187 451 187 462 236.5 c 128,-1,38
 473 286 473 286 473 347 c 0,39,40
 473 475 473 475 432.5 548 c 128,-1,41
 392 621 392 621 315 621 c 0,24,25
EndSplineSet
EndChar

StartChar: R
Encoding: 82 82 54
Width: 539
GlyphClass: 2
Flags: W
LayerCount: 2
Fore
SplineSet
210 698 m 2,0,1
 265 698 265 698 313.5 690.5 c 128,-1,2
 362 683 362 683 398 663 c 128,-1,3
 434 643 434 643 455 607 c 128,-1,4
 476 571 476 571 476 514 c 0,5,6
 476 446 476 446 437.5 405 c 128,-1,7
 399 364 399 364 336 350 c 1,8,-1
 336 348 l 1,9,10
 369 341 369 341 389 319 c 128,-1,11
 409 297 409 297 426 250 c 2,12,-1
 515 0 l 1,13,-1
 398 0 l 1,14,-1
 325 217 l 2,15,16
 308 269 308 269 283 288 c 128,-1,17
 258 307 258 307 211 307 c 2,18,-1
 181 307 l 1,19,-1
 181 0 l 1,20,-1
 73 0 l 1,21,-1
 73 698 l 1,22,-1
 210 698 l 2,0,1
179 389 m 1,23,-1
 216 389 l 2,24,25
 292 389 292 389 329 418 c 128,-1,26
 366 447 366 447 366 503 c 0,27,28
 366 565 366 565 324.5 588.5 c 128,-1,29
 283 612 283 612 206 612 c 2,30,-1
 179 612 l 1,31,-1
 179 389 l 1,23,-1
EndSplineSet
EndChar

StartChar: S
Encoding: 83 83 55
Width: 467
GlyphClass: 2
Flags: W
LayerCount: 2
Fore
SplineSet
384 592 m 1,0,1
 349 609 349 609 320.5 614.5 c 128,-1,2
 292 620 292 620 264 620 c 0,3,4
 216 620 216 620 187 594.5 c 128,-1,5
 158 569 158 569 158 528 c 0,6,7
 158 511 158 511 162 496.5 c 128,-1,8
 166 482 166 482 178 467.5 c 128,-1,9
 190 453 190 453 211.5 438 c 128,-1,10
 233 423 233 423 269 406 c 0,11,12
 350 366 350 366 389 318.5 c 128,-1,13
 428 271 428 271 428 199 c 0,14,15
 428 151 428 151 412.5 112 c 128,-1,16
 397 73 397 73 368 45.5 c 128,-1,17
 339 18 339 18 298 2.5 c 128,-1,18
 257 -13 257 -13 206 -13 c 0,19,20
 164 -13 164 -13 124.5 -6.5 c 128,-1,21
 85 0 85 0 52 14 c 1,22,-1
 63 115 l 1,23,24
 98 96 98 96 133 88.5 c 128,-1,25
 168 81 168 81 201 81 c 0,26,27
 255 81 255 81 285.5 108.5 c 128,-1,28
 316 136 316 136 316 185 c 0,29,30
 316 206 316 206 310.5 223 c 128,-1,31
 305 240 305 240 291.5 255.5 c 128,-1,32
 278 271 278 271 255.5 286 c 128,-1,33
 233 301 233 301 199 318 c 0,34,35
 156 340 156 340 127 361 c 128,-1,36
 98 382 98 382 80.5 405.5 c 128,-1,37
 63 429 63 429 55.5 456 c 128,-1,38
 48 483 48 483 48 516 c 0,39,40
 48 560 48 560 63 595.5 c 128,-1,41
 78 631 78 631 105.5 656.5 c 128,-1,42
 133 682 133 682 172 696 c 128,-1,43
 211 710 211 710 258 710 c 0,44,45
 295 710 295 710 328.5 704.5 c 128,-1,46
 362 699 362 699 395 686 c 1,47,-1
 384 592 l 1,0,1
EndSplineSet
EndChar

StartChar: T
Encoding: 84 84 56
Width: 462
GlyphClass: 2
Flags: W
LayerCount: 2
Fore
SplineSet
444 698 m 1,0,-1
 444 608 l 1,1,-1
 286 610 l 1,2,-1
 286 0 l 1,3,-1
 177 0 l 1,4,-1
 177 610 l 1,5,-1
 17 608 l 1,6,-1
 17 698 l 1,7,-1
 444 698 l 1,0,-1
EndSplineSet
EndChar

StartChar: U
Encoding: 85 85 57
Width: 595
GlyphClass: 2
Flags: W
LayerCount: 2
Fore
SplineSet
178 698 m 1,0,-1
 178 241 l 2,1,2
 178 207 178 207 184.5 177 c 128,-1,3
 191 147 191 147 205.5 124.5 c 128,-1,4
 220 102 220 102 242.5 89 c 128,-1,5
 265 76 265 76 298 76 c 256,6,7
 331 76 331 76 354.5 89 c 128,-1,8
 378 102 378 102 392 124.5 c 128,-1,9
 406 147 406 147 412.5 176.5 c 128,-1,10
 419 206 419 206 419 240 c 2,11,-1
 419 698 l 1,12,-1
 526 698 l 1,13,-1
 526 233 l 2,14,15
 526 176 526 176 510 130 c 128,-1,16
 494 84 494 84 464.5 52.5 c 128,-1,17
 435 21 435 21 392.5 4 c 128,-1,18
 350 -13 350 -13 298 -13 c 256,19,20
 246 -13 246 -13 203.5 3 c 128,-1,21
 161 19 161 19 131 50 c 128,-1,22
 101 81 101 81 85 127 c 128,-1,23
 69 173 69 173 69 233 c 2,24,-1
 69 698 l 1,25,-1
 178 698 l 1,0,-1
EndSplineSet
EndChar

StartChar: V
Encoding: 86 86 58
Width: 561
GlyphClass: 2
Flags: W
LayerCount: 2
Fore
SplineSet
125 698 m 1,0,1
 157 581 157 581 180.5 494 c 128,-1,2
 204 407 204 407 220.5 345 c 128,-1,3
 237 283 237 283 247.5 241.5 c 128,-1,4
 258 200 258 200 264.5 173.5 c 128,-1,5
 271 147 271 147 274 132 c 128,-1,6
 277 117 277 117 279 108 c 1,7,-1
 281 108 l 1,8,9
 283 117 283 117 286.5 132 c 128,-1,10
 290 147 290 147 296.5 173.5 c 128,-1,11
 303 200 303 200 314 241.5 c 128,-1,12
 325 283 325 283 342 345.5 c 128,-1,13
 359 408 359 408 382.5 494.5 c 128,-1,14
 406 581 406 581 438 698 c 1,15,-1
 550 698 l 1,16,-1
 339 0 l 1,17,-1
 216 0 l 1,18,-1
 7 698 l 1,19,-1
 125 698 l 1,20,-1
 125 698 l 1,0,1
EndSplineSet
EndChar

StartChar: W
Encoding: 87 87 59
Width: 819
GlyphClass: 2
Flags: W
LayerCount: 2
Fore
SplineSet
526 0 m 1,0,1
 503 115 503 115 486 202 c 128,-1,2
 469 289 469 289 456.5 353 c 128,-1,3
 444 417 444 417 436 461 c 128,-1,4
 428 505 428 505 422.5 534.5 c 128,-1,5
 417 564 417 564 414.5 580.5 c 128,-1,6
 412 597 412 597 411 607 c 1,7,-1
 409 607 l 1,8,9
 408 597 408 597 405.5 580.5 c 128,-1,10
 403 564 403 564 398 535 c 128,-1,11
 393 506 393 506 385 462 c 128,-1,12
 377 418 377 418 365.5 354 c 128,-1,13
 354 290 354 290 337.5 202.5 c 128,-1,14
 321 115 321 115 299 0 c 1,15,-1
 168 0 l 1,16,-1
 8 698 l 1,17,-1
 118 698 l 1,18,19
 143 581 143 581 161 494.5 c 128,-1,20
 179 408 179 408 191.5 345 c 128,-1,21
 204 282 204 282 212 240 c 128,-1,22
 220 198 220 198 224.5 170.5 c 128,-1,23
 229 143 229 143 231.5 126.5 c 128,-1,24
 234 110 234 110 235 99 c 1,25,-1
 237 99 l 1,26,27
 238 110 238 110 240 126.5 c 128,-1,28
 242 143 242 143 246.5 170.5 c 128,-1,29
 251 198 251 198 258.5 240.5 c 128,-1,30
 266 283 266 283 277.5 345.5 c 128,-1,31
 289 408 289 408 305 494.5 c 128,-1,32
 321 581 321 581 344 698 c 1,33,-1
 483 698 l 1,34,35
 506 581 506 581 523 494.5 c 128,-1,36
 540 408 540 408 551.5 345 c 128,-1,37
 563 282 563 282 570.5 240 c 128,-1,38
 578 198 578 198 582.5 170.5 c 128,-1,39
 587 143 587 143 589 126.5 c 128,-1,40
 591 110 591 110 592 99 c 1,41,-1
 594 99 l 1,42,43
 595 110 595 110 597 126.5 c 128,-1,44
 599 143 599 143 604 170.5 c 128,-1,45
 609 198 609 198 616.5 240 c 128,-1,46
 624 282 624 282 637 345 c 128,-1,47
 650 408 650 408 668 494.5 c 128,-1,48
 686 581 686 581 711 698 c 1,49,-1
 813 698 l 1,50,-1
 654 0 l 1,51,-1
 526 0 l 1,52,-1
 526 0 l 1,0,1
EndSplineSet
EndChar

StartChar: X
Encoding: 88 88 60
Width: 557
GlyphClass: 2
Flags: W
LayerCount: 2
Fore
SplineSet
284 432 m 1,0,1
 288 443 288 443 297 462 c 128,-1,2
 306 481 306 481 321.5 512 c 128,-1,3
 337 543 337 543 360 588.5 c 128,-1,4
 383 634 383 634 416 698 c 1,5,-1
 532 698 l 1,6,-1
 344 365 l 1,7,-1
 553 0 l 1,8,-1
 427 0 l 1,9,10
 385 76 385 76 358.5 126.5 c 128,-1,11
 332 177 332 177 315.5 209 c 128,-1,12
 299 241 299 241 290.5 259.5 c 128,-1,13
 282 278 282 278 277 291 c 1,14,-1
 275 291 l 1,15,16
 269 278 269 278 260 259.5 c 128,-1,17
 251 241 251 241 234.5 208.5 c 128,-1,18
 218 176 218 176 191.5 126 c 128,-1,19
 165 76 165 76 124 0 c 1,20,-1
 5 0 l 1,21,-1
 213 365 l 1,22,-1
 21 698 l 1,23,-1
 144 698 l 1,24,25
 179 633 179 633 203 587.5 c 128,-1,26
 227 542 227 542 243 511 c 128,-1,27
 259 480 259 480 268 461.5 c 128,-1,28
 277 443 277 443 282 432 c 1,29,-1
 284 432 l 1,0,1
EndSplineSet
EndChar

StartChar: Y
Encoding: 89 89 61
Width: 541
GlyphClass: 2
Flags: W
LayerCount: 2
Fore
SplineSet
126 698 m 1,0,1
 160 628 160 628 185 575 c 128,-1,2
 210 522 210 522 227.5 484 c 128,-1,3
 245 446 245 446 256 421 c 128,-1,4
 267 396 267 396 273 383 c 1,5,-1
 275 383 l 1,6,7
 285 410 285 410 320 484.5 c 128,-1,8
 355 559 355 559 421 698 c 1,9,-1
 539 698 l 1,10,-1
 325 285 l 1,11,-1
 325 0 l 1,12,-1
 216 0 l 1,13,-1
 216 285 l 1,14,-1
 1 698 l 1,15,-1
 126 698 l 1,0,1
EndSplineSet
EndChar

StartChar: Z
Encoding: 90 90 62
Width: 479
GlyphClass: 2
Flags: W
LayerCount: 2
Fore
SplineSet
441 595 m 1,0,1
 310 364 310 364 238.5 241 c 128,-1,2
 167 118 167 118 149 90 c 1,3,-1
 448 90 l 1,4,-1
 448 0 l 1,5,-1
 33 0 l 1,6,-1
 33 101 l 1,7,8
 89 201 89 201 138.5 288.5 c 128,-1,9
 188 376 188 376 227 443.5 c 128,-1,10
 266 511 266 511 291.5 554 c 128,-1,11
 317 597 317 597 325 608 c 1,12,-1
 40 608 l 1,13,-1
 40 698 l 1,14,-1
 441 698 l 1,15,-1
 441 595 l 1,16,-1
 441 595 l 1,0,1
EndSplineSet
EndChar

StartChar: bracketleft
Encoding: 91 91 63
Width: 296
GlyphClass: 2
Flags: W
LayerCount: 2
Fore
SplineSet
264 682 m 1,0,-1
 174 682 l 1,1,-1
 174 -64 l 1,2,-1
 264 -64 l 1,3,-1
 264 -140 l 1,4,-1
 83 -140 l 1,5,-1
 83 760 l 1,6,-1
 264 760 l 1,7,-1
 264 682 l 1,0,-1
EndSplineSet
EndChar

StartChar: backslash
Encoding: 92 92 64
Width: 427
GlyphClass: 2
Flags: W
LayerCount: 2
Fore
SplineSet
142 698 m 1,0,-1
 365 0 l 1,1,-1
 283 0 l 1,2,-1
 62 698 l 1,3,-1
 142 698 l 1,0,-1
EndSplineSet
EndChar

StartChar: bracketright
Encoding: 93 93 65
Width: 296
GlyphClass: 2
Flags: W
LayerCount: 2
Fore
SplineSet
32 760 m 1,0,-1
 213 760 l 1,1,-1
 213 -140 l 1,2,-1
 32 -140 l 1,3,-1
 32 -64 l 1,4,-1
 124 -64 l 1,5,-1
 124 682 l 1,6,-1
 32 682 l 1,7,-1
 32 760 l 1,0,-1
EndSplineSet
EndChar

StartChar: asciicircum
Encoding: 94 94 66
Width: 584
GlyphClass: 2
Flags: W
LayerCount: 2
Fore
SplineSet
411 270 m 1,0,-1
 334 478 l 2,1,2
 330 488 330 488 324 506 c 128,-1,3
 318 524 318 524 311.5 543 c 128,-1,4
 305 562 305 562 299.5 579.5 c 128,-1,5
 294 597 294 597 291 608 c 1,6,-1
 289 608 l 1,7,8
 286 597 286 597 280.5 579.5 c 128,-1,9
 275 562 275 562 268.5 543 c 128,-1,10
 262 524 262 524 256 506 c 128,-1,11
 250 488 250 488 246 478 c 2,12,-1
 172 270 l 1,13,-1
 71 270 l 1,14,-1
 242 698 l 1,15,-1
 340 698 l 1,16,-1
 513 270 l 1,17,-1
 411 270 l 1,0,-1
EndSplineSet
EndChar

StartChar: underscore
Encoding: 95 95 67
Width: 500
GlyphClass: 2
Flags: W
LayerCount: 2
Fore
SplineSet
500 -78 m 1,0,-1
 500 -128 l 1,1,-1
 0 -128 l 1,2,-1
 0 -78 l 1,3,-1
 500 -78 l 1,0,-1
EndSplineSet
EndChar

StartChar: grave
Encoding: 96 96 68
Width: 400
GlyphClass: 2
Flags: W
LayerCount: 2
Fore
SplineSet
58 756 m 1,0,-1
 177 756 l 1,1,-1
 265 579 l 1,2,-1
 195 579 l 1,3,-1
 58 756 l 1,0,-1
EndSplineSet
EndChar

StartChar: a
Encoding: 97 97 69
Width: 494
GlyphClass: 2
Flags: W
LayerCount: 2
Fore
SplineSet
89 488 m 1,0,1
 123 507 123 507 164.5 515.5 c 128,-1,2
 206 524 206 524 246 524 c 0,3,4
 299 524 299 524 335 509 c 128,-1,5
 371 494 371 494 393.5 467 c 128,-1,6
 416 440 416 440 425.5 402 c 128,-1,7
 435 364 435 364 435 318 c 0,8,9
 435 297 435 297 434.5 272.5 c 128,-1,10
 434 248 434 248 434 225.5 c 128,-1,11
 434 203 434 203 433.5 184.5 c 128,-1,12
 433 166 433 166 433 156 c 0,13,14
 433 112 433 112 434.5 70.5 c 128,-1,15
 436 29 436 29 438 0 c 1,16,-1
 348 0 l 1,17,18
 347 6 347 6 346.5 18 c 128,-1,19
 346 30 346 30 346 41 c 0,20,21
 346 50 346 50 346.5 61 c 128,-1,22
 347 72 347 72 348 83 c 1,23,-1
 346 83 l 1,24,25
 325 39 325 39 288 15.5 c 128,-1,26
 251 -8 251 -8 197 -8 c 0,27,28
 124 -8 124 -8 83 34.5 c 128,-1,29
 42 77 42 77 42 148 c 0,30,31
 42 230 42 230 102 273.5 c 128,-1,32
 162 317 162 317 274 317 c 0,33,34
 288 317 288 317 305 316.5 c 128,-1,35
 322 316 322 316 338 314 c 1,36,-1
 338 318 l 2,37,38
 338 378 338 378 312 410.5 c 128,-1,39
 286 443 286 443 229 443 c 0,40,41
 195 443 195 443 159.5 432 c 128,-1,42
 124 421 124 421 94 400 c 1,43,-1
 89 488 l 1,0,1
339 246 m 1,44,45
 331 247 331 247 320.5 247.5 c 128,-1,46
 310 248 310 248 295 248 c 0,47,48
 141 248 141 248 141 150 c 0,49,50
 141 115 141 115 161.5 91.5 c 128,-1,51
 182 68 182 68 220 68 c 0,52,53
 256 68 256 68 283.5 88.5 c 128,-1,54
 311 109 311 109 323 141 c 0,55,56
 331 161 331 161 335 187.5 c 128,-1,57
 339 214 339 214 339 246 c 1,44,45
EndSplineSet
EndChar

StartChar: b
Encoding: 98 98 70
Width: 521
GlyphClass: 2
Flags: W
LayerCount: 2
Fore
SplineSet
169 444 m 1,0,1
 189 482 189 482 221.5 503 c 128,-1,2
 254 524 254 524 299 524 c 0,3,4
 341 524 341 524 375 504.5 c 128,-1,5
 409 485 409 485 433 449.5 c 128,-1,6
 457 414 457 414 469.5 366 c 128,-1,7
 482 318 482 318 482 261 c 0,8,9
 482 202 482 202 469.5 152 c 128,-1,10
 457 102 457 102 433 65 c 128,-1,11
 409 28 409 28 375 7.5 c 128,-1,12
 341 -13 341 -13 298 -13 c 0,13,14
 250 -13 250 -13 218 8.5 c 128,-1,15
 186 30 186 30 168 69 c 1,16,-1
 166 69 l 1,17,18
 165 52 165 52 164 33.5 c 128,-1,19
 163 15 163 15 161 0 c 1,20,-1
 60 0 l 1,21,22
 63 32 63 32 64 72.5 c 128,-1,23
 65 113 65 113 65 154 c 2,24,-1
 65 756 l 1,25,-1
 170 756 l 1,26,-1
 170 564 l 2,27,28
 170 528 170 528 169.5 497.5 c 128,-1,29
 169 467 169 467 167 444 c 1,30,-1
 169 444 l 1,0,1
272 443 m 0,31,32
 245 443 245 443 225 428 c 128,-1,33
 205 413 205 413 191 387.5 c 128,-1,34
 177 362 177 362 170 328 c 128,-1,35
 163 294 163 294 163 256 c 256,36,37
 163 218 163 218 170 184.5 c 128,-1,38
 177 151 177 151 190.5 126 c 128,-1,39
 204 101 204 101 224 86 c 128,-1,40
 244 71 244 71 271 71 c 0,41,42
 296 71 296 71 315.5 85.5 c 128,-1,43
 335 100 335 100 348 125.5 c 128,-1,44
 361 151 361 151 367.5 185 c 128,-1,45
 374 219 374 219 374 258 c 0,46,47
 374 298 374 298 367.5 332 c 128,-1,48
 361 366 361 366 348 391 c 128,-1,49
 335 416 335 416 316 429.5 c 128,-1,50
 297 443 297 443 272 443 c 0,31,32
EndSplineSet
EndChar

StartChar: c
Encoding: 99 99 71
Width: 388
GlyphClass: 2
Flags: W
LayerCount: 2
Fore
SplineSet
349 425 m 1,0,1
 334 430 334 430 319.5 432 c 128,-1,2
 305 434 305 434 288 434 c 0,3,4
 255 434 255 434 228.5 420.5 c 128,-1,5
 202 407 202 407 184 383.5 c 128,-1,6
 166 360 166 360 156.5 327.5 c 128,-1,7
 147 295 147 295 147 258 c 0,8,9
 147 219 147 219 156.5 186.5 c 128,-1,10
 166 154 166 154 184.5 130 c 128,-1,11
 203 106 203 106 230 92.5 c 128,-1,12
 257 79 257 79 292 79 c 0,13,14
 323 79 323 79 352 88 c 1,15,-1
 360 4 l 1,16,17
 342 -1 342 -1 321.5 -4 c 128,-1,18
 301 -7 301 -7 275 -7 c 0,19,20
 219 -7 219 -7 175 12 c 128,-1,21
 131 31 131 31 100 65.5 c 128,-1,22
 69 100 69 100 52.5 148 c 128,-1,23
 36 196 36 196 36 255 c 0,24,25
 36 313 36 313 52.5 361.5 c 128,-1,26
 69 410 69 410 100.5 445 c 128,-1,27
 132 480 132 480 177 499.5 c 128,-1,28
 222 519 222 519 278 519 c 0,29,30
 298 519 298 519 317.5 517.5 c 128,-1,31
 337 516 337 516 356 511 c 1,32,-1
 349 425 l 1,0,1
EndSplineSet
EndChar

StartChar: d
Encoding: 100 100 72
Width: 518
GlyphClass: 2
Flags: W
LayerCount: 2
Fore
SplineSet
353 442 m 1,0,1
 352 449 352 449 351.5 461.5 c 128,-1,2
 351 474 351 474 350.5 489 c 128,-1,3
 350 504 350 504 350 519 c 128,-1,4
 350 534 350 534 350 546 c 2,5,-1
 350 756 l 1,6,-1
 455 756 l 1,7,-1
 455 151 l 2,8,9
 455 110 455 110 456 71 c 128,-1,10
 457 32 457 32 460 0 c 1,11,-1
 361 0 l 1,12,13
 359 16 359 16 358 37 c 128,-1,14
 357 58 357 58 357 78 c 1,15,-1
 355 78 l 1,16,17
 335 35 335 35 303 11 c 128,-1,18
 271 -13 271 -13 224 -13 c 0,19,20
 181 -13 181 -13 146.5 7 c 128,-1,21
 112 27 112 27 88 62 c 128,-1,22
 64 97 64 97 51 146 c 128,-1,23
 38 195 38 195 38 252 c 256,24,25
 38 309 38 309 50.5 359 c 128,-1,26
 63 409 63 409 87 445.5 c 128,-1,27
 111 482 111 482 145 503 c 128,-1,28
 179 524 179 524 221 524 c 0,29,30
 269 524 269 524 301 502 c 128,-1,31
 333 480 333 480 351 442 c 1,32,-1
 353 442 l 1,0,1
248 71 m 0,33,34
 274 71 274 71 294.5 86 c 128,-1,35
 315 101 315 101 329 126.5 c 128,-1,36
 343 152 343 152 350 186 c 128,-1,37
 357 220 357 220 357 258 c 0,38,39
 357 295 357 295 350 328.5 c 128,-1,40
 343 362 343 362 329.5 387.5 c 128,-1,41
 316 413 316 413 295.5 427.5 c 128,-1,42
 275 442 275 442 249 442 c 0,43,44
 224 442 224 442 205 427.5 c 128,-1,45
 186 413 186 413 173 387.5 c 128,-1,46
 160 362 160 362 153 328.5 c 128,-1,47
 146 295 146 295 146 256 c 0,48,49
 146 215 146 215 152.5 181.5 c 128,-1,50
 159 148 159 148 172 123 c 128,-1,51
 185 98 185 98 204 84.5 c 128,-1,52
 223 71 223 71 248 71 c 0,33,34
EndSplineSet
EndChar

StartChar: e
Encoding: 101 101 73
Width: 483
GlyphClass: 2
Flags: W
LayerCount: 2
Fore
SplineSet
140 224 m 1,0,1
 142 158 142 158 182 115 c 128,-1,2
 222 72 222 72 293 72 c 0,3,4
 325 72 325 72 351 77.5 c 128,-1,5
 377 83 377 83 406 96 c 1,6,-1
 410 9 l 1,7,8
 381 -2 381 -2 350.5 -7.5 c 128,-1,9
 320 -13 320 -13 286 -13 c 0,10,11
 164 -13 164 -13 100 60 c 128,-1,12
 36 133 36 133 36 260 c 0,13,14
 36 321 36 321 51.5 369.5 c 128,-1,15
 67 418 67 418 95 452.5 c 128,-1,16
 123 487 123 487 162.5 505.5 c 128,-1,17
 202 524 202 524 251 524 c 0,18,19
 349 524 349 524 396 459.5 c 128,-1,20
 443 395 443 395 443 270 c 0,21,22
 443 262 443 262 442.5 247 c 128,-1,23
 442 232 442 232 441 224 c 1,24,-1
 140 224 l 1,0,1
344 301 m 1,25,26
 344 370 344 370 320 409.5 c 128,-1,27
 296 449 296 449 250 449 c 0,28,29
 206 449 206 449 176 410.5 c 128,-1,30
 146 372 146 372 141 301 c 1,31,-1
 344 301 l 1,25,26
EndSplineSet
EndChar

StartChar: f
Encoding: 102 102 74
Width: 294
GlyphClass: 2
Flags: W
LayerCount: 2
Fore
SplineSet
95 509 m 1,0,-1
 95 580 l 2,1,2
 95 621 95 621 103.5 654 c 128,-1,3
 112 687 112 687 130.5 710.5 c 128,-1,4
 149 734 149 734 178.5 747 c 128,-1,5
 208 760 208 760 249 760 c 0,6,7
 267 760 267 760 281.5 758 c 128,-1,8
 296 756 296 756 310 752 c 1,9,-1
 305 673 l 1,10,11
 294 676 294 676 285.5 677 c 128,-1,12
 277 678 277 678 268 678 c 0,13,14
 225 678 225 678 211.5 650 c 128,-1,15
 198 622 198 622 198 571 c 2,16,-1
 198 509 l 1,17,-1
 291 509 l 1,18,-1
 291 431 l 1,19,-1
 198 431 l 1,20,-1
 198 0 l 1,21,-1
 95 0 l 1,22,-1
 95 431 l 1,23,-1
 9 431 l 1,24,-1
 9 509 l 1,25,-1
 95 509 l 1,0,-1
EndSplineSet
EndChar

StartChar: g
Encoding: 103 103 75
Width: 521
GlyphClass: 2
Flags: W
LayerCount: 2
Fore
SplineSet
248 442 m 0,0,1
 224 442 224 442 205 428.5 c 128,-1,2
 186 415 186 415 173 391 c 128,-1,3
 160 367 160 367 153 334 c 128,-1,4
 146 301 146 301 146 262 c 0,5,6
 146 181 146 181 171.5 131 c 128,-1,7
 197 81 197 81 248 81 c 0,8,9
 274 81 274 81 294 95.5 c 128,-1,10
 314 110 314 110 328 134.5 c 128,-1,11
 342 159 342 159 349.5 192.5 c 128,-1,12
 357 226 357 226 357 265 c 0,13,14
 357 302 357 302 350 334.5 c 128,-1,15
 343 367 343 367 329 391 c 128,-1,16
 315 415 315 415 294.5 428.5 c 128,-1,17
 274 442 274 442 248 442 c 0,0,1
353 33 m 0,18,19
 353 45 353 45 353 59 c 128,-1,20
 353 73 353 73 355 87 c 1,21,-1
 353 87 l 1,22,23
 333 47 333 47 301.5 23.5 c 128,-1,24
 270 0 270 0 224 0 c 0,25,26
 181 0 181 0 146.5 19 c 128,-1,27
 112 38 112 38 87.5 72 c 128,-1,28
 63 106 63 106 50 153.5 c 128,-1,29
 37 201 37 201 37 258 c 0,30,31
 37 316 37 316 50 365 c 128,-1,32
 63 414 63 414 87 449.5 c 128,-1,33
 111 485 111 485 145.5 504.5 c 128,-1,34
 180 524 180 524 223 524 c 0,35,36
 271 524 271 524 303 502.5 c 128,-1,37
 335 481 335 481 352 444 c 1,38,-1
 354 444 l 1,39,40
 352 461 352 461 352 475.5 c 128,-1,41
 352 490 352 490 352 512 c 1,42,-1
 455 512 l 1,43,-1
 455 31 l 2,44,45
 455 -18 455 -18 444.5 -63.5 c 128,-1,46
 434 -109 434 -109 407.5 -144 c 128,-1,47
 381 -179 381 -179 336 -200 c 128,-1,48
 291 -221 291 -221 223 -221 c 0,49,50
 184 -221 184 -221 141.5 -214 c 128,-1,51
 99 -207 99 -207 61 -193 c 1,52,-1
 70 -93 l 1,53,54
 108 -114 108 -114 145 -123.5 c 128,-1,55
 182 -133 182 -133 218 -133 c 0,56,57
 294 -133 294 -133 323.5 -89 c 128,-1,58
 353 -45 353 -45 353 33 c 0,18,19
EndSplineSet
EndChar

StartChar: h
Encoding: 104 104 76
Width: 511
GlyphClass: 2
Flags: W
LayerCount: 2
Fore
SplineSet
171 563 m 2,0,1
 171 546 171 546 170.5 527 c 128,-1,2
 170 508 170 508 169.5 490 c 128,-1,3
 169 472 169 472 168.5 456.5 c 128,-1,4
 168 441 168 441 167 431 c 1,5,-1
 169 431 l 1,6,7
 189 473 189 473 223 498.5 c 128,-1,8
 257 524 257 524 303 524 c 0,9,10
 383 524 383 524 417 470.5 c 128,-1,11
 451 417 451 417 451 314 c 2,12,-1
 451 0 l 1,13,-1
 347 0 l 1,14,-1
 347 271 l 2,15,16
 347 307 347 307 344.5 337.5 c 128,-1,17
 342 368 342 368 334.5 390 c 128,-1,18
 327 412 327 412 311.5 424.5 c 128,-1,19
 296 437 296 437 271 437 c 0,20,21
 219 437 219 437 195 386.5 c 128,-1,22
 171 336 171 336 171 236 c 2,23,-1
 171 0 l 1,24,-1
 66 0 l 1,25,-1
 66 756 l 1,26,-1
 171 756 l 1,27,-1
 171 563 l 2,0,1
EndSplineSet
EndChar

StartChar: i
Encoding: 105 105 77
Width: 247
GlyphClass: 2
Flags: W
LayerCount: 2
Fore
SplineSet
176 512 m 1,0,-1
 176 0 l 1,1,-1
 71 0 l 1,2,-1
 71 512 l 1,3,-1
 176 512 l 1,0,-1
180 710 m 1,4,-1
 180 601 l 1,5,-1
 66 601 l 1,6,-1
 66 710 l 1,7,-1
 180 710 l 1,4,-1
EndSplineSet
EndChar

StartChar: j
Encoding: 106 106 78
Width: 247
GlyphClass: 2
Flags: W
LayerCount: 2
Fore
SplineSet
176 512 m 1,0,-1
 176 -63 l 2,1,2
 176 -148 176 -148 144.5 -185 c 128,-1,3
 113 -222 113 -222 41 -222 c 0,4,5
 12 -222 12 -222 -15 -215 c 1,6,-1
 -13 -135 l 1,7,8
 6 -139 6 -139 21 -139 c 0,9,10
 51 -139 51 -139 61 -118.5 c 128,-1,11
 71 -98 71 -98 71 -54 c 2,12,-1
 71 512 l 1,13,-1
 176 512 l 1,0,-1
180 710 m 1,14,-1
 180 601 l 1,15,-1
 66 601 l 1,16,-1
 66 710 l 1,17,-1
 180 710 l 1,14,-1
EndSplineSet
EndChar

StartChar: k
Encoding: 107 107 79
Width: 472
GlyphClass: 2
Flags: W
LayerCount: 2
Fore
SplineSet
349 0 m 1,0,1
 302 68 302 68 271.5 112.5 c 128,-1,2
 241 157 241 157 221.5 186.5 c 128,-1,3
 202 216 202 216 191 233.5 c 128,-1,4
 180 251 180 251 172 265 c 1,5,-1
 170 265 l 1,6,-1
 170 0 l 1,7,-1
 66 0 l 1,8,-1
 66 756 l 1,9,-1
 170 756 l 1,10,-1
 170 293 l 1,11,-1
 172 293 l 1,12,13
 182 308 182 308 194 325 c 128,-1,14
 206 342 206 342 224 367 c 128,-1,15
 242 392 242 392 268.5 427 c 128,-1,16
 295 462 295 462 333 512 c 1,17,-1
 459 512 l 1,18,-1
 271 285 l 1,19,-1
 476 0 l 1,20,-1
 349 0 l 1,21,-1
 349 0 l 1,0,1
EndSplineSet
EndChar

StartChar: l
Encoding: 108 108 80
Width: 238
GlyphClass: 2
Flags: W
LayerCount: 2
Fore
SplineSet
172 756 m 1,0,-1
 172 0 l 1,1,-1
 66 0 l 1,2,-1
 66 756 l 1,3,-1
 172 756 l 1,0,-1
EndSplineSet
EndChar

StartChar: m
Encoding: 109 109 81
Width: 775
GlyphClass: 2
Flags: W
LayerCount: 2
Fore
SplineSet
167 427 m 1,0,1
 187 474 187 474 221 499 c 128,-1,2
 255 524 255 524 300 524 c 0,3,4
 401 524 401 524 428 423 c 1,5,6
 447 468 447 468 483 496 c 128,-1,7
 519 524 519 524 571 524 c 0,8,9
 649 524 649 524 682 470.5 c 128,-1,10
 715 417 715 417 715 314 c 2,11,-1
 715 0 l 1,12,-1
 611 0 l 1,13,-1
 611 287 l 2,14,15
 611 323 611 323 608.5 350.5 c 128,-1,16
 606 378 606 378 598.5 397.5 c 128,-1,17
 591 417 591 417 577 427 c 128,-1,18
 563 437 563 437 539 437 c 0,19,20
 494 437 494 437 468.5 394 c 128,-1,21
 443 351 443 351 443 268 c 2,22,-1
 443 0 l 1,23,-1
 338 0 l 1,24,-1
 338 287 l 2,25,26
 338 359 338 359 324 398 c 128,-1,27
 310 437 310 437 265 437 c 256,28,29
 220 437 220 437 195 391.5 c 128,-1,30
 170 346 170 346 170 251 c 2,31,-1
 170 0 l 1,32,-1
 66 0 l 1,33,-1
 66 359 l 2,34,35
 66 398 66 398 65 436.5 c 128,-1,36
 64 475 64 475 61 512 c 1,37,-1
 161 512 l 1,38,39
 163 495 163 495 164 471 c 128,-1,40
 165 447 165 447 165 427 c 1,41,-1
 167 427 l 1,0,1
EndSplineSet
EndChar

StartChar: n
Encoding: 110 110 82
Width: 511
GlyphClass: 2
Flags: W
LayerCount: 2
Fore
SplineSet
167 427 m 1,0,1
 187 472 187 472 221 498 c 128,-1,2
 255 524 255 524 301 524 c 0,3,4
 382 524 382 524 416.5 470 c 128,-1,5
 451 416 451 416 451 314 c 2,6,-1
 451 0 l 1,7,-1
 346 0 l 1,8,-1
 346 271 l 2,9,10
 346 307 346 307 344 337.5 c 128,-1,11
 342 368 342 368 334 390.5 c 128,-1,12
 326 413 326 413 311 425.5 c 128,-1,13
 296 438 296 438 271 438 c 0,14,15
 224 438 224 438 197 390 c 128,-1,16
 170 342 170 342 170 251 c 2,17,-1
 170 0 l 1,18,-1
 66 0 l 1,19,-1
 66 359 l 2,20,21
 66 398 66 398 65 436.5 c 128,-1,22
 64 475 64 475 61 512 c 1,23,-1
 161 512 l 1,24,25
 163 495 163 495 164 471 c 128,-1,26
 165 447 165 447 165 427 c 1,27,-1
 167 427 l 1,0,1
EndSplineSet
EndChar

StartChar: o
Encoding: 111 111 83
Width: 504
GlyphClass: 2
Flags: W
LayerCount: 2
Fore
SplineSet
254 524 m 256,0,1
 305 524 305 524 344.5 504 c 128,-1,2
 384 484 384 484 411 448.5 c 128,-1,3
 438 413 438 413 452 363.5 c 128,-1,4
 466 314 466 314 466 254 c 0,5,6
 466 195 466 195 451.5 145.5 c 128,-1,7
 437 96 437 96 410 61 c 128,-1,8
 383 26 383 26 343 6.5 c 128,-1,9
 303 -13 303 -13 252 -13 c 0,10,11
 202 -13 202 -13 162 6.5 c 128,-1,12
 122 26 122 26 94.5 61.5 c 128,-1,13
 67 97 67 97 52.5 146 c 128,-1,14
 38 195 38 195 38 254 c 0,15,16
 38 314 38 314 52.5 364 c 128,-1,17
 67 414 67 414 94.5 449.5 c 128,-1,18
 122 485 122 485 162.5 504.5 c 128,-1,19
 203 524 203 524 254 524 c 256,0,1
251 439 m 0,20,21
 200 439 200 439 174 388 c 128,-1,22
 148 337 148 337 148 254 c 0,23,24
 148 173 148 173 173.5 123 c 128,-1,25
 199 73 199 73 254 73 c 0,26,27
 306 73 306 73 331.5 122.5 c 128,-1,28
 357 172 357 172 357 254 c 0,29,30
 357 295 357 295 350.5 329 c 128,-1,31
 344 363 344 363 330.5 387.5 c 128,-1,32
 317 412 317 412 297.5 425.5 c 128,-1,33
 278 439 278 439 251 439 c 0,20,21
EndSplineSet
EndChar

StartChar: p
Encoding: 112 112 84
Width: 520
GlyphClass: 2
Flags: W
LayerCount: 2
Fore
SplineSet
165 440 m 1,0,1
 184 480 184 480 216.5 502 c 128,-1,2
 249 524 249 524 295 524 c 0,3,4
 338 524 338 524 372.5 504.5 c 128,-1,5
 407 485 407 485 431.5 449.5 c 128,-1,6
 456 414 456 414 469 365.5 c 128,-1,7
 482 317 482 317 482 260 c 0,8,9
 482 202 482 202 469 152 c 128,-1,10
 456 102 456 102 432 65.5 c 128,-1,11
 408 29 408 29 374 8 c 128,-1,12
 340 -13 340 -13 297 -13 c 0,13,14
 249 -13 249 -13 217.5 8 c 128,-1,15
 186 29 186 29 169 67 c 1,16,-1
 167 67 l 1,17,18
 168 58 168 58 168.5 44 c 128,-1,19
 169 30 169 30 169.5 14 c 128,-1,20
 170 -2 170 -2 170 -18 c 128,-1,21
 170 -34 170 -34 170 -47 c 2,22,-1
 170 -211 l 1,23,-1
 64 -211 l 1,24,-1
 64 361 l 2,25,26
 64 399 64 399 63 440.5 c 128,-1,27
 62 482 62 482 59 512 c 1,28,-1
 158 512 l 1,29,30
 160 495 160 495 161 475.5 c 128,-1,31
 162 456 162 456 163 440 c 1,32,-1
 165 440 l 1,0,1
271 441 m 0,33,34
 245 441 245 441 225 426 c 128,-1,35
 205 411 205 411 191 385.5 c 128,-1,36
 177 360 177 360 169.5 325.5 c 128,-1,37
 162 291 162 291 162 253 c 0,38,39
 162 216 162 216 169 182.5 c 128,-1,40
 176 149 176 149 190 124 c 128,-1,41
 204 99 204 99 224.5 84.5 c 128,-1,42
 245 70 245 70 271 70 c 0,43,44
 295 70 295 70 314 84.5 c 128,-1,45
 333 99 333 99 346 124.5 c 128,-1,46
 359 150 359 150 366 183.5 c 128,-1,47
 373 217 373 217 373 256 c 0,48,49
 373 296 373 296 366.5 330 c 128,-1,50
 360 364 360 364 347 388.5 c 128,-1,51
 334 413 334 413 315 427 c 128,-1,52
 296 441 296 441 271 441 c 0,33,34
EndSplineSet
EndChar

StartChar: q
Encoding: 113 113 85
Width: 519
GlyphClass: 2
Flags: W
LayerCount: 2
Fore
SplineSet
352 443 m 1,0,1
 354 478 354 478 358 512 c 1,2,-1
 455 512 l 1,3,4
 453 494 453 494 452 469 c 128,-1,5
 451 444 451 444 451 420 c 2,6,-1
 451 -211 l 1,7,-1
 347 -211 l 1,8,-1
 347 -51 l 2,9,10
 347 -39 347 -39 347.5 -22.5 c 128,-1,11
 348 -6 348 -6 348.5 11 c 128,-1,12
 349 28 349 28 349.5 44.5 c 128,-1,13
 350 61 350 61 351 73 c 1,14,-1
 349 73 l 1,15,16
 330 32 330 32 297.5 9.5 c 128,-1,17
 265 -13 265 -13 220 -13 c 0,18,19
 177 -13 177 -13 142.5 7 c 128,-1,20
 108 27 108 27 84 62.5 c 128,-1,21
 60 98 60 98 47 146.5 c 128,-1,22
 34 195 34 195 34 252 c 0,23,24
 34 310 34 310 47 360 c 128,-1,25
 60 410 60 410 84 446.5 c 128,-1,26
 108 483 108 483 142.5 503.5 c 128,-1,27
 177 524 177 524 220 524 c 0,28,29
 268 524 268 524 300.5 501.5 c 128,-1,30
 333 479 333 479 350 443 c 1,31,-1
 352 443 l 1,0,1
245 71 m 0,32,33
 271 71 271 71 291 86 c 128,-1,34
 311 101 311 101 325 126.5 c 128,-1,35
 339 152 339 152 346 186.5 c 128,-1,36
 353 221 353 221 353 259 c 0,37,38
 353 296 353 296 346 329.5 c 128,-1,39
 339 363 339 363 325.5 388 c 128,-1,40
 312 413 312 413 291.5 427.5 c 128,-1,41
 271 442 271 442 245 442 c 0,42,43
 220 442 220 442 201 427.5 c 128,-1,44
 182 413 182 413 169 387.5 c 128,-1,45
 156 362 156 362 149 328.5 c 128,-1,46
 142 295 142 295 142 256 c 0,47,48
 142 216 142 216 148.5 182 c 128,-1,49
 155 148 155 148 168 123.5 c 128,-1,50
 181 99 181 99 200.5 85 c 128,-1,51
 220 71 220 71 245 71 c 0,32,33
EndSplineSet
EndChar

StartChar: r
Encoding: 114 114 86
Width: 322
GlyphClass: 2
Flags: W
LayerCount: 2
Fore
SplineSet
167 422 m 1,0,1
 184 469 184 469 216.5 496.5 c 128,-1,2
 249 524 249 524 291 524 c 0,3,4
 296 524 296 524 302 524 c 128,-1,5
 308 524 308 524 314 522 c 1,6,-1
 314 424 l 1,7,8
 307 426 307 426 300.5 426.5 c 128,-1,9
 294 427 294 427 286 427 c 0,10,11
 229 427 229 427 199.5 383 c 128,-1,12
 170 339 170 339 170 237 c 2,13,-1
 170 0 l 1,14,-1
 66 0 l 1,15,-1
 66 362 l 2,16,17
 66 401 66 401 65 440 c 128,-1,18
 64 479 64 479 61 512 c 1,19,-1
 161 512 l 1,20,21
 163 496 163 496 164 469 c 128,-1,22
 165 442 165 442 165 422 c 1,23,-1
 167 422 l 1,0,1
EndSplineSet
EndChar

StartChar: s
Encoding: 115 115 87
Width: 390
GlyphClass: 2
Flags: W
LayerCount: 2
Fore
SplineSet
49 105 m 1,0,1
 77 89 77 89 107.5 80.5 c 128,-1,2
 138 72 138 72 169 72 c 0,3,4
 208 72 208 72 231 89 c 128,-1,5
 254 106 254 106 254 138 c 0,6,7
 254 153 254 153 249.5 164 c 128,-1,8
 245 175 245 175 234 185 c 128,-1,9
 223 195 223 195 204.5 205.5 c 128,-1,10
 186 216 186 216 158 229 c 0,11,12
 96 259 96 259 70 291.5 c 128,-1,13
 44 324 44 324 44 374 c 0,14,15
 44 411 44 411 57.5 439 c 128,-1,16
 71 467 71 467 94.5 486 c 128,-1,17
 118 505 118 505 150 514.5 c 128,-1,18
 182 524 182 524 220 524 c 0,19,20
 253 524 253 524 283 518.5 c 128,-1,21
 313 513 313 513 335 505 c 1,22,-1
 327 421 l 1,23,24
 302 432 302 432 274.5 438 c 128,-1,25
 247 444 247 444 220 444 c 0,26,27
 189 444 189 444 167 429 c 128,-1,28
 145 414 145 414 145 382 c 0,29,30
 145 353 145 353 165 336.5 c 128,-1,31
 185 320 185 320 233 299 c 0,32,33
 297 270 297 270 325.5 235.5 c 128,-1,34
 354 201 354 201 354 147 c 0,35,36
 354 69 354 69 304 28 c 128,-1,37
 254 -13 254 -13 176 -13 c 0,38,39
 104 -13 104 -13 41 11 c 1,40,-1
 49 105 l 1,0,1
EndSplineSet
EndChar

StartChar: t
Encoding: 116 116 88
Width: 316
GlyphClass: 2
Flags: W
LayerCount: 2
Fore
SplineSet
191 509 m 1,0,-1
 296 509 l 1,1,-1
 296 431 l 1,2,-1
 191 431 l 1,3,-1
 191 178 l 2,4,5
 191 127 191 127 204 101 c 128,-1,6
 217 75 217 75 255 75 c 0,7,8
 278 75 278 75 298 82 c 1,9,-1
 302 4 l 1,10,11
 271 -7 271 -7 230 -7 c 0,12,13
 190 -7 190 -7 163 3.5 c 128,-1,14
 136 14 136 14 119.5 35 c 128,-1,15
 103 56 103 56 96 87 c 128,-1,16
 89 118 89 118 89 159 c 2,17,-1
 89 431 l 1,18,-1
 8 431 l 1,19,-1
 8 509 l 1,20,-1
 89 509 l 1,21,-1
 89 625 l 1,22,-1
 191 662 l 1,23,-1
 191 509 l 1,0,-1
EndSplineSet
EndChar

StartChar: u
Encoding: 117 117 89
Width: 511
GlyphClass: 2
Flags: W
LayerCount: 2
Fore
SplineSet
342 85 m 1,0,1
 322 39 322 39 288 14 c 128,-1,2
 254 -11 254 -11 208 -11 c 0,3,4
 128 -11 128 -11 93 41.5 c 128,-1,5
 58 94 58 94 58 197 c 2,6,-1
 58 512 l 1,7,-1
 163 512 l 1,8,-1
 163 241 l 2,9,10
 163 205 163 205 165.5 175 c 128,-1,11
 168 145 168 145 175.5 123 c 128,-1,12
 183 101 183 101 198 88.5 c 128,-1,13
 213 76 213 76 237 76 c 0,14,15
 280 76 280 76 309.5 119.5 c 128,-1,16
 339 163 339 163 339 257 c 2,17,-1
 339 512 l 1,18,-1
 443 512 l 1,19,-1
 443 155 l 2,20,21
 443 116 443 116 444 76 c 128,-1,22
 445 36 445 36 448 0 c 1,23,-1
 348 0 l 1,24,25
 346 16 346 16 345 40.5 c 128,-1,26
 344 65 344 65 344 85 c 1,27,-1
 342 85 l 1,0,1
EndSplineSet
EndChar

StartChar: v
Encoding: 118 118 90
Width: 442
GlyphClass: 2
Flags: W
LayerCount: 2
Fore
SplineSet
117 512 m 1,0,1
 148 390 148 390 167.5 314 c 128,-1,2
 187 238 187 238 198 192.5 c 128,-1,3
 209 147 209 147 213.5 125 c 128,-1,4
 218 103 218 103 221 90 c 1,5,-1
 222 90 l 1,6,7
 225 103 225 103 230 125 c 128,-1,8
 235 147 235 147 246.5 192.5 c 128,-1,9
 258 238 258 238 277.5 314 c 128,-1,10
 297 390 297 390 328 512 c 1,11,-1
 436 512 l 1,12,-1
 282 0 l 1,13,-1
 158 0 l 1,14,-1
 6 512 l 1,15,-1
 117 512 l 1,16,-1
 117 512 l 1,0,1
EndSplineSet
EndChar

StartChar: w
Encoding: 119 119 91
Width: 719
GlyphClass: 2
Flags: W
LayerCount: 2
Fore
SplineSet
113 512 m 1,0,1
 143 383 143 383 160.5 305.5 c 128,-1,2
 178 228 178 228 187 183.5 c 128,-1,3
 196 139 196 139 199.5 120 c 128,-1,4
 203 101 203 101 204 91 c 1,5,-1
 206 91 l 1,6,7
 207 101 207 101 210.5 120 c 128,-1,8
 214 139 214 139 223.5 183.5 c 128,-1,9
 233 228 233 228 251.5 305.5 c 128,-1,10
 270 383 270 383 300 512 c 1,11,-1
 422 512 l 1,12,13
 453 383 453 383 471.5 305.5 c 128,-1,14
 490 228 490 228 499.5 183.5 c 128,-1,15
 509 139 509 139 512.5 120 c 128,-1,16
 516 101 516 101 517 91 c 1,17,-1
 519 91 l 1,18,19
 520 101 520 101 523.5 120 c 128,-1,20
 527 139 527 139 536 183.5 c 128,-1,21
 545 228 545 228 562.5 305.5 c 128,-1,22
 580 383 580 383 610 512 c 1,23,-1
 713 512 l 1,24,-1
 577 0 l 1,25,-1
 454 0 l 1,26,27
 422 129 422 129 403.5 207 c 128,-1,28
 385 285 385 285 375.5 328.5 c 128,-1,29
 366 372 366 372 362.5 390.5 c 128,-1,30
 359 409 359 409 358 420 c 1,31,-1
 356 420 l 1,32,33
 355 413 355 413 353.5 403 c 128,-1,34
 352 393 352 393 348.5 375 c 128,-1,35
 345 357 345 357 339 328.5 c 128,-1,36
 333 300 333 300 323 255.5 c 128,-1,37
 313 211 313 211 298.5 148.5 c 128,-1,38
 284 86 284 86 264 0 c 1,39,-1
 142 0 l 1,40,-1
 6 512 l 1,41,-1
 113 512 l 1,0,1
EndSplineSet
EndChar

StartChar: x
Encoding: 120 120 92
Width: 454
GlyphClass: 2
Flags: W
LayerCount: 2
Fore
SplineSet
234 324 m 1,0,1
 238 335 238 335 244.5 349.5 c 128,-1,2
 251 364 251 364 261.5 386 c 128,-1,3
 272 408 272 408 287 438.5 c 128,-1,4
 302 469 302 469 323 512 c 1,5,-1
 432 512 l 1,6,-1
 293 269 l 1,7,-1
 444 0 l 1,8,-1
 327 0 l 1,9,10
 303 49 303 49 285.5 83.5 c 128,-1,11
 268 118 268 118 256 142 c 128,-1,12
 244 166 244 166 237 181.5 c 128,-1,13
 230 197 230 197 226 206 c 1,14,-1
 224 206 l 1,15,16
 220 197 220 197 213.5 181.5 c 128,-1,17
 207 166 207 166 195.5 142 c 128,-1,18
 184 118 184 118 167 83 c 128,-1,19
 150 48 150 48 125 0 c 1,20,-1
 11 0 l 1,21,-1
 166 269 l 1,22,-1
 23 512 l 1,23,-1
 142 512 l 1,24,25
 163 469 163 469 178 438.5 c 128,-1,26
 193 408 193 408 203.5 386.5 c 128,-1,27
 214 365 214 365 220.5 350 c 128,-1,28
 227 335 227 335 232 324 c 1,29,-1
 234 324 l 1,30,-1
 234 324 l 1,0,1
EndSplineSet
EndChar

StartChar: y
Encoding: 121 121 93
Width: 442
GlyphClass: 2
Flags: W
LayerCount: 2
Fore
SplineSet
117 512 m 1,0,1
 138 429 138 429 154 367.5 c 128,-1,2
 170 306 170 306 181 262 c 128,-1,3
 192 218 192 218 199 188.5 c 128,-1,4
 206 159 206 159 210 139.5 c 128,-1,5
 214 120 214 120 216.5 108.5 c 128,-1,6
 219 97 219 97 221 88 c 1,7,-1
 223 88 l 1,8,9
 225 97 225 97 227 108.5 c 128,-1,10
 229 120 229 120 233.5 139.5 c 128,-1,11
 238 159 238 159 245.5 188.5 c 128,-1,12
 253 218 253 218 264 262 c 128,-1,13
 275 306 275 306 290.5 367 c 128,-1,14
 306 428 306 428 328 512 c 1,15,-1
 436 512 l 1,16,-1
 273 -28 l 2,17,18
 256 -85 256 -85 237.5 -122 c 128,-1,19
 219 -159 219 -159 197.5 -181.5 c 128,-1,20
 176 -204 176 -204 149 -213 c 128,-1,21
 122 -222 122 -222 87 -222 c 0,22,23
 73 -222 73 -222 58 -220 c 128,-1,24
 43 -218 43 -218 30 -214 c 1,25,-1
 36 -127 l 1,26,27
 47 -130 47 -130 56.5 -131 c 128,-1,28
 66 -132 66 -132 76 -132 c 0,29,30
 92 -132 92 -132 104.5 -127.5 c 128,-1,31
 117 -123 117 -123 127 -111 c 128,-1,32
 137 -99 137 -99 146 -77.5 c 128,-1,33
 155 -56 155 -56 164 -22 c 1,34,-1
 6 512 l 1,35,-1
 117 512 l 1,36,-1
 117 512 l 1,0,1
EndSplineSet
EndChar

StartChar: z
Encoding: 122 122 94
Width: 407
GlyphClass: 2
Flags: W
LayerCount: 2
Fore
SplineSet
368 416 m 1,0,1
 314 334 314 334 275 276 c 128,-1,2
 236 218 236 218 209.5 179 c 128,-1,3
 183 140 183 140 167.5 118 c 128,-1,4
 152 96 152 96 144 86 c 1,5,-1
 376 86 l 1,6,-1
 376 0 l 1,7,-1
 36 0 l 1,8,-1
 36 94 l 1,9,10
 96 185 96 185 136.5 246 c 128,-1,11
 177 307 177 307 203 344.5 c 128,-1,12
 229 382 229 382 243 401 c 128,-1,13
 257 420 257 420 263 428 c 1,14,-1
 47 428 l 1,15,-1
 47 512 l 1,16,-1
 368 512 l 1,17,-1
 368 416 l 1,18,-1
 368 416 l 1,0,1
EndSplineSet
EndChar

StartChar: braceleft
Encoding: 123 123 95
Width: 296
GlyphClass: 2
Flags: W
LayerCount: 2
Fore
SplineSet
10 345 m 1,0,1
 38 349 38 349 55 359 c 128,-1,2
 72 369 72 369 81 385.5 c 128,-1,3
 90 402 90 402 92.5 425.5 c 128,-1,4
 95 449 95 449 95 481 c 2,5,-1
 95 539 l 2,6,7
 95 597 95 597 102 637 c 128,-1,8
 109 677 109 677 128 703 c 128,-1,9
 147 729 147 729 180.5 742.5 c 128,-1,10
 214 756 214 756 267 760 c 1,11,-1
 267 691 l 1,12,13
 222 686 222 686 203.5 653 c 128,-1,14
 185 620 185 620 185 551 c 2,15,-1
 185 507 l 2,16,17
 185 460 185 460 182 425 c 128,-1,18
 179 390 179 390 168.5 366 c 128,-1,19
 158 342 158 342 139 328.5 c 128,-1,20
 120 315 120 315 89 311 c 1,21,-1
 89 309 l 1,22,23
 120 304 120 304 139 289.5 c 128,-1,24
 158 275 158 275 168.5 251 c 128,-1,25
 179 227 179 227 182 192.5 c 128,-1,26
 185 158 185 158 185 113 c 2,27,-1
 185 67 l 2,28,29
 185 -3 185 -3 203.5 -35 c 128,-1,30
 222 -67 222 -67 267 -72 c 1,31,-1
 267 -140 l 1,32,33
 214 -136 214 -136 180.5 -123 c 128,-1,34
 147 -110 147 -110 128 -84 c 128,-1,35
 109 -58 109 -58 102 -18 c 128,-1,36
 95 22 95 22 95 80 c 2,37,-1
 95 139 l 2,38,39
 95 171 95 171 92.5 194.5 c 128,-1,40
 90 218 90 218 81 234.5 c 128,-1,41
 72 251 72 251 55 260.5 c 128,-1,42
 38 270 38 270 10 274 c 1,43,-1
 10 345 l 1,0,1
EndSplineSet
EndChar

StartChar: bar
Encoding: 124 124 96
Width: 270
GlyphClass: 2
Flags: W
LayerCount: 2
Fore
SplineSet
89 786 m 1,0,-1
 181 786 l 1,1,-1
 181 -214 l 1,2,-1
 89 -214 l 1,3,-1
 89 786 l 1,0,-1
EndSplineSet
EndChar

StartChar: braceright
Encoding: 125 125 97
Width: 296
GlyphClass: 2
Flags: W
LayerCount: 2
Fore
SplineSet
286 274 m 1,0,1
 258 269 258 269 241 259.5 c 128,-1,2
 224 250 224 250 215 233.5 c 128,-1,3
 206 217 206 217 203.5 193.5 c 128,-1,4
 201 170 201 170 201 138 c 2,5,-1
 201 81 l 2,6,7
 201 23 201 23 194 -17 c 128,-1,8
 187 -57 187 -57 168.5 -83 c 128,-1,9
 150 -109 150 -109 116.5 -122.5 c 128,-1,10
 83 -136 83 -136 29 -140 c 1,11,-1
 29 -72 l 1,12,13
 75 -67 75 -67 93.5 -34 c 128,-1,14
 112 -1 112 -1 112 68 c 2,15,-1
 112 112 l 2,16,17
 112 158 112 158 115 193.5 c 128,-1,18
 118 229 118 229 128 253 c 128,-1,19
 138 277 138 277 156.5 290.5 c 128,-1,20
 175 304 175 304 207 308 c 1,21,-1
 207 310 l 1,22,23
 175 315 175 315 156.5 329.5 c 128,-1,24
 138 344 138 344 128 368.5 c 128,-1,25
 118 393 118 393 115 427.5 c 128,-1,26
 112 462 112 462 112 507 c 2,27,-1
 112 552 l 2,28,29
 112 622 112 622 93.5 654 c 128,-1,30
 75 686 75 686 29 691 c 1,31,-1
 29 760 l 1,32,33
 83 756 83 756 116.5 742.5 c 128,-1,34
 150 729 150 729 168.5 703.5 c 128,-1,35
 187 678 187 678 194 637.5 c 128,-1,36
 201 597 201 597 201 539 c 2,37,-1
 201 481 l 2,38,39
 201 449 201 449 203.5 425 c 128,-1,40
 206 401 206 401 215 384.5 c 128,-1,41
 224 368 224 368 241 358.5 c 128,-1,42
 258 349 258 349 286 345 c 1,43,-1
 286 274 l 1,0,1
EndSplineSet
EndChar

StartChar: asciitilde
Encoding: 126 126 98
Width: 584
GlyphClass: 2
Flags: W
LayerCount: 2
Fore
SplineSet
541 224 m 1,0,1
 519 198 519 198 484 182 c 128,-1,2
 449 166 449 166 411 166 c 0,3,4
 370 166 370 166 339 178.5 c 128,-1,5
 308 191 308 191 280.5 206.5 c 128,-1,6
 253 222 253 222 224.5 234.5 c 128,-1,7
 196 247 196 247 161 247 c 0,8,9
 120 247 120 247 89 224.5 c 128,-1,10
 58 202 58 202 41 175 c 1,11,-1
 41 277 l 1,12,13
 63 304 63 304 98 319.5 c 128,-1,14
 133 335 133 335 171 335 c 0,15,16
 212 335 212 335 243 322.5 c 128,-1,17
 274 310 274 310 301.5 295 c 128,-1,18
 329 280 329 280 357.5 267.5 c 128,-1,19
 386 255 386 255 421 255 c 0,20,21
 462 255 462 255 493 277.5 c 128,-1,22
 524 300 524 300 541 327 c 1,23,-1
 541 224 l 1,0,1
EndSplineSet
EndChar

StartChar: exclamdown
Encoding: 161 161 100
Width: 311
GlyphClass: 2
Flags: W
LayerCount: 2
Fore
SplineSet
108 308 m 1,0,-1
 199 308 l 1,1,-1
 217 -186 l 1,2,-1
 93 -186 l 1,3,-1
 108 308 l 1,0,-1
97 512 m 1,4,-1
 209 512 l 1,5,-1
 209 395 l 1,6,-1
 97 395 l 1,7,-1
 97 512 l 1,4,-1
EndSplineSet
EndChar

StartChar: cent
Encoding: 162 162 101
Width: 501
GlyphClass: 2
Flags: W
LayerCount: 2
Fore
SplineSet
383 425 m 1,0,1
 372 429 372 429 361.5 430.5 c 128,-1,2
 351 432 351 432 340 433 c 1,3,-1
 278 86 l 1,4,5
 299 79 299 79 326 79 c 0,6,7
 357 79 357 79 386 88 c 1,8,-1
 394 4 l 1,9,10
 376 -1 376 -1 355.5 -4 c 128,-1,11
 335 -7 335 -7 309 -7 c 0,12,13
 297 -7 297 -7 285 -6 c 128,-1,14
 273 -5 273 -5 262 -3 c 1,15,-1
 240 -130 l 1,16,-1
 190 -130 l 1,17,-1
 215 9 l 1,18,19
 146 36 146 36 108 100 c 128,-1,20
 70 164 70 164 70 255 c 0,21,22
 70 312 70 312 86 360 c 128,-1,23
 102 408 102 408 132.5 443 c 128,-1,24
 163 478 163 478 207 498 c 128,-1,25
 251 518 251 518 306 519 c 1,26,-1
 327 638 l 1,27,-1
 377 638 l 1,28,-1
 355 517 l 1,29,30
 375 516 375 516 390 511 c 1,31,-1
 383 425 l 1,0,1
181 258 m 0,32,33
 181 212 181 212 194 175 c 128,-1,34
 207 138 207 138 233 114 c 1,35,-1
 290 430 l 1,36,37
 237 418 237 418 209 371 c 128,-1,38
 181 324 181 324 181 258 c 0,32,33
EndSplineSet
EndChar

StartChar: sterling
Encoding: 163 163 102
Width: 501
GlyphClass: 2
Flags: W
LayerCount: 2
Fore
SplineSet
453 598 m 1,0,1
 435 606 435 606 411 611.5 c 128,-1,2
 387 617 387 617 364 617 c 0,3,4
 324 617 324 617 297.5 603.5 c 128,-1,5
 271 590 271 590 255.5 566 c 128,-1,6
 240 542 240 542 233.5 508 c 128,-1,7
 227 474 227 474 227 432 c 2,8,-1
 227 402 l 1,9,-1
 384 402 l 1,10,-1
 384 334 l 1,11,-1
 227 334 l 1,12,-1
 227 86 l 1,13,-1
 456 86 l 1,14,-1
 456 0 l 1,15,-1
 50 0 l 1,16,-1
 50 86 l 1,17,-1
 125 86 l 1,18,-1
 125 334 l 1,19,-1
 57 334 l 1,20,-1
 57 402 l 1,21,-1
 124 402 l 1,22,-1
 124 437 l 2,23,24
 124 565 124 565 181.5 635 c 128,-1,25
 239 705 239 705 351 705 c 0,26,27
 380 705 380 705 408.5 701.5 c 128,-1,28
 437 698 437 698 462 690 c 1,29,-1
 453 598 l 1,0,1
EndSplineSet
EndChar

StartChar: currency
Encoding: 164 164 103
Width: 501
GlyphClass: 2
Flags: W
LayerCount: 2
Fore
SplineSet
252 433 m 0,0,1
 217 433 217 433 194 409.5 c 128,-1,2
 171 386 171 386 171 351 c 256,3,4
 171 316 171 316 194 292.5 c 128,-1,5
 217 269 217 269 252 269 c 0,6,7
 286 269 286 269 308.5 292.5 c 128,-1,8
 331 316 331 316 331 351 c 256,9,10
 331 386 331 386 308 409.5 c 128,-1,11
 285 433 285 433 252 433 c 0,0,1
251 510 m 0,12,13
 273 510 273 510 292.5 504.5 c 128,-1,14
 312 499 312 499 329 491 c 1,15,-1
 394 556 l 1,16,-1
 455 495 l 1,17,-1
 391 431 l 1,18,19
 400 414 400 414 405.5 394 c 128,-1,20
 411 374 411 374 411 352 c 0,21,22
 411 310 411 310 392 274 c 1,23,-1
 455 211 l 1,24,-1
 392 148 l 1,25,-1
 329 211 l 1,26,27
 293 192 293 192 252 192 c 0,28,29
 229 192 229 192 209.5 197.5 c 128,-1,30
 190 203 190 203 173 213 c 1,31,-1
 108 148 l 1,32,-1
 47 209 l 1,33,-1
 112 274 l 1,34,35
 92 309 92 309 92 352 c 0,36,37
 92 393 92 393 111 428 c 1,38,-1
 47 493 l 1,39,-1
 110 556 l 1,40,-1
 175 491 l 1,41,42
 208 510 208 510 251 510 c 0,12,13
EndSplineSet
EndChar

StartChar: yen
Encoding: 165 165 104
Width: 501
GlyphClass: 2
Flags: W
LayerCount: 2
Fore
SplineSet
125 698 m 1,0,1
 155 625 155 625 176 574 c 128,-1,2
 197 523 197 523 211.5 486.5 c 128,-1,3
 226 450 226 450 235 426 c 128,-1,4
 244 402 244 402 251 383 c 1,5,-1
 253 383 l 1,6,7
 260 402 260 402 269.5 426 c 128,-1,8
 279 450 279 450 294 486.5 c 128,-1,9
 309 523 309 523 330.5 574 c 128,-1,10
 352 625 352 625 382 698 c 1,11,-1
 492 698 l 1,12,-1
 324 353 l 1,13,-1
 439 353 l 1,14,-1
 439 288 l 1,15,-1
 302 288 l 1,16,-1
 302 227 l 1,17,-1
 439 227 l 1,18,-1
 439 162 l 1,19,-1
 302 162 l 1,20,-1
 302 0 l 1,21,-1
 198 0 l 1,22,-1
 198 162 l 1,23,-1
 62 162 l 1,24,-1
 62 227 l 1,25,-1
 198 227 l 1,26,-1
 198 288 l 1,27,-1
 62 288 l 1,28,-1
 62 353 l 1,29,-1
 177 353 l 1,30,-1
 10 698 l 1,31,-1
 125 698 l 1,32,-1
 125 698 l 1,0,1
EndSplineSet
EndChar

StartChar: brokenbar
Encoding: 166 166 105
Width: 270
GlyphClass: 2
Flags: W
LayerCount: 2
Fore
SplineSet
89 786 m 1,0,-1
 181 786 l 1,1,-1
 181 394 l 1,2,-1
 89 394 l 1,3,-1
 89 786 l 1,0,-1
89 178 m 1,4,-1
 181 178 l 1,5,-1
 181 -214 l 1,6,-1
 89 -214 l 1,7,-1
 89 178 l 1,4,-1
EndSplineSet
EndChar

StartChar: section
Encoding: 167 167 106
Width: 501
GlyphClass: 2
Flags: W
LayerCount: 2
Fore
SplineSet
388 606 m 1,0,1
 359 620 359 620 333 626 c 128,-1,2
 307 632 307 632 279 632 c 0,3,4
 241 632 241 632 214 611.5 c 128,-1,5
 187 591 187 591 187 552 c 0,6,7
 187 521 187 521 209 500.5 c 128,-1,8
 231 480 231 480 276 457 c 2,9,-1
 292 449 l 2,10,11
 326 432 326 432 352 414.5 c 128,-1,12
 378 397 378 397 396 377.5 c 128,-1,13
 414 358 414 358 423.5 334.5 c 128,-1,14
 433 311 433 311 433 283 c 0,15,16
 433 240 433 240 413.5 208 c 128,-1,17
 394 176 394 176 362 156 c 1,18,19
 390 136 390 136 405.5 107 c 128,-1,20
 421 78 421 78 421 41 c 0,21,22
 421 0 421 0 406 -31.5 c 128,-1,23
 391 -63 391 -63 365 -84 c 128,-1,24
 339 -105 339 -105 304.5 -116 c 128,-1,25
 270 -127 270 -127 230 -127 c 0,26,27
 158 -127 158 -127 85 -99 c 1,28,-1
 92 -11 l 1,29,30
 127 -28 127 -28 162 -36.5 c 128,-1,31
 197 -45 197 -45 230 -45 c 0,32,33
 269 -45 269 -45 297 -26.5 c 128,-1,34
 325 -8 325 -8 325 36 c 0,35,36
 325 62 325 62 303.5 84 c 128,-1,37
 282 106 282 106 235 131 c 2,38,-1
 194 153 l 2,39,40
 162 170 162 170 139.5 185 c 128,-1,41
 117 200 117 200 102.5 217.5 c 128,-1,42
 88 235 88 235 81 256 c 128,-1,43
 74 277 74 277 74 306 c 0,44,45
 74 347 74 347 95 380 c 128,-1,46
 116 413 116 413 148 435 c 1,47,48
 122 456 122 456 107.5 483 c 128,-1,49
 93 510 93 510 93 549 c 256,50,51
 93 588 93 588 107.5 618 c 128,-1,52
 122 648 122 648 147 669 c 128,-1,53
 172 690 172 690 205.5 700.5 c 128,-1,54
 239 711 239 711 277 711 c 0,55,56
 309 711 309 711 339 707 c 128,-1,57
 369 703 369 703 396 692 c 1,58,-1
 388 606 l 1,0,1
203 400 m 1,59,60
 183 386 183 386 171 364 c 128,-1,61
 159 342 159 342 159 319 c 0,62,63
 159 302 159 302 164 289.5 c 128,-1,64
 169 277 169 277 179.5 266 c 128,-1,65
 190 255 190 255 207 244 c 128,-1,66
 224 233 224 233 248 221 c 2,67,-1
 306 191 l 1,68,69
 326 205 326 205 337.5 224.5 c 128,-1,70
 349 244 349 244 349 267 c 0,71,72
 349 299 349 299 326 323 c 128,-1,73
 303 347 303 347 252 374 c 2,74,-1
 203 400 l 1,59,60
EndSplineSet
EndChar

StartChar: dieresis
Encoding: 168 168 107
Width: 400
GlyphClass: 2
Flags: W
LayerCount: 2
Fore
SplineSet
336 599 m 1,0,-1
 238 599 l 1,1,-1
 238 707 l 1,2,-1
 336 707 l 1,3,-1
 336 599 l 1,0,-1
162 599 m 1,4,-1
 64 599 l 1,5,-1
 64 707 l 1,6,-1
 162 707 l 1,7,-1
 162 599 l 1,4,-1
EndSplineSet
EndChar

StartChar: copyright
Encoding: 169 169 108
Width: 900
GlyphClass: 2
Flags: W
LayerCount: 2
Fore
SplineSet
450 661 m 256,0,1
 384 661 384 661 327.5 636.5 c 128,-1,2
 271 612 271 612 229.5 569.5 c 128,-1,3
 188 527 188 527 164 470.5 c 128,-1,4
 140 414 140 414 140 350 c 0,5,6
 140 285 140 285 164 228.5 c 128,-1,7
 188 172 188 172 229.5 129 c 128,-1,8
 271 86 271 86 327.5 61.5 c 128,-1,9
 384 37 384 37 450 37 c 256,10,11
 516 37 516 37 572.5 61.5 c 128,-1,12
 629 86 629 86 670.5 129 c 128,-1,13
 712 172 712 172 736 229.5 c 128,-1,14
 760 287 760 287 760 352 c 0,15,16
 760 415 760 415 736 471 c 128,-1,17
 712 527 712 527 670.5 569.5 c 128,-1,18
 629 612 629 612 572.5 636.5 c 128,-1,19
 516 661 516 661 450 661 c 256,0,1
450 701 m 256,20,21
 523 701 523 701 587 674 c 128,-1,22
 651 647 651 647 699 599.5 c 128,-1,23
 747 552 747 552 774.5 488 c 128,-1,24
 802 424 802 424 802 350 c 256,25,26
 802 276 802 276 774.5 212 c 128,-1,27
 747 148 747 148 699 100 c 128,-1,28
 651 52 651 52 587 24.5 c 128,-1,29
 523 -3 523 -3 450 -3 c 256,30,31
 377 -3 377 -3 313 24.5 c 128,-1,32
 249 52 249 52 201 100 c 128,-1,33
 153 148 153 148 125.5 213 c 128,-1,34
 98 278 98 278 98 352 c 0,35,36
 98 425 98 425 125.5 488.5 c 128,-1,37
 153 552 153 552 201 599.5 c 128,-1,38
 249 647 249 647 313 674 c 128,-1,39
 377 701 377 701 450 701 c 256,20,21
569 480 m 1,40,41
 528 502 528 502 480 502 c 0,42,43
 448 502 448 502 421 491 c 128,-1,44
 394 480 394 480 374.5 461 c 128,-1,45
 355 442 355 442 344.5 415 c 128,-1,46
 334 388 334 388 334 357 c 0,47,48
 334 323 334 323 345.5 295.5 c 128,-1,49
 357 268 357 268 377 248.5 c 128,-1,50
 397 229 397 229 424 218 c 128,-1,51
 451 207 451 207 483 207 c 0,52,53
 505 207 505 207 526.5 211 c 128,-1,54
 548 215 548 215 573 227 c 1,55,-1
 578 160 l 1,56,57
 557 151 557 151 531 146.5 c 128,-1,58
 505 142 505 142 482 142 c 0,59,60
 433 142 433 142 391.5 156 c 128,-1,61
 350 170 350 170 320 197.5 c 128,-1,62
 290 225 290 225 273.5 265 c 128,-1,63
 257 305 257 305 257 357 c 0,64,65
 257 403 257 403 274 441.5 c 128,-1,66
 291 480 291 480 320.5 507.5 c 128,-1,67
 350 535 350 535 390.5 550.5 c 128,-1,68
 431 566 431 566 478 566 c 0,69,70
 504 566 504 566 528.5 562.5 c 128,-1,71
 553 559 553 559 575 550 c 1,72,-1
 569 480 l 1,40,41
EndSplineSet
EndChar

StartChar: ordfeminine
Encoding: 170 170 109
Width: 381
GlyphClass: 2
Flags: W
LayerCount: 2
Fore
SplineSet
258 486 m 1,0,1
 249 488 249 488 241.5 488.5 c 128,-1,2
 234 489 234 489 224 489 c 0,3,4
 115 489 115 489 115 416 c 0,5,6
 115 389 115 389 131 374 c 128,-1,7
 147 359 147 359 174 359 c 0,8,9
 212 359 212 359 235 391.5 c 128,-1,10
 258 424 258 424 258 486 c 1,0,1
264 369 m 1,11,12
 228 298 228 298 154 298 c 0,13,14
 100 298 100 298 68 329 c 128,-1,15
 36 360 36 360 36 415 c 0,16,17
 36 478 36 478 81 509.5 c 128,-1,18
 126 541 126 541 211 541 c 0,19,20
 222 541 222 541 233 541 c 128,-1,21
 244 541 244 541 257 539 c 1,22,23
 257 587 257 587 239.5 610.5 c 128,-1,24
 222 634 222 634 177 634 c 0,25,26
 151 634 151 634 124 625.5 c 128,-1,27
 97 617 97 617 74 600 c 1,28,-1
 71 671 l 1,29,30
 121 699 121 699 188 699 c 0,31,32
 268 699 268 699 301 656.5 c 128,-1,33
 334 614 334 614 334 541 c 0,34,35
 334 527 334 527 333.5 510.5 c 128,-1,36
 333 494 333 494 333 478 c 128,-1,37
 333 462 333 462 332.5 448 c 128,-1,38
 332 434 332 434 332 426 c 2,39,-1
 332 400 l 2,40,41
 332 374 332 374 333 349 c 128,-1,42
 334 324 334 324 336 304 c 1,43,-1
 265 304 l 1,44,45
 263 310 263 310 263 318.5 c 128,-1,46
 263 327 263 327 263 335 c 0,47,48
 263 342 263 342 263 350 c 128,-1,49
 263 358 263 358 264 369 c 1,11,12
EndSplineSet
EndChar

StartChar: guillemotleft
Encoding: 171 171 110
Width: 447
GlyphClass: 2
Flags: W
LayerCount: 2
Fore
SplineSet
309 252 m 1,0,-1
 399 51 l 1,1,-1
 317 51 l 1,2,-1
 217 252 l 1,3,-1
 314 452 l 1,4,-1
 397 452 l 1,5,-1
 309 252 l 1,0,-1
140 252 m 1,6,-1
 230 51 l 1,7,-1
 148 51 l 1,8,-1
 47 252 l 1,9,-1
 145 452 l 1,10,-1
 228 452 l 1,11,-1
 140 252 l 1,6,-1
EndSplineSet
EndChar

StartChar: logicalnot
Encoding: 172 172 111
Width: 584
GlyphClass: 2
Flags: W
LayerCount: 2
Fore
SplineSet
445 325 m 1,0,-1
 30 325 l 1,1,-1
 30 412 l 1,2,-1
 537 412 l 1,3,-1
 537 98 l 1,4,-1
 445 98 l 1,5,-1
 445 325 l 1,0,-1
EndSplineSet
EndChar

StartChar: uni00AD
Encoding: 173 173 112
Width: 305
GlyphClass: 2
Flags: W
LayerCount: 2
Fore
SplineSet
270 222 m 1,0,-1
 36 222 l 1,1,-1
 36 311 l 1,2,-1
 270 311 l 1,3,-1
 270 222 l 1,0,-1
EndSplineSet
EndChar

StartChar: registered
Encoding: 174 174 113
Width: 500
GlyphClass: 2
Flags: W
LayerCount: 2
Fore
SplineSet
254 692 m 0,0,1
 289 692 289 692 320.5 678 c 128,-1,2
 352 664 352 664 375.5 640 c 128,-1,3
 399 616 399 616 412.5 584.5 c 128,-1,4
 426 553 426 553 426 517 c 0,5,6
 426 480 426 480 412.5 447.5 c 128,-1,7
 399 415 399 415 375 391 c 128,-1,8
 351 367 351 367 319 353.5 c 128,-1,9
 287 340 287 340 251 340 c 0,10,11
 214 340 214 340 181.5 354 c 128,-1,12
 149 368 149 368 125 392 c 128,-1,13
 101 416 101 416 87.5 448.5 c 128,-1,14
 74 481 74 481 74 518 c 0,15,16
 74 554 74 554 88 586 c 128,-1,17
 102 618 102 618 126 641.5 c 128,-1,18
 150 665 150 665 183 678.5 c 128,-1,19
 216 692 216 692 254 692 c 0,0,1
182 622 m 1,20,-1
 239 622 l 2,21,22
 276 622 276 622 298.5 610.5 c 128,-1,23
 321 599 321 599 321 567 c 0,24,25
 321 550 321 550 310 537 c 128,-1,26
 299 524 299 524 278 520 c 1,27,-1
 278 518 l 1,28,29
 289 514 289 514 295 507 c 128,-1,30
 301 500 301 500 305 491 c 2,31,-1
 339 420 l 1,32,-1
 292 420 l 1,33,-1
 266 480 l 2,34,35
 261 493 261 493 253 498.5 c 128,-1,36
 245 504 245 504 228 504 c 2,37,-1
 223 504 l 1,38,-1
 223 420 l 1,39,-1
 182 420 l 1,40,-1
 182 622 l 1,20,-1
223 537 m 1,41,-1
 232 537 l 2,42,43
 279 537 279 537 279 562 c 0,44,45
 279 578 279 578 267 582.5 c 128,-1,46
 255 587 255 587 232 587 c 2,47,-1
 223 587 l 1,48,-1
 223 537 l 1,41,-1
248 663 m 0,49,50
 218 663 218 663 192 651.5 c 128,-1,51
 166 640 166 640 146 620 c 128,-1,52
 126 600 126 600 114.5 573.5 c 128,-1,53
 103 547 103 547 103 517 c 0,54,55
 103 486 103 486 114.5 459 c 128,-1,56
 126 432 126 432 146 412 c 128,-1,57
 166 392 166 392 193 380.5 c 128,-1,58
 220 369 220 369 250 369 c 256,59,60
 280 369 280 369 307 380.5 c 128,-1,61
 334 392 334 392 354 412.5 c 128,-1,62
 374 433 374 433 385.5 460 c 128,-1,63
 397 487 397 487 397 518 c 0,64,65
 397 548 397 548 385 574.5 c 128,-1,66
 373 601 373 601 353 620.5 c 128,-1,67
 333 640 333 640 306 651.5 c 128,-1,68
 279 663 279 663 248 663 c 0,49,50
EndSplineSet
EndChar

StartChar: macron
Encoding: 175 175 114
Width: 400
GlyphClass: 2
Flags: W
LayerCount: 2
Fore
SplineSet
333 617 m 1,0,-1
 68 617 l 1,1,-1
 68 684 l 1,2,-1
 333 684 l 1,3,-1
 333 617 l 1,0,-1
EndSplineSet
EndChar

StartChar: degree
Encoding: 176 176 115
Width: 382
GlyphClass: 2
Flags: W
LayerCount: 2
Fore
SplineSet
194 711 m 0,0,1
 226 711 226 711 254.5 698 c 128,-1,2
 283 685 283 685 304.5 663 c 128,-1,3
 326 641 326 641 338.5 612 c 128,-1,4
 351 583 351 583 351 550 c 256,5,6
 351 517 351 517 338.5 487.5 c 128,-1,7
 326 458 326 458 304.5 436 c 128,-1,8
 283 414 283 414 253.5 401.5 c 128,-1,9
 224 389 224 389 191 389 c 0,10,11
 157 389 157 389 128 401.5 c 128,-1,12
 99 414 99 414 77.5 436 c 128,-1,13
 56 458 56 458 43.5 487.5 c 128,-1,14
 31 517 31 517 31 551 c 0,15,16
 31 584 31 584 43.5 613 c 128,-1,17
 56 642 56 642 78 664 c 128,-1,18
 100 686 100 686 130 698.5 c 128,-1,19
 160 711 160 711 194 711 c 0,0,1
190 628 m 0,20,21
 158 628 158 628 137 605.5 c 128,-1,22
 116 583 116 583 116 550 c 0,23,24
 116 516 116 516 137 493.5 c 128,-1,25
 158 471 158 471 191 471 c 256,26,27
 224 471 224 471 245 493.5 c 128,-1,28
 266 516 266 516 266 551 c 0,29,30
 266 584 266 584 244.5 606 c 128,-1,31
 223 628 223 628 190 628 c 0,20,21
EndSplineSet
EndChar

StartChar: plusminus
Encoding: 177 177 116
Width: 584
GlyphClass: 2
Flags: W
LayerCount: 2
Fore
SplineSet
339 508 m 1,0,-1
 339 371 l 1,1,-1
 546 371 l 1,2,-1
 546 283 l 1,3,-1
 339 283 l 1,4,-1
 339 147 l 1,5,-1
 246 147 l 1,6,-1
 246 283 l 1,7,-1
 37 283 l 1,8,-1
 37 371 l 1,9,-1
 246 371 l 1,10,-1
 246 508 l 1,11,-1
 339 508 l 1,0,-1
546 88 m 1,12,-1
 546 0 l 1,13,-1
 37 0 l 1,14,-1
 37 88 l 1,15,-1
 546 88 l 1,12,-1
EndSplineSet
EndChar

StartChar: acute
Encoding: 180 180 119
Width: 400
GlyphClass: 2
Flags: W
LayerCount: 2
Fore
SplineSet
208 579 m 1,0,-1
 144 579 l 1,1,-1
 224 756 l 1,2,-1
 334 756 l 1,3,-1
 208 579 l 1,0,-1
EndSplineSet
EndChar

StartChar: uni00B5
Encoding: 181 181 120
Width: 542
GlyphClass: 2
Flags: W
LayerCount: 2
Fore
SplineSet
360 92 m 1,0,1
 340 36 340 36 308.5 12 c 128,-1,2
 277 -12 277 -12 239 -12 c 0,3,4
 219 -12 219 -12 201.5 -6.5 c 128,-1,5
 184 -1 184 -1 170 8 c 1,6,-1
 167 6 l 1,7,8
 168 -4 168 -4 168.5 -21 c 128,-1,9
 169 -38 169 -38 169.5 -58 c 128,-1,10
 170 -78 170 -78 170.5 -100 c 128,-1,11
 171 -122 171 -122 171 -141 c 2,12,-1
 171 -211 l 1,13,-1
 67 -211 l 1,14,-1
 67 512 l 1,15,-1
 171 512 l 1,16,-1
 171 257 l 2,17,18
 171 220 171 220 172.5 187 c 128,-1,19
 174 154 174 154 182 129 c 128,-1,20
 190 104 190 104 206.5 89.5 c 128,-1,21
 223 75 223 75 252 75 c 0,22,23
 279 75 279 75 297 91 c 128,-1,24
 315 107 315 107 326 134.5 c 128,-1,25
 337 162 337 162 342 198 c 128,-1,26
 347 234 347 234 347 274 c 2,27,-1
 347 512 l 1,28,-1
 452 512 l 1,29,-1
 452 132 l 2,30,31
 452 108 452 108 457.5 94.5 c 128,-1,32
 463 81 463 81 481 81 c 0,33,34
 492 81 492 81 500 84 c 1,35,-1
 503 2 l 1,36,37
 493 -3 493 -3 478.5 -5 c 128,-1,38
 464 -7 464 -7 453 -7 c 0,39,40
 408 -7 408 -7 387.5 15.5 c 128,-1,41
 367 38 367 38 362 92 c 1,42,-1
 360 92 l 1,0,1
EndSplineSet
EndChar

StartChar: paragraph
Encoding: 182 182 121
Width: 553
GlyphClass: 2
Flags: W
LayerCount: 2
Fore
SplineSet
457 622 m 1,0,-1
 457 -200 l 1,1,-1
 378 -200 l 1,2,-1
 378 622 l 1,3,-1
 285 622 l 1,4,-1
 285 -200 l 1,5,-1
 207 -200 l 1,6,-1
 207 236 l 1,7,8
 127 244 127 244 82 302.5 c 128,-1,9
 37 361 37 361 37 458 c 0,10,11
 37 513 37 513 52.5 557.5 c 128,-1,12
 68 602 68 602 96.5 633 c 128,-1,13
 125 664 125 664 165.5 681 c 128,-1,14
 206 698 206 698 256 698 c 2,15,-1
 503 698 l 1,16,-1
 503 622 l 1,17,-1
 457 622 l 1,0,-1
EndSplineSet
EndChar

StartChar: periodcentered
Encoding: 183 183 122
Width: 236
GlyphClass: 2
Flags: W
LayerCount: 2
Fore
SplineSet
173 327 m 1,0,-1
 173 206 l 1,1,-1
 64 206 l 1,2,-1
 64 327 l 1,3,-1
 173 327 l 1,0,-1
EndSplineSet
EndChar

StartChar: cedilla
Encoding: 184 184 123
Width: 400
GlyphClass: 2
Flags: W
LayerCount: 2
Fore
SplineSet
176 -64 m 1,0,1
 181 -62 181 -62 186.5 -62 c 128,-1,2
 192 -62 192 -62 199 -62 c 0,3,4
 233 -62 233 -62 258.5 -80 c 128,-1,5
 284 -98 284 -98 284 -137 c 0,6,7
 284 -185 284 -185 251.5 -207.5 c 128,-1,8
 219 -230 219 -230 172 -230 c 0,9,10
 140 -230 140 -230 115 -224 c 1,11,-1
 119 -181 l 1,12,13
 142 -185 142 -185 162 -185 c 0,14,15
 184 -185 184 -185 201.5 -176 c 128,-1,16
 219 -167 219 -167 219 -144 c 0,17,18
 219 -124 219 -124 204.5 -114.5 c 128,-1,19
 190 -105 190 -105 167 -105 c 0,20,21
 159 -105 159 -105 150 -106 c 128,-1,22
 141 -107 141 -107 127 -111 c 1,23,-1
 138 10 l 1,24,-1
 187 10 l 1,25,-1
 176 -64 l 1,0,1
EndSplineSet
EndChar

StartChar: ordmasculine
Encoding: 186 186 125
Width: 414
GlyphClass: 2
Flags: W
LayerCount: 2
Fore
SplineSet
208 700 m 0,0,1
 245 700 245 700 275 685 c 128,-1,2
 305 670 305 670 327 643 c 128,-1,3
 349 616 349 616 361 578.5 c 128,-1,4
 373 541 373 541 373 496 c 256,5,6
 373 451 373 451 361.5 414 c 128,-1,7
 350 377 350 377 328 351 c 128,-1,8
 306 325 306 325 275.5 310.5 c 128,-1,9
 245 296 245 296 208 296 c 256,10,11
 171 296 171 296 140 310 c 128,-1,12
 109 324 109 324 87 350.5 c 128,-1,13
 65 377 65 377 53 413.5 c 128,-1,14
 41 450 41 450 41 495 c 0,15,16
 41 541 41 541 52.5 579 c 128,-1,17
 64 617 64 617 86 644 c 128,-1,18
 108 671 108 671 138.5 685.5 c 128,-1,19
 169 700 169 700 208 700 c 0,0,1
208 633 m 256,20,21
 167 633 167 633 144.5 595.5 c 128,-1,22
 122 558 122 558 122 495 c 0,23,24
 122 435 122 435 144.5 399 c 128,-1,25
 167 363 167 363 209 363 c 0,26,27
 248 363 248 363 270 399.5 c 128,-1,28
 292 436 292 436 292 496 c 0,29,30
 292 558 292 558 270.5 595.5 c 128,-1,31
 249 633 249 633 208 633 c 256,20,21
EndSplineSet
EndChar

StartChar: guillemotright
Encoding: 187 187 126
Width: 447
GlyphClass: 2
Flags: W
LayerCount: 2
Fore
SplineSet
137 251 m 1,0,-1
 47 452 l 1,1,-1
 129 452 l 1,2,-1
 230 251 l 1,3,-1
 133 51 l 1,4,-1
 49 51 l 1,5,-1
 137 251 l 1,0,-1
307 251 m 1,6,-1
 217 452 l 1,7,-1
 299 452 l 1,8,-1
 399 251 l 1,9,-1
 302 51 l 1,10,-1
 219 51 l 1,11,-1
 307 251 l 1,6,-1
EndSplineSet
EndChar

StartChar: questiondown
Encoding: 191 191 130
Width: 451
GlyphClass: 2
Flags: W
LayerCount: 2
Fore
SplineSet
381 -172 m 1,0,1
 346 -186 346 -186 312 -192 c 128,-1,2
 278 -198 278 -198 243 -198 c 0,3,4
 197 -198 197 -198 159.5 -187.5 c 128,-1,5
 122 -177 122 -177 95 -155 c 128,-1,6
 68 -133 68 -133 53 -100.5 c 128,-1,7
 38 -68 38 -68 38 -24 c 0,8,9
 38 -1 38 -1 42.5 20 c 128,-1,10
 47 41 47 41 57.5 62.5 c 128,-1,11
 68 84 68 84 85 107.5 c 128,-1,12
 102 131 102 131 126 160 c 0,13,14
 145 182 145 182 157.5 201.5 c 128,-1,15
 170 221 170 221 177.5 238.5 c 128,-1,16
 185 256 185 256 187.5 273 c 128,-1,17
 190 290 190 290 190 308 c 2,18,-1
 190 318 l 1,19,-1
 284 318 l 1,20,-1
 284 308 l 2,21,22
 284 281 284 281 282 259.5 c 128,-1,23
 280 238 280 238 272 217 c 128,-1,24
 264 196 264 196 248.5 172.5 c 128,-1,25
 233 149 233 149 207 116 c 0,26,27
 177 78 177 78 161.5 48.5 c 128,-1,28
 146 19 146 19 146 -13 c 0,29,30
 146 -62 146 -62 176.5 -85 c 128,-1,31
 207 -108 207 -108 258 -108 c 0,32,33
 290 -108 290 -108 315.5 -101.5 c 128,-1,34
 341 -95 341 -95 373 -81 c 1,35,-1
 381 -172 l 1,0,1
182 512 m 1,36,-1
 292 512 l 1,37,-1
 292 397 l 1,38,-1
 182 397 l 1,39,-1
 182 512 l 1,36,-1
EndSplineSet
EndChar

StartChar: AE
Encoding: 198 198 137
Width: 753
GlyphClass: 2
Flags: W
LayerCount: 2
Fore
SplineSet
705 698 m 1,0,-1
 705 609 l 1,1,-1
 475 609 l 1,2,-1
 490 403 l 1,3,-1
 693 403 l 1,4,-1
 693 315 l 1,5,-1
 497 315 l 1,6,-1
 511 89 l 1,7,-1
 713 89 l 1,8,-1
 713 0 l 1,9,-1
 414 0 l 1,10,-1
 402 176 l 1,11,-1
 187 176 l 1,12,-1
 112 0 l 1,13,-1
 2 0 l 1,14,-1
 312 698 l 1,15,-1
 705 698 l 1,0,-1
396 263 m 1,16,17
 389 356 389 356 384 443 c 128,-1,18
 379 530 379 530 375 624 c 1,19,-1
 373 624 l 1,20,21
 367 607 367 607 357.5 583.5 c 128,-1,22
 348 560 348 560 331 520 c 128,-1,23
 314 480 314 480 288 418 c 128,-1,24
 262 356 262 356 222 263 c 1,25,-1
 396 263 l 1,16,17
EndSplineSet
EndChar

StartChar: Ccedilla
Encoding: 199 199 138
Width: 506
GlyphClass: 2
Flags: W
LayerCount: 2
Fore
SplineSet
462 598 m 1,0,1
 441 606 441 606 418 610 c 128,-1,2
 395 614 395 614 374 614 c 0,3,4
 320 614 320 614 280 592.5 c 128,-1,5
 240 571 240 571 213.5 534.5 c 128,-1,6
 187 498 187 498 174 450.5 c 128,-1,7
 161 403 161 403 161 351 c 0,8,9
 161 292 161 292 176 243 c 128,-1,10
 191 194 191 194 219 159 c 128,-1,11
 247 124 247 124 286.5 105 c 128,-1,12
 326 86 326 86 374 86 c 0,13,14
 397 86 397 86 419.5 89.5 c 128,-1,15
 442 93 442 93 465 102 c 1,16,-1
 472 5 l 1,17,18
 423 -8 423 -8 370 -8 c 0,19,20
 365 -8 365 -8 361 -7.5 c 128,-1,21
 357 -7 357 -7 353 -7 c 1,22,-1
 345 -64 l 1,23,24
 350 -62 350 -62 356 -62 c 128,-1,25
 362 -62 362 -62 368 -62 c 0,26,27
 402 -62 402 -62 428 -80 c 128,-1,28
 454 -98 454 -98 454 -137 c 0,29,30
 454 -185 454 -185 421 -207.5 c 128,-1,31
 388 -230 388 -230 342 -230 c 0,32,33
 311 -230 311 -230 284 -224 c 1,34,-1
 289 -181 l 1,35,36
 301 -183 301 -183 311 -184 c 128,-1,37
 321 -185 321 -185 331 -185 c 0,38,39
 354 -185 354 -185 371 -176 c 128,-1,40
 388 -167 388 -167 388 -144 c 0,41,42
 388 -124 388 -124 373.5 -114.5 c 128,-1,43
 359 -105 359 -105 337 -105 c 0,44,45
 329 -105 329 -105 320 -106 c 128,-1,46
 311 -107 311 -107 297 -111 c 1,47,-1
 307 -3 l 1,48,49
 246 7 246 7 197.5 36.5 c 128,-1,50
 149 66 149 66 115 112 c 128,-1,51
 81 158 81 158 63 219 c 128,-1,52
 45 280 45 280 45 353 c 0,53,54
 45 431 45 431 68 496 c 128,-1,55
 91 561 91 561 133 607.5 c 128,-1,56
 175 654 175 654 234.5 680 c 128,-1,57
 294 706 294 706 368 706 c 0,58,59
 395 706 395 706 419 703.5 c 128,-1,60
 443 701 443 701 469 694 c 1,61,-1
 462 598 l 1,0,1
EndSplineSet
EndChar

StartChar: Eth
Encoding: 208 208 147
Width: 614
GlyphClass: 2
Flags: W
LayerCount: 2
Fore
SplineSet
211 698 m 2,0,1
 296 698 296 698 363 678 c 128,-1,2
 430 658 430 658 475.5 616 c 128,-1,3
 521 574 521 574 545 508 c 128,-1,4
 569 442 569 442 569 350 c 0,5,6
 569 262 569 262 544 196.5 c 128,-1,7
 519 131 519 131 472 87.5 c 128,-1,8
 425 44 425 44 357 22 c 128,-1,9
 289 0 289 0 203 0 c 2,10,-1
 73 0 l 1,11,-1
 73 330 l 1,12,-1
 21 330 l 1,13,-1
 21 389 l 1,14,-1
 73 389 l 1,15,-1
 73 698 l 1,16,-1
 211 698 l 2,0,1
182 389 m 1,17,-1
 296 389 l 1,18,-1
 296 330 l 1,19,-1
 182 330 l 1,20,-1
 182 87 l 1,21,-1
 205 87 l 2,22,23
 325 87 325 87 389.5 149.5 c 128,-1,24
 454 212 454 212 454 353 c 0,25,26
 454 484 454 484 395.5 548 c 128,-1,27
 337 612 337 612 212 612 c 2,28,-1
 182 612 l 1,29,-1
 182 389 l 1,17,-1
EndSplineSet
EndChar

StartChar: multiply
Encoding: 215 215 154
Width: 584
GlyphClass: 2
Flags: W
LayerCount: 2
Fore
SplineSet
108 503 m 1,0,-1
 292 319 l 1,1,-1
 476 503 l 1,2,-1
 542 437 l 1,3,-1
 357 253 l 1,4,-1
 542 69 l 1,5,-1
 475 3 l 1,6,-1
 291 187 l 1,7,-1
 107 3 l 1,8,-1
 41 68 l 1,9,-1
 225 252 l 1,10,-1
 41 436 l 1,11,-1
 108 503 l 1,0,-1
EndSplineSet
EndChar

StartChar: Oslash
Encoding: 216 216 155
Width: 632
GlyphClass: 2
Flags: W
LayerCount: 2
Fore
SplineSet
321 710 m 0,0,1
 403 710 403 710 460 668 c 1,2,-1
 497 733 l 1,3,-1
 545 700 l 1,4,-1
 504 628 l 1,5,6
 545 581 545 581 566 511 c 128,-1,7
 587 441 587 441 587 352 c 0,8,9
 587 267 587 267 569.5 199.5 c 128,-1,10
 552 132 552 132 517.5 84.5 c 128,-1,11
 483 37 483 37 432.5 12 c 128,-1,12
 382 -13 382 -13 316 -13 c 0,13,14
 271 -13 271 -13 234 -1 c 128,-1,15
 197 11 197 11 167 33 c 1,16,-1
 131 -31 l 1,17,-1
 83 3 l 1,18,-1
 123 74 l 1,19,20
 84 121 84 121 64.5 189.5 c 128,-1,21
 45 258 45 258 45 346 c 0,22,23
 45 429 45 429 63 496.5 c 128,-1,24
 81 564 81 564 116.5 611.5 c 128,-1,25
 152 659 152 659 203.5 684.5 c 128,-1,26
 255 710 255 710 321 710 c 0,0,1
474 347 m 0,27,28
 474 456 474 456 444 524 c 1,29,-1
 218 123 l 1,30,31
 237 101 237 101 261.5 89 c 128,-1,32
 286 77 286 77 316 77 c 0,33,34
 353 77 353 77 382.5 96.5 c 128,-1,35
 412 116 412 116 432.5 151.5 c 128,-1,36
 453 187 453 187 463.5 236.5 c 128,-1,37
 474 286 474 286 474 347 c 0,27,28
316 622 m 0,38,39
 278 622 278 622 248.5 602.5 c 128,-1,40
 219 583 219 583 198.5 547.5 c 128,-1,41
 178 512 178 512 167 461.5 c 128,-1,42
 156 411 156 411 156 350 c 0,43,44
 156 249 156 249 184 181 c 1,45,-1
 410 581 l 1,46,47
 371 622 371 622 316 622 c 0,38,39
EndSplineSet
EndChar

StartChar: Thorn
Encoding: 222 222 161
Width: 503
GlyphClass: 2
Flags: W
LayerCount: 2
Fore
SplineSet
178 698 m 1,0,-1
 178 585 l 1,1,-1
 210 585 l 2,2,3
 264 585 264 585 311.5 576.5 c 128,-1,4
 359 568 359 568 394.5 545 c 128,-1,5
 430 522 430 522 450.5 482 c 128,-1,6
 471 442 471 442 471 380 c 0,7,8
 471 276 471 276 403.5 222 c 128,-1,9
 336 168 336 168 211 168 c 2,10,-1
 181 168 l 1,11,-1
 181 0 l 1,12,-1
 72 0 l 1,13,-1
 72 698 l 1,14,-1
 178 698 l 1,0,-1
178 254 m 1,15,-1
 201 254 l 2,16,17
 233 254 233 254 262 259.5 c 128,-1,18
 291 265 291 265 312.5 279 c 128,-1,19
 334 293 334 293 347 317.5 c 128,-1,20
 360 342 360 342 360 380 c 0,21,22
 360 414 360 414 348.5 437 c 128,-1,23
 337 460 337 460 316 473.5 c 128,-1,24
 295 487 295 487 266.5 492.5 c 128,-1,25
 238 498 238 498 205 498 c 2,26,-1
 178 498 l 1,27,-1
 178 254 l 1,15,-1
EndSplineSet
EndChar

StartChar: germandbls
Encoding: 223 223 162
Width: 505
GlyphClass: 2
Flags: W
LayerCount: 2
Fore
SplineSet
56 511 m 2,0,1
 56 579 56 579 70.5 626.5 c 128,-1,2
 85 674 85 674 112 703.5 c 128,-1,3
 139 733 139 733 177 746.5 c 128,-1,4
 215 760 215 760 261 760 c 256,5,6
 307 760 307 760 342 746 c 128,-1,7
 377 732 377 732 401 707 c 128,-1,8
 425 682 425 682 437 647.5 c 128,-1,9
 449 613 449 613 449 572 c 0,10,11
 449 501 449 501 417.5 457.5 c 128,-1,12
 386 414 386 414 329 400 c 1,13,-1
 329 397 l 1,14,15
 397 386 397 386 434 337 c 128,-1,16
 471 288 471 288 471 209 c 0,17,18
 471 159 471 159 457.5 119 c 128,-1,19
 444 79 444 79 418.5 50.5 c 128,-1,20
 393 22 393 22 357.5 7 c 128,-1,21
 322 -8 322 -8 277 -8 c 0,22,23
 260 -8 260 -8 243 -6.5 c 128,-1,24
 226 -5 226 -5 209 0 c 1,25,-1
 214 84 l 1,26,27
 226 79 226 79 238 77 c 128,-1,28
 250 75 250 75 261 75 c 0,29,30
 313 75 313 75 340 112.5 c 128,-1,31
 367 150 367 150 367 213 c 0,32,33
 367 279 367 279 332.5 314.5 c 128,-1,34
 298 350 298 350 236 350 c 2,35,-1
 227 350 l 1,36,-1
 227 436 l 1,37,38
 286 437 286 437 317 468.5 c 128,-1,39
 348 500 348 500 348 566 c 0,40,41
 348 618 348 618 324.5 649 c 128,-1,42
 301 680 301 680 260 680 c 0,43,44
 212 680 212 680 186.5 641.5 c 128,-1,45
 161 603 161 603 161 518 c 2,46,-1
 161 0 l 1,47,-1
 56 0 l 1,48,-1
 56 511 l 2,0,1
EndSplineSet
EndChar

StartChar: ae
Encoding: 230 230 169
Width: 760
GlyphClass: 2
Flags: W
LayerCount: 2
Fore
SplineSet
423 225 m 1,0,1
 425 159 425 159 463 115.5 c 128,-1,2
 501 72 501 72 572 72 c 0,3,4
 629 72 629 72 681 95 c 1,5,-1
 686 8 l 1,6,7
 657 -2 657 -2 626.5 -7.5 c 128,-1,8
 596 -13 596 -13 563 -13 c 0,9,10
 488 -13 488 -13 443 14 c 128,-1,11
 398 41 398 41 372 95 c 1,12,13
 350 47 350 47 308 17 c 128,-1,14
 266 -13 266 -13 200 -13 c 0,15,16
 126 -13 126 -13 84 31.5 c 128,-1,17
 42 76 42 76 42 148 c 0,18,19
 42 313 42 313 264 313 c 0,20,21
 278 313 278 313 295 312.5 c 128,-1,22
 312 312 312 312 327 310 c 1,23,24
 327 338 327 338 322 362.5 c 128,-1,25
 317 387 317 387 306 404.5 c 128,-1,26
 295 422 295 422 275.5 432 c 128,-1,27
 256 442 256 442 228 442 c 0,28,29
 193 442 193 442 158.5 431 c 128,-1,30
 124 420 124 420 94 399 c 1,31,-1
 89 487 l 1,32,33
 124 507 124 507 163 515.5 c 128,-1,34
 202 524 202 524 239 524 c 0,35,36
 299 524 299 524 334 504 c 128,-1,37
 369 484 369 484 384 446 c 1,38,39
 410 484 410 484 448 504 c 128,-1,40
 486 524 486 524 534 524 c 0,41,42
 720 524 720 524 720 271 c 0,43,44
 720 262 720 262 719.5 248 c 128,-1,45
 719 234 719 234 718 225 c 1,46,-1
 423 225 l 1,0,1
329 243 m 1,47,48
 321 244 321 244 311 244.5 c 128,-1,49
 301 245 301 245 287 245 c 0,50,51
 209 245 209 245 175 221.5 c 128,-1,52
 141 198 141 198 141 150 c 0,53,54
 141 114 141 114 161.5 89.5 c 128,-1,55
 182 65 182 65 219 65 c 0,56,57
 275 65 275 65 302 111.5 c 128,-1,58
 329 158 329 158 329 243 c 1,47,48
619 301 m 1,59,60
 619 370 619 370 597 408.5 c 128,-1,61
 575 447 575 447 530 447 c 0,62,63
 486 447 486 447 457 409.5 c 128,-1,64
 428 372 428 372 423 301 c 1,65,-1
 619 301 l 1,59,60
EndSplineSet
EndChar

StartChar: ccedilla
Encoding: 231 231 170
Width: 388
GlyphClass: 2
Flags: W
LayerCount: 2
Fore
SplineSet
349 425 m 1,0,1
 334 430 334 430 319.5 432 c 128,-1,2
 305 434 305 434 288 434 c 0,3,4
 255 434 255 434 228.5 420.5 c 128,-1,5
 202 407 202 407 184 383.5 c 128,-1,6
 166 360 166 360 156.5 327.5 c 128,-1,7
 147 295 147 295 147 258 c 0,8,9
 147 219 147 219 156.5 186.5 c 128,-1,10
 166 154 166 154 184.5 130 c 128,-1,11
 203 106 203 106 230 92.5 c 128,-1,12
 257 79 257 79 292 79 c 0,13,14
 323 79 323 79 352 88 c 1,15,-1
 360 4 l 1,16,17
 342 -1 342 -1 321.5 -4 c 128,-1,18
 301 -7 301 -7 275 -7 c 0,19,20
 270 -7 270 -7 264.5 -7 c 128,-1,21
 259 -7 259 -7 254 -6 c 1,22,-1
 246 -64 l 1,23,24
 251 -62 251 -62 256.5 -62 c 128,-1,25
 262 -62 262 -62 269 -62 c 0,26,27
 303 -62 303 -62 328.5 -80 c 128,-1,28
 354 -98 354 -98 354 -137 c 0,29,30
 354 -185 354 -185 321.5 -207.5 c 128,-1,31
 289 -230 289 -230 242 -230 c 0,32,33
 210 -230 210 -230 185 -224 c 1,34,-1
 189 -181 l 1,35,36
 212 -185 212 -185 232 -185 c 0,37,38
 254 -185 254 -185 271.5 -176 c 128,-1,39
 289 -167 289 -167 289 -144 c 0,40,41
 289 -124 289 -124 274.5 -114.5 c 128,-1,42
 260 -105 260 -105 237 -105 c 0,43,44
 229 -105 229 -105 220 -106 c 128,-1,45
 211 -107 211 -107 197 -111 c 1,46,-1
 207 1 l 1,47,48
 126 21 126 21 81 88.5 c 128,-1,49
 36 156 36 156 36 255 c 0,50,51
 36 313 36 313 52.5 361.5 c 128,-1,52
 69 410 69 410 100.5 445 c 128,-1,53
 132 480 132 480 177 499.5 c 128,-1,54
 222 519 222 519 278 519 c 0,55,56
 298 519 298 519 317.5 517.5 c 128,-1,57
 337 516 337 516 356 511 c 1,58,-1
 349 425 l 1,0,1
EndSplineSet
EndChar

StartChar: eth
Encoding: 240 240 179
Width: 502
GlyphClass: 2
Flags: W
LayerCount: 2
Fore
SplineSet
468 281 m 0,0,1
 468 225 468 225 456.5 172.5 c 128,-1,2
 445 120 445 120 420 79 c 128,-1,3
 395 38 395 38 355 13.5 c 128,-1,4
 315 -11 315 -11 257 -11 c 0,5,6
 202 -11 202 -11 160 8.5 c 128,-1,7
 118 28 118 28 90 63 c 128,-1,8
 62 98 62 98 48 146.5 c 128,-1,9
 34 195 34 195 34 252 c 256,10,11
 34 309 34 309 49.5 356.5 c 128,-1,12
 65 404 65 404 92 437.5 c 128,-1,13
 119 471 119 471 155.5 489.5 c 128,-1,14
 192 508 192 508 233 508 c 0,15,16
 299 508 299 508 343 456 c 1,17,-1
 345 456 l 1,18,19
 334 496 334 496 305 542 c 128,-1,20
 276 588 276 588 235 623 c 1,21,-1
 141 555 l 1,22,-1
 103 603 l 1,23,-1
 189 664 l 1,24,25
 150 694 150 694 101 712 c 1,26,-1
 159 779 l 1,27,28
 190 766 190 766 217 751.5 c 128,-1,29
 244 737 244 737 270 717 c 1,30,-1
 347 776 l 1,31,-1
 386 726 l 1,32,-1
 317 677 l 1,33,34
 395 599 395 599 431.5 500.5 c 128,-1,35
 468 402 468 402 468 281 c 0,0,1
253 427 m 0,36,37
 227 427 227 427 206.5 413.5 c 128,-1,38
 186 400 186 400 172 376.5 c 128,-1,39
 158 353 158 353 150.5 321 c 128,-1,40
 143 289 143 289 143 252 c 0,41,42
 143 213 143 213 150.5 180.5 c 128,-1,43
 158 148 158 148 172.5 124.5 c 128,-1,44
 187 101 187 101 208.5 88 c 128,-1,45
 230 75 230 75 258 75 c 0,46,47
 284 75 284 75 303 88.5 c 128,-1,48
 322 102 322 102 335 126 c 128,-1,49
 348 150 348 150 354 182 c 128,-1,50
 360 214 360 214 360 252 c 0,51,52
 360 330 360 330 334 378.5 c 128,-1,53
 308 427 308 427 253 427 c 0,36,37
EndSplineSet
EndChar

StartChar: divide
Encoding: 247 247 186
Width: 584
GlyphClass: 2
Flags: W
LayerCount: 2
Fore
SplineSet
540 297 m 1,0,-1
 540 209 l 1,1,-1
 31 209 l 1,2,-1
 31 297 l 1,3,-1
 540 297 l 1,0,-1
346 12 m 1,4,-1
 229 12 l 1,5,-1
 229 129 l 1,6,-1
 346 129 l 1,7,-1
 346 12 l 1,4,-1
346 377 m 1,8,-1
 229 377 l 1,9,-1
 229 494 l 1,10,-1
 346 494 l 1,11,-1
 346 377 l 1,8,-1
EndSplineSet
EndChar

StartChar: oslash
Encoding: 248 248 187
Width: 504
GlyphClass: 2
Flags: W
LayerCount: 2
Fore
SplineSet
253 524 m 0,0,1
 322 524 322 524 371 487 c 1,2,-1
 407 546 l 1,3,-1
 451 514 l 1,4,-1
 409 450 l 1,5,6
 436 414 436 414 451 364 c 128,-1,7
 466 314 466 314 466 254 c 256,8,9
 466 194 466 194 451.5 145 c 128,-1,10
 437 96 437 96 409.5 61 c 128,-1,11
 382 26 382 26 342.5 7 c 128,-1,12
 303 -12 303 -12 252 -12 c 0,13,14
 183 -12 183 -12 132 25 c 1,15,-1
 97 -29 l 1,16,-1
 53 0 l 1,17,-1
 95 62 l 1,18,19
 66 97 66 97 52 145.5 c 128,-1,20
 38 194 38 194 38 254 c 256,21,22
 38 314 38 314 52.5 364 c 128,-1,23
 67 414 67 414 94.5 449.5 c 128,-1,24
 122 485 122 485 162 504.5 c 128,-1,25
 202 524 202 524 253 524 c 0,0,1
359 253 m 0,26,27
 359 312 359 312 345 357 c 1,28,-1
 184 102 l 1,29,30
 210 71 210 71 253 71 c 0,31,32
 307 71 307 71 333 121 c 128,-1,33
 359 171 359 171 359 253 c 0,26,27
251 441 m 0,34,35
 225 441 225 441 205 427.5 c 128,-1,36
 185 414 185 414 171.5 389 c 128,-1,37
 158 364 158 364 151.5 330 c 128,-1,38
 145 296 145 296 145 254 c 0,39,40
 145 196 145 196 157 156 c 1,41,-1
 318 409 l 1,42,43
 292 441 292 441 251 441 c 0,34,35
EndSplineSet
EndChar

StartChar: thorn
Encoding: 254 254 193
Width: 521
GlyphClass: 2
Flags: W
LayerCount: 2
Fore
SplineSet
170 756 m 1,0,-1
 170 560 l 2,1,2
 170 523 170 523 169.5 495.5 c 128,-1,3
 169 468 169 468 167 444 c 1,4,-1
 169 444 l 1,5,6
 189 482 189 482 221 503 c 128,-1,7
 253 524 253 524 298 524 c 0,8,9
 340 524 340 524 374 504.5 c 128,-1,10
 408 485 408 485 432 449.5 c 128,-1,11
 456 414 456 414 469 365.5 c 128,-1,12
 482 317 482 317 482 260 c 0,13,14
 482 202 482 202 469.5 152 c 128,-1,15
 457 102 457 102 433 65.5 c 128,-1,16
 409 29 409 29 375 8.5 c 128,-1,17
 341 -12 341 -12 298 -12 c 0,18,19
 250 -12 250 -12 218 8.5 c 128,-1,20
 186 29 186 29 169 67 c 1,21,-1
 167 67 l 1,22,23
 168 58 168 58 168.5 44 c 128,-1,24
 169 30 169 30 169.5 14 c 128,-1,25
 170 -2 170 -2 170 -18 c 128,-1,26
 170 -34 170 -34 170 -47 c 2,27,-1
 170 -211 l 1,28,-1
 65 -211 l 1,29,-1
 65 756 l 1,30,-1
 170 756 l 1,0,-1
272 442 m 0,31,32
 246 442 246 442 225.5 427 c 128,-1,33
 205 412 205 412 191 386.5 c 128,-1,34
 177 361 177 361 170 326.5 c 128,-1,35
 163 292 163 292 163 254 c 256,36,37
 163 216 163 216 170 183 c 128,-1,38
 177 150 177 150 191 124.5 c 128,-1,39
 205 99 205 99 225 84.5 c 128,-1,40
 245 70 245 70 272 70 c 0,41,42
 296 70 296 70 315 84.5 c 128,-1,43
 334 99 334 99 347 124.5 c 128,-1,44
 360 150 360 150 367 184 c 128,-1,45
 374 218 374 218 374 257 c 0,46,47
 374 297 374 297 367.5 331 c 128,-1,48
 361 365 361 365 348 389.5 c 128,-1,49
 335 414 335 414 316 428 c 128,-1,50
 297 442 297 442 272 442 c 0,31,32
EndSplineSet
EndChar

StartChar: dotlessi
Encoding: 305 305 195
Width: 247
GlyphClass: 2
Flags: W
LayerCount: 2
Fore
SplineSet
176 512 m 1,0,-1
 176 0 l 1,1,-1
 71 0 l 1,2,-1
 71 512 l 1,3,-1
 176 512 l 1,0,-1
EndSplineSet
EndChar

StartChar: OE
Encoding: 338 338 196
Width: 797
GlyphClass: 2
Flags: W
LayerCount: 2
Fore
SplineSet
485 0 m 2,0,1
 456 0 456 0 427.5 -3.5 c 128,-1,2
 399 -7 399 -7 364 -7 c 0,3,4
 290 -7 290 -7 231 16.5 c 128,-1,5
 172 40 172 40 131 85.5 c 128,-1,6
 90 131 90 131 67.5 197 c 128,-1,7
 45 263 45 263 45 348 c 0,8,9
 45 431 45 431 68.5 497 c 128,-1,10
 92 563 92 563 134.5 609 c 128,-1,11
 177 655 177 655 236.5 679.5 c 128,-1,12
 296 704 296 704 369 704 c 0,13,14
 398 704 398 704 428 701 c 128,-1,15
 458 698 458 698 482 698 c 2,16,-1
 746 698 l 1,17,-1
 746 609 l 1,18,-1
 519 609 l 1,19,-1
 519 403 l 1,20,-1
 733 403 l 1,21,-1
 733 316 l 1,22,-1
 519 316 l 1,23,-1
 519 90 l 1,24,-1
 757 90 l 1,25,-1
 757 0 l 1,26,-1
 485 0 l 2,0,1
411 609 m 1,27,28
 400 611 400 611 386.5 611.5 c 128,-1,29
 373 612 373 612 362 612 c 0,30,31
 312 612 312 612 274 592.5 c 128,-1,32
 236 573 236 573 210 538 c 128,-1,33
 184 503 184 503 170.5 454.5 c 128,-1,34
 157 406 157 406 157 349 c 0,35,36
 157 290 157 290 171 241.5 c 128,-1,37
 185 193 185 193 212.5 158 c 128,-1,38
 240 123 240 123 280 103.5 c 128,-1,39
 320 84 320 84 372 84 c 0,40,41
 391 84 391 84 411 88 c 1,42,-1
 411 609 l 1,27,28
EndSplineSet
EndChar

StartChar: oe
Encoding: 339 339 197
Width: 803
GlyphClass: 2
Flags: W
LayerCount: 2
Fore
SplineSet
255 524 m 0,0,1
 310 524 310 524 350.5 498.5 c 128,-1,2
 391 473 391 473 414 428 c 1,3,4
 439 473 439 473 479.5 498.5 c 128,-1,5
 520 524 520 524 576 524 c 0,6,7
 668 524 668 524 715.5 461.5 c 128,-1,8
 763 399 763 399 763 271 c 0,9,10
 763 262 763 262 762.5 247 c 128,-1,11
 762 232 762 232 761 224 c 1,12,-1
 465 224 l 1,13,14
 467 157 467 157 505 114.5 c 128,-1,15
 543 72 543 72 612 72 c 0,16,17
 668 72 668 72 725 96 c 1,18,-1
 729 8 l 1,19,20
 672 -13 672 -13 603 -13 c 0,21,22
 470 -13 470 -13 415 87 c 1,23,24
 390 39 390 39 350.5 13 c 128,-1,25
 311 -13 311 -13 254 -13 c 0,26,27
 204 -13 204 -13 164 6.5 c 128,-1,28
 124 26 124 26 96 61.5 c 128,-1,29
 68 97 68 97 53 146 c 128,-1,30
 38 195 38 195 38 254 c 0,31,32
 38 314 38 314 53 364 c 128,-1,33
 68 414 68 414 96 449.5 c 128,-1,34
 124 485 124 485 164 504.5 c 128,-1,35
 204 524 204 524 255 524 c 0,0,1
254 439 m 0,36,37
 202 439 202 439 175 387.5 c 128,-1,38
 148 336 148 336 148 254 c 0,39,40
 148 173 148 173 174.5 122.5 c 128,-1,41
 201 72 201 72 256 72 c 0,42,43
 309 72 309 72 336 122.5 c 128,-1,44
 363 173 363 173 363 254 c 0,45,46
 363 295 363 295 356 329 c 128,-1,47
 349 363 349 363 335 387.5 c 128,-1,48
 321 412 321 412 301 425.5 c 128,-1,49
 281 439 281 439 254 439 c 0,36,37
662 301 m 1,50,51
 662 370 662 370 640 409 c 128,-1,52
 618 448 618 448 573 448 c 0,53,54
 529 448 529 448 499.5 410 c 128,-1,55
 470 372 470 372 465 301 c 1,56,-1
 662 301 l 1,50,51
EndSplineSet
EndChar

StartChar: florin
Encoding: 402 402 203
Width: 501
GlyphClass: 2
Flags: W
LayerCount: 2
Fore
SplineSet
246 9 m 2,0,1
 226 -101 226 -101 181.5 -149.5 c 128,-1,2
 137 -198 137 -198 57 -198 c 0,3,4
 40 -198 40 -198 21.5 -195.5 c 128,-1,5
 3 -193 3 -193 -13 -188 c 1,6,-1
 -1 -110 l 1,7,8
 10 -115 10 -115 23 -117.5 c 128,-1,9
 36 -120 36 -120 49 -120 c 0,10,11
 70 -120 70 -120 85.5 -112 c 128,-1,12
 101 -104 101 -104 112 -87 c 128,-1,13
 123 -70 123 -70 131 -44 c 128,-1,14
 139 -18 139 -18 146 19 c 2,15,-1
 202 334 l 1,16,-1
 95 334 l 1,17,-1
 95 399 l 1,18,-1
 213 399 l 1,19,-1
 232 501 l 2,20,21
 252 610 252 610 298.5 659.5 c 128,-1,22
 345 709 345 709 427 709 c 0,23,24
 444 709 444 709 463 706.5 c 128,-1,25
 482 704 482 704 499 699 c 1,26,-1
 488 622 l 1,27,28
 477 627 477 627 463.5 629.5 c 128,-1,29
 450 632 450 632 437 632 c 0,30,31
 409 632 409 632 390.5 618 c 128,-1,32
 372 604 372 604 359 575.5 c 128,-1,33
 346 547 346 547 336.5 503 c 128,-1,34
 327 459 327 459 316 399 c 1,35,-1
 431 399 l 1,36,-1
 431 334 l 1,37,-1
 305 334 l 1,38,-1
 246 9 l 2,0,1
EndSplineSet
EndChar

StartChar: circumflex
Encoding: 710 710 204
Width: 400
GlyphClass: 2
Flags: W
LayerCount: 2
Fore
SplineSet
264 579 m 1,0,-1
 200 701 l 1,1,-1
 131 579 l 1,2,-1
 53 579 l 1,3,-1
 153 754 l 1,4,-1
 249 754 l 1,5,-1
 346 579 l 1,6,-1
 264 579 l 1,0,-1
EndSplineSet
EndChar

StartChar: caron
Encoding: 711 711 205
Width: 400
GlyphClass: 2
Flags: W
LayerCount: 2
Fore
SplineSet
133 755 m 1,0,-1
 198 633 l 1,1,-1
 266 755 l 1,2,-1
 345 755 l 1,3,-1
 245 579 l 1,4,-1
 148 579 l 1,5,-1
 53 755 l 1,6,-1
 133 755 l 1,0,-1
EndSplineSet
EndChar

StartChar: ring
Encoding: 730 730 206
Width: 400
GlyphClass: 2
Flags: W
LayerCount: 2
Fore
SplineSet
199 610 m 256,0,1
 224 610 224 610 240 627 c 128,-1,2
 256 644 256 644 256 669 c 0,3,4
 256 693 256 693 239.5 710 c 128,-1,5
 223 727 223 727 198 727 c 0,6,7
 174 727 174 727 157 709.5 c 128,-1,8
 140 692 140 692 140 669 c 0,9,10
 140 644 140 644 157 627 c 128,-1,11
 174 610 174 610 199 610 c 256,0,1
199 566 m 0,12,13
 155 566 155 566 125 595.5 c 128,-1,14
 95 625 95 625 95 669 c 0,15,16
 95 690 95 690 103 709 c 128,-1,17
 111 728 111 728 125.5 741.5 c 128,-1,18
 140 755 140 755 159 763 c 128,-1,19
 178 771 178 771 200 771 c 0,20,21
 221 771 221 771 239.5 763 c 128,-1,22
 258 755 258 755 271.5 741 c 128,-1,23
 285 727 285 727 293 708.5 c 128,-1,24
 301 690 301 690 301 669 c 0,25,26
 301 625 301 625 271.5 595.5 c 128,-1,27
 242 566 242 566 199 566 c 0,12,13
EndSplineSet
EndChar

StartChar: tilde
Encoding: 732 732 207
Width: 400
GlyphClass: 2
Flags: W
LayerCount: 2
Fore
SplineSet
353 717 m 1,0,1
 348 659 348 659 326 629 c 128,-1,2
 304 599 304 599 266 599 c 0,3,4
 240 599 240 599 196 619 c 1,5,6
 169 630 169 630 155.5 635 c 128,-1,7
 142 640 142 640 131 640 c 0,8,9
 115 640 115 640 105.5 630 c 128,-1,10
 96 620 96 620 91 594 c 1,11,-1
 43 594 l 1,12,13
 49 649 49 649 72 679.5 c 128,-1,14
 95 710 95 710 136 710 c 0,15,16
 154 710 154 710 171 704.5 c 128,-1,17
 188 699 188 699 214 688 c 0,18,19
 236 678 236 678 248 674 c 128,-1,20
 260 670 260 670 268 670 c 0,21,22
 299 670 299 670 305 717 c 1,23,-1
 353 717 l 1,0,1
EndSplineSet
EndChar

StartChar: endash
Encoding: 8211 8211 208
Width: 489
GlyphClass: 2
Flags: W
LayerCount: 2
Fore
SplineSet
489 307 m 1,0,-1
 489 226 l 1,1,-1
 0 226 l 1,2,-1
 0 307 l 1,3,-1
 489 307 l 1,0,-1
EndSplineSet
EndChar

StartChar: emdash
Encoding: 8212 8212 209
Width: 979
GlyphClass: 2
Flags: W
LayerCount: 2
Fore
SplineSet
861 225 m 1,0,-1
 117 225 l 1,1,-1
 117 307 l 1,2,-1
 861 307 l 1,3,-1
 861 225 l 1,0,-1
EndSplineSet
EndChar

StartChar: quoteleft
Encoding: 8216 8216 210
Width: 245
GlyphClass: 2
Flags: W
LayerCount: 2
Fore
SplineSet
47 497 m 1,0,-1
 120 734 l 1,1,-1
 198 734 l 1,2,-1
 145 497 l 1,3,-1
 47 497 l 1,0,-1
EndSplineSet
EndChar

StartChar: quoteright
Encoding: 8217 8217 211
Width: 245
GlyphClass: 2
Flags: W
LayerCount: 2
Fore
SplineSet
198 734 m 1,0,1
 196 730 196 730 190.5 712 c 128,-1,2
 185 694 185 694 177.5 669 c 128,-1,3
 170 644 170 644 161.5 615.5 c 128,-1,4
 153 587 153 587 145.5 562 c 128,-1,5
 138 537 138 537 132 519 c 128,-1,6
 126 501 126 501 125 497 c 1,7,-1
 47 497 l 1,8,-1
 100 734 l 1,9,-1
 198 734 l 1,0,1
EndSplineSet
EndChar

StartChar: quotesinglbase
Encoding: 8218 8218 212
Width: 245
GlyphClass: 2
Flags: W
LayerCount: 2
Fore
SplineSet
198 112 m 1,0,-1
 125 -124 l 1,1,-1
 47 -124 l 1,2,-1
 100 112 l 1,3,-1
 198 112 l 1,0,-1
EndSplineSet
EndChar

StartChar: quotedblleft
Encoding: 8220 8220 213
Width: 395
GlyphClass: 2
Flags: W
LayerCount: 2
Fore
SplineSet
197 497 m 1,0,-1
 269 734 l 1,1,-1
 347 734 l 1,2,-1
 294 497 l 1,3,-1
 197 497 l 1,0,-1
47 497 m 1,4,5
 48 501 48 501 54 519 c 128,-1,6
 60 537 60 537 67.5 562 c 128,-1,7
 75 587 75 587 83.5 615.5 c 128,-1,8
 92 644 92 644 99.5 669 c 128,-1,9
 107 694 107 694 112.5 712 c 128,-1,10
 118 730 118 730 120 734 c 1,11,-1
 198 734 l 1,12,-1
 145 497 l 1,13,-1
 47 497 l 1,4,5
EndSplineSet
EndChar

StartChar: quotedblright
Encoding: 8221 8221 214
Width: 395
GlyphClass: 2
Flags: W
LayerCount: 2
Fore
SplineSet
198 734 m 1,0,-1
 125 497 l 1,1,-1
 47 497 l 1,2,-1
 100 734 l 1,3,-1
 198 734 l 1,0,-1
347 734 m 1,4,5
 346 730 346 730 340.5 712 c 128,-1,6
 335 694 335 694 327.5 669 c 128,-1,7
 320 644 320 644 311.5 615.5 c 128,-1,8
 303 587 303 587 295.5 562 c 128,-1,9
 288 537 288 537 282 519 c 128,-1,10
 276 501 276 501 275 497 c 1,11,-1
 197 497 l 1,12,-1
 250 734 l 1,13,-1
 347 734 l 1,4,5
EndSplineSet
EndChar

StartChar: quotedblbase
Encoding: 8222 8222 215
Width: 395
GlyphClass: 2
Flags: W
LayerCount: 2
Fore
SplineSet
198 112 m 1,0,-1
 125 -125 l 1,1,-1
 47 -125 l 1,2,-1
 100 112 l 1,3,-1
 198 112 l 1,0,-1
347 112 m 1,4,-1
 275 -125 l 1,5,-1
 197 -125 l 1,6,-1
 250 112 l 1,7,-1
 347 112 l 1,4,-1
EndSplineSet
EndChar

StartChar: dagger
Encoding: 8224 8224 216
Width: 501
GlyphClass: 2
Flags: W
LayerCount: 2
Fore
SplineSet
291 524 m 1,0,-1
 431 524 l 1,1,-1
 431 442 l 1,2,-1
 291 442 l 1,3,-1
 291 0 l 1,4,-1
 208 0 l 1,5,-1
 208 442 l 1,6,-1
 69 442 l 1,7,-1
 69 524 l 1,8,-1
 208 524 l 1,9,-1
 208 698 l 1,10,-1
 291 698 l 1,11,-1
 291 524 l 1,0,-1
EndSplineSet
EndChar

StartChar: daggerdbl
Encoding: 8225 8225 217
Width: 501
GlyphClass: 2
Flags: W
LayerCount: 2
Fore
SplineSet
291 528 m 1,0,-1
 431 528 l 1,1,-1
 431 445 l 1,2,-1
 291 445 l 1,3,-1
 291 253 l 1,4,-1
 431 253 l 1,5,-1
 431 170 l 1,6,-1
 291 170 l 1,7,-1
 291 0 l 1,8,-1
 208 0 l 1,9,-1
 208 170 l 1,10,-1
 69 170 l 1,11,-1
 69 253 l 1,12,-1
 208 253 l 1,13,-1
 208 445 l 1,14,-1
 69 445 l 1,15,-1
 69 528 l 1,16,-1
 208 528 l 1,17,-1
 208 698 l 1,18,-1
 291 698 l 1,19,-1
 291 528 l 1,0,-1
EndSplineSet
EndChar

StartChar: bullet
Encoding: 8226 8226 218
Width: 492
GlyphClass: 2
Flags: W
LayerCount: 2
Fore
SplineSet
249 512 m 0,0,1
 283 512 283 512 313.5 498.5 c 128,-1,2
 344 485 344 485 367 461.5 c 128,-1,3
 390 438 390 438 403 407 c 128,-1,4
 416 376 416 376 416 341 c 256,5,6
 416 306 416 306 403 275 c 128,-1,7
 390 244 390 244 367 221 c 128,-1,8
 344 198 344 198 313 184.5 c 128,-1,9
 282 171 282 171 247 171 c 0,10,11
 211 171 211 171 180 184.5 c 128,-1,12
 149 198 149 198 125.5 221 c 128,-1,13
 102 244 102 244 89 275.5 c 128,-1,14
 76 307 76 307 76 343 c 0,15,16
 76 378 76 378 89.5 409 c 128,-1,17
 103 440 103 440 126 463 c 128,-1,18
 149 486 149 486 181 499 c 128,-1,19
 213 512 213 512 249 512 c 0,0,1
EndSplineSet
EndChar

StartChar: ellipsis
Encoding: 8230 8230 219
Width: 1000
GlyphClass: 2
Flags: W
LayerCount: 2
Fore
SplineSet
226 122 m 1,0,-1
 226 0 l 1,1,-1
 108 0 l 1,2,-1
 108 122 l 1,3,-1
 226 122 l 1,0,-1
559 122 m 1,4,-1
 559 0 l 1,5,-1
 441 0 l 1,6,-1
 441 122 l 1,7,-1
 559 122 l 1,4,-1
892 122 m 1,8,-1
 892 0 l 1,9,-1
 774 0 l 1,10,-1
 774 122 l 1,11,-1
 892 122 l 1,8,-1
EndSplineSet
EndChar

StartChar: perthousand
Encoding: 8240 8240 220
Width: 1100
GlyphClass: 2
Flags: W
LayerCount: 2
Fore
SplineSet
188 414 m 256,0,1
 217 414 217 414 232.5 444.5 c 128,-1,2
 248 475 248 475 248 529 c 256,3,4
 248 583 248 583 232.5 613.5 c 128,-1,5
 217 644 217 644 187 644 c 0,6,7
 158 644 158 644 143.5 613.5 c 128,-1,8
 129 583 129 583 129 527 c 0,9,10
 129 474 129 474 144 444 c 128,-1,11
 159 414 159 414 188 414 c 256,0,1
188 346 m 0,12,13
 123 346 123 346 86 393.5 c 128,-1,14
 49 441 49 441 49 529 c 0,15,16
 49 619 49 619 86.5 665.5 c 128,-1,17
 124 712 124 712 190 712 c 0,18,19
 254 712 254 712 291 665 c 128,-1,20
 328 618 328 618 328 530 c 256,21,22
 328 442 328 442 291 394 c 128,-1,23
 254 346 254 346 188 346 c 0,12,13
618 735 m 1,24,-1
 227 -22 l 1,25,-1
 155 -22 l 1,26,-1
 545 735 l 1,27,-1
 618 735 l 1,24,-1
583 58 m 256,28,29
 612 58 612 58 627 88.5 c 128,-1,30
 642 119 642 119 642 173 c 256,31,32
 642 227 642 227 627 257 c 128,-1,33
 612 287 612 287 581 287 c 0,34,35
 552 287 552 287 537.5 256.5 c 128,-1,36
 523 226 523 226 523 170 c 0,37,38
 523 117 523 117 538.5 87.5 c 128,-1,39
 554 58 554 58 583 58 c 256,28,29
583 -10 m 256,40,41
 517 -10 517 -10 480 37.5 c 128,-1,42
 443 85 443 85 443 173 c 0,43,44
 443 262 443 262 480.5 309 c 128,-1,45
 518 356 518 356 584 356 c 0,46,47
 648 356 648 356 685 309 c 128,-1,48
 722 262 722 262 722 174 c 256,49,50
 722 86 722 86 685.5 38 c 128,-1,51
 649 -10 649 -10 583 -10 c 256,40,41
911 58 m 256,52,53
 940 58 940 58 955 88.5 c 128,-1,54
 970 119 970 119 970 173 c 256,55,56
 970 227 970 227 955 257 c 128,-1,57
 940 287 940 287 909 287 c 0,58,59
 880 287 880 287 866 256.5 c 128,-1,60
 852 226 852 226 852 170 c 0,61,62
 852 117 852 117 867 87.5 c 128,-1,63
 882 58 882 58 911 58 c 256,52,53
911 -10 m 256,64,65
 845 -10 845 -10 808 37.5 c 128,-1,66
 771 85 771 85 771 173 c 0,67,68
 771 262 771 262 808.5 309 c 128,-1,69
 846 356 846 356 913 356 c 0,70,71
 976 356 976 356 1013 309 c 128,-1,72
 1050 262 1050 262 1050 174 c 256,73,74
 1050 86 1050 86 1013.5 38 c 128,-1,75
 977 -10 977 -10 911 -10 c 256,64,65
EndSplineSet
EndChar

StartChar: guilsinglleft
Encoding: 8249 8249 221
Width: 277
GlyphClass: 2
Flags: W
LayerCount: 2
Fore
SplineSet
140 252 m 1,0,-1
 229 51 l 1,1,-1
 148 51 l 1,2,-1
 47 252 l 1,3,-1
 145 452 l 1,4,-1
 228 452 l 1,5,-1
 140 252 l 1,0,-1
EndSplineSet
EndChar

StartChar: guilsinglright
Encoding: 8250 8250 222
Width: 277
GlyphClass: 2
Flags: W
LayerCount: 2
Fore
SplineSet
137 251 m 1,0,-1
 47 452 l 1,1,-1
 129 452 l 1,2,-1
 229 251 l 1,3,-1
 132 51 l 1,4,-1
 49 51 l 1,5,-1
 137 251 l 1,0,-1
EndSplineSet
EndChar

StartChar: fraction
Encoding: 8260 8260 223
Width: 102
GlyphClass: 2
Flags: W
LayerCount: 2
Fore
SplineSet
-104 -21 m 1,0,-1
 -173 -21 l 1,1,-1
 209 734 l 1,2,-1
 278 734 l 1,3,-1
 -104 -21 l 1,0,-1
EndSplineSet
EndChar

StartChar: Euro
Encoding: 8364 8364 224
Width: 501
GlyphClass: 2
Flags: W
LayerCount: 2
Fore
SplineSet
456 613 m 1,0,1
 438 618 438 618 422.5 619 c 128,-1,2
 407 620 407 620 390 620 c 0,3,4
 315 620 315 620 268.5 574 c 128,-1,5
 222 528 222 528 204 450 c 1,6,-1
 423 450 l 1,7,-1
 411 386 l 1,8,-1
 194 386 l 1,9,10
 193 378 193 378 193 369.5 c 128,-1,11
 193 361 193 361 193 353 c 0,12,13
 193 346 193 346 193 338.5 c 128,-1,14
 193 331 193 331 194 325 c 1,15,-1
 403 325 l 1,16,-1
 391 261 l 1,17,-1
 204 261 l 1,18,19
 220 177 220 177 267.5 128.5 c 128,-1,20
 315 80 315 80 393 80 c 0,21,22
 408 80 408 80 423 82 c 128,-1,23
 438 84 438 84 455 89 c 1,24,-1
 459 0 l 1,25,26
 428 -7 428 -7 388 -7 c 0,27,28
 260 -7 260 -7 188 63.5 c 128,-1,29
 116 134 116 134 96 261 c 1,30,-1
 26 261 l 1,31,-1
 35 325 l 1,32,-1
 88 325 l 1,33,34
 87 332 87 332 87 339 c 128,-1,35
 87 346 87 346 87 353 c 0,36,37
 87 361 87 361 87 369.5 c 128,-1,38
 87 378 87 378 88 386 c 1,39,-1
 26 386 l 1,40,-1
 35 450 l 1,41,-1
 98 450 l 1,42,43
 110 508 110 508 134 555 c 128,-1,44
 158 602 158 602 194 635.5 c 128,-1,45
 230 669 230 669 277.5 687.5 c 128,-1,46
 325 706 325 706 384 706 c 0,47,48
 410 706 410 706 429.5 704.5 c 128,-1,49
 449 703 449 703 471 698 c 1,50,-1
 456 613 l 1,0,1
EndSplineSet
EndChar

StartChar: trademark
Encoding: 8482 8482 225
Width: 737
GlyphClass: 2
Flags: W
LayerCount: 2
Fore
SplineSet
151 627 m 1,0,-1
 65 627 l 1,1,-1
 65 682 l 1,2,-1
 301 682 l 1,3,-1
 301 627 l 1,4,-1
 215 627 l 1,5,-1
 215 332 l 1,6,-1
 151 332 l 1,7,-1
 151 627 l 1,0,-1
342 682 m 1,8,-1
 438 682 l 1,9,-1
 503 420 l 1,10,-1
 505 420 l 1,11,-1
 566 682 l 1,12,-1
 662 682 l 1,13,-1
 662 332 l 1,14,-1
 604 332 l 1,15,-1
 604 624 l 1,16,-1
 602 624 l 1,17,-1
 529 332 l 1,18,-1
 474 332 l 1,19,-1
 400 624 l 1,20,-1
 398 624 l 1,21,-1
 398 332 l 1,22,-1
 342 332 l 1,23,-1
 342 682 l 1,8,-1
EndSplineSet
EndChar

StartChar: glyph223
Encoding: 65539 -1 226
Width: 343
GlyphClass: 2
Flags: W
LayerCount: 2
Fore
SplineSet
237 0 m 1,0,-1
 159 0 l 1,1,-1
 159 199 l 2,2,3
 159 231 159 231 160 268.5 c 128,-1,4
 161 306 161 306 163 332 c 1,5,-1
 162 332 l 1,6,7
 154 324 154 324 136 306 c 128,-1,8
 118 288 118 288 96 268 c 1,9,-1
 58 324 l 1,10,-1
 168 419 l 1,11,-1
 237 419 l 1,12,-1
 237 0 l 1,0,-1
EndSplineSet
EndChar

StartChar: glyph224
Encoding: 65540 -1 227
Width: 343
GlyphClass: 2
Flags: W
LayerCount: 2
Fore
SplineSet
49 399 m 1,0,1
 72 411 72 411 101 418 c 128,-1,2
 130 425 130 425 160 425 c 0,3,4
 214 425 214 425 250 395 c 128,-1,5
 286 365 286 365 286 306 c 0,6,7
 286 286 286 286 282 266.5 c 128,-1,8
 278 247 278 247 267.5 226 c 128,-1,9
 257 205 257 205 240 181 c 128,-1,10
 223 157 223 157 197 129 c 0,11,12
 174 105 174 105 159 92 c 128,-1,13
 144 79 144 79 130 68 c 1,14,-1
 130 66 l 1,15,16
 144 66 144 66 160 66.5 c 128,-1,17
 176 67 176 67 192 67.5 c 128,-1,18
 208 68 208 68 222 68 c 128,-1,19
 236 68 236 68 246 68 c 2,20,-1
 295 68 l 1,21,-1
 295 0 l 1,22,-1
 41 0 l 1,23,-1
 41 70 l 1,24,25
 119 143 119 143 162 198 c 128,-1,26
 205 253 205 253 205 298 c 0,27,28
 205 327 205 327 188.5 341 c 128,-1,29
 172 355 172 355 144 355 c 0,30,31
 124 355 124 355 102.5 347.5 c 128,-1,32
 81 340 81 340 58 326 c 1,33,-1
 49 399 l 1,0,1
EndSplineSet
EndChar

StartChar: glyph225
Encoding: 65541 -1 228
Width: 343
GlyphClass: 2
Flags: W
LayerCount: 2
Fore
SplineSet
117 183 m 0,0,1
 113 183 113 183 107.5 182.5 c 128,-1,2
 102 182 102 182 97 181 c 1,3,-1
 97 250 l 1,4,5
 102 249 102 249 107 248.5 c 128,-1,6
 112 248 112 248 117 248 c 0,7,8
 214 248 214 248 214 308 c 0,9,10
 214 331 214 331 195.5 344.5 c 128,-1,11
 177 358 177 358 145 358 c 0,12,13
 123 358 123 358 100.5 352.5 c 128,-1,14
 78 347 78 347 61 337 c 1,15,-1
 56 406 l 1,16,17
 81 416 81 416 107 420.5 c 128,-1,18
 133 425 133 425 158 425 c 0,19,20
 221 425 221 425 256.5 396.5 c 128,-1,21
 292 368 292 368 292 317 c 0,22,23
 292 278 292 278 267.5 253 c 128,-1,24
 243 228 243 228 208 220 c 1,25,-1
 208 218 l 1,26,27
 248 212 248 212 271.5 185.5 c 128,-1,28
 295 159 295 159 295 117 c 0,29,30
 295 88 295 88 283.5 65 c 128,-1,31
 272 42 272 42 252 26.5 c 128,-1,32
 232 11 232 11 204.5 2.5 c 128,-1,33
 177 -6 177 -6 144 -6 c 0,34,35
 121 -6 121 -6 95 -2.5 c 128,-1,36
 69 1 69 1 45 9 c 1,37,-1
 50 81 l 1,38,39
 94 62 94 62 137 62 c 0,40,41
 172 62 172 62 193.5 77 c 128,-1,42
 215 92 215 92 215 122 c 0,43,44
 215 154 215 154 190.5 168.5 c 128,-1,45
 166 183 166 183 117 183 c 0,0,1
EndSplineSet
EndChar

StartChar: glyph226
Encoding: 65542 -1 229
Width: 343
GlyphClass: 2
Flags: W
LayerCount: 2
Fore
SplineSet
271 149 m 1,0,-1
 321 149 l 1,1,-1
 321 84 l 1,2,-1
 271 84 l 1,3,-1
 271 0 l 1,4,-1
 198 0 l 1,5,-1
 198 84 l 1,6,-1
 27 84 l 1,7,-1
 27 156 l 1,8,-1
 173 419 l 1,9,-1
 271 419 l 1,10,-1
 271 149 l 1,0,-1
198 223 m 2,11,12
 198 250 198 250 198.5 287.5 c 128,-1,13
 199 325 199 325 201 357 c 1,14,-1
 199 357 l 1,15,16
 194 347 194 347 187 332 c 128,-1,17
 180 317 180 317 168 293 c 128,-1,18
 156 269 156 269 138 234 c 128,-1,19
 120 199 120 199 94 149 c 1,20,-1
 198 149 l 1,21,-1
 198 223 l 2,11,12
EndSplineSet
EndChar

StartChar: glyph227
Encoding: 65543 -1 230
Width: 400
GlyphClass: 2
Flags: W
LayerCount: 2
Fore
SplineSet
211 750 m 1,0,-1
 144 750 l 1,1,-1
 221 897 l 1,2,-1
 334 897 l 1,3,-1
 211 750 l 1,0,-1
EndSplineSet
EndChar

StartChar: glyph228
Encoding: 65544 -1 231
Width: 400
GlyphClass: 2
Flags: W
LayerCount: 2
Fore
SplineSet
135 897 m 1,0,-1
 200 803 l 1,1,-1
 267 897 l 1,2,-1
 346 897 l 1,3,-1
 245 749 l 1,4,-1
 150 749 l 1,5,-1
 54 897 l 1,6,-1
 135 897 l 1,0,-1
EndSplineSet
EndChar

StartChar: glyph229
Encoding: 65545 -1 232
Width: 400
GlyphClass: 2
Flags: W
LayerCount: 2
Fore
SplineSet
264 750 m 1,0,-1
 200 844 l 1,1,-1
 132 750 l 1,2,-1
 54 750 l 1,3,-1
 153 898 l 1,4,-1
 249 898 l 1,5,-1
 346 750 l 1,6,-1
 264 750 l 1,0,-1
EndSplineSet
EndChar

StartChar: glyph230
Encoding: 65546 -1 233
Width: 400
GlyphClass: 2
Flags: W
LayerCount: 2
Fore
SplineSet
340 779 m 1,0,-1
 241 779 l 1,1,-1
 241 889 l 1,2,-1
 340 889 l 1,3,-1
 340 779 l 1,0,-1
159 779 m 1,4,-1
 60 779 l 1,5,-1
 60 889 l 1,6,-1
 159 889 l 1,7,-1
 159 779 l 1,4,-1
EndSplineSet
EndChar

StartChar: glyph231
Encoding: 65547 -1 234
Width: 400
GlyphClass: 2
Flags: W
LayerCount: 2
Fore
SplineSet
182 897 m 1,0,-1
 258 750 l 1,1,-1
 191 750 l 1,2,-1
 69 897 l 1,3,-1
 182 897 l 1,0,-1
EndSplineSet
EndChar

StartChar: glyph232
Encoding: 65548 -1 235
Width: 400
GlyphClass: 2
Flags: W
LayerCount: 2
Fore
SplineSet
199 776 m 256,0,1
 224 776 224 776 240 793 c 128,-1,2
 256 810 256 810 256 835 c 0,3,4
 256 859 256 859 239.5 875.5 c 128,-1,5
 223 892 223 892 198 892 c 0,6,7
 174 892 174 892 157 875 c 128,-1,8
 140 858 140 858 140 835 c 0,9,10
 140 810 140 810 157 793 c 128,-1,11
 174 776 174 776 199 776 c 256,0,1
199 732 m 0,12,13
 155 732 155 732 125 761.5 c 128,-1,14
 95 791 95 791 95 835 c 0,15,16
 95 856 95 856 103 875 c 128,-1,17
 111 894 111 894 125.5 907.5 c 128,-1,18
 140 921 140 921 159 929 c 128,-1,19
 178 937 178 937 200 937 c 0,20,21
 221 937 221 937 239.5 929 c 128,-1,22
 258 921 258 921 271.5 907 c 128,-1,23
 285 893 285 893 293 874.5 c 128,-1,24
 301 856 301 856 301 835 c 0,25,26
 301 791 301 791 271.5 761.5 c 128,-1,27
 242 732 242 732 199 732 c 0,12,13
EndSplineSet
EndChar

StartChar: glyph233
Encoding: 65549 -1 236
Width: 400
GlyphClass: 2
Flags: W
LayerCount: 2
Fore
SplineSet
356 888 m 1,0,1
 344 770 344 770 266 770 c 0,2,3
 242 770 242 770 195 789 c 0,4,5
 167 801 167 801 153 806 c 128,-1,6
 139 811 139 811 129 811 c 0,7,8
 112 811 112 811 102.5 801 c 128,-1,9
 93 791 93 791 87 765 c 1,10,-1
 39 765 l 1,11,12
 44 820 44 820 68 850.5 c 128,-1,13
 92 881 92 881 133 881 c 0,14,15
 152 881 152 881 169 875.5 c 128,-1,16
 186 870 186 870 213 859 c 0,17,18
 236 849 236 849 248 845 c 128,-1,19
 260 841 260 841 269 841 c 0,20,21
 301 841 301 841 307 888 c 1,22,-1
 356 888 l 1,0,1
EndSplineSet
EndChar
